<svg xmlns="http://www.w3.org/2000/svg" xmlns:xlink="http://www.w3.org/1999/xlink" width="500" zoomAndPan="magnify" viewBox="0 0 375 374.999991" height="500" preserveAspectRatio="xMidYMid meet" version="1.0"><defs><g/><clipPath id="id1"><path d="M 104.296875 122 L 164 122 L 164 193.589844 L 104.296875 193.589844 Z M 104.296875 122 " clip-rule="nonzero"/></clipPath><clipPath id="id2"><path d="M 123 103 L 194 103 L 194 193.589844 L 123 193.589844 Z M 123 103 " clip-rule="nonzero"/></clipPath><clipPath id="id3"><path d="M 179 103 L 251 103 L 251 193.589844 L 179 193.589844 Z M 179 103 " clip-rule="nonzero"/></clipPath><clipPath id="id4"><path d="M 233 155 L 270.796875 155 L 270.796875 193 L 233 193 Z M 233 155 " clip-rule="nonzero"/></clipPath></defs><g clip-path="url(#id1)"><path fill="#ffffff" d="M 115.148438 124.996094 C 115.761719 124.640625 116.394531 124.320312 117.042969 124.027344 C 117.6875 123.734375 118.347656 123.472656 119.023438 123.246094 C 119.695312 123.019531 120.378906 122.824219 121.070312 122.664062 C 121.761719 122.5 122.460938 122.375 123.164062 122.28125 C 123.871094 122.191406 124.578125 122.132812 125.289062 122.109375 C 126 122.085938 126.707031 122.097656 127.417969 122.144531 C 128.125 122.1875 128.832031 122.269531 129.535156 122.386719 C 130.234375 122.5 130.929688 122.648438 131.613281 122.832031 C 132.300781 123.015625 132.976562 123.230469 133.644531 123.480469 C 134.308594 123.730469 134.960938 124.011719 135.597656 124.324219 C 136.234375 124.636719 136.855469 124.980469 137.457031 125.355469 C 138.0625 125.730469 138.644531 126.132812 139.210938 126.5625 C 139.773438 126.992188 140.316406 127.453125 140.835938 127.933594 C 141.351562 128.417969 141.847656 128.925781 142.316406 129.460938 C 142.785156 129.992188 143.226562 130.546875 143.640625 131.121094 C 144.050781 131.695312 144.4375 132.292969 144.792969 132.90625 L 161.042969 160.964844 C 161.398438 161.578125 161.726562 162.207031 162.019531 162.851562 C 162.3125 163.496094 162.574219 164.152344 162.800781 164.824219 C 163.03125 165.492188 163.226562 166.171875 163.386719 166.863281 C 163.546875 167.550781 163.675781 168.25 163.769531 168.949219 C 163.863281 169.652344 163.921875 170.355469 163.945312 171.0625 C 163.96875 171.773438 163.957031 172.480469 163.910156 173.183594 C 163.863281 173.890625 163.78125 174.59375 163.667969 175.292969 C 163.550781 175.992188 163.402344 176.683594 163.214844 177.367188 C 163.03125 178.050781 162.816406 178.722656 162.566406 179.386719 C 162.316406 180.046875 162.03125 180.695312 161.71875 181.332031 C 161.402344 181.96875 161.058594 182.585938 160.683594 183.1875 C 160.308594 183.789062 159.902344 184.367188 159.472656 184.929688 C 159.039062 185.492188 158.578125 186.03125 158.09375 186.546875 C 157.605469 187.0625 157.097656 187.554688 156.5625 188.023438 C 156.027344 188.488281 155.472656 188.929688 154.894531 189.339844 C 154.316406 189.753906 153.71875 190.136719 153.105469 190.488281 C 152.488281 190.84375 151.855469 191.167969 151.210938 191.460938 C 150.5625 191.753906 149.902344 192.011719 149.230469 192.242188 C 148.554688 192.46875 147.875 192.664062 147.179688 192.824219 C 146.488281 192.984375 145.789062 193.109375 145.085938 193.203125 C 144.382812 193.296875 143.671875 193.355469 142.964844 193.378906 C 142.253906 193.402344 141.542969 193.390625 140.832031 193.34375 C 140.125 193.296875 139.417969 193.214844 138.71875 193.101562 C 138.015625 192.984375 137.324219 192.835938 136.636719 192.652344 C 135.949219 192.46875 135.273438 192.253906 134.609375 192.003906 C 133.941406 191.753906 133.292969 191.472656 132.652344 191.160156 C 132.015625 190.847656 131.394531 190.503906 130.792969 190.128906 C 130.1875 189.757812 129.605469 189.355469 129.039062 188.921875 C 128.476562 188.492188 127.9375 188.035156 127.417969 187.550781 C 126.898438 187.066406 126.40625 186.558594 125.9375 186.027344 C 125.46875 185.492188 125.027344 184.941406 124.613281 184.363281 C 124.199219 183.789062 123.8125 183.195312 123.457031 182.582031 L 107.207031 154.511719 C 106.851562 153.898438 106.527344 153.269531 106.234375 152.625 C 105.9375 151.980469 105.679688 151.324219 105.449219 150.652344 C 105.21875 149.980469 105.023438 149.300781 104.863281 148.613281 C 104.703125 147.921875 104.574219 147.226562 104.480469 146.527344 C 104.390625 145.824219 104.332031 145.117188 104.308594 144.410156 C 104.285156 143.703125 104.296875 142.996094 104.339844 142.289062 C 104.386719 141.585938 104.46875 140.882812 104.585938 140.183594 C 104.699219 139.484375 104.851562 138.792969 105.035156 138.109375 C 105.21875 137.425781 105.433594 136.753906 105.6875 136.089844 C 105.9375 135.425781 106.21875 134.777344 106.53125 134.144531 C 106.847656 133.507812 107.191406 132.890625 107.566406 132.289062 C 107.941406 131.6875 108.347656 131.105469 108.78125 130.546875 C 109.210938 129.984375 109.671875 129.445312 110.15625 128.929688 C 110.644531 128.410156 111.152344 127.917969 111.6875 127.453125 C 112.222656 126.988281 112.777344 126.546875 113.355469 126.132812 C 113.933594 125.722656 114.53125 125.339844 115.148438 124.984375 Z M 115.148438 124.996094 " fill-opacity="1" fill-rule="evenodd"/></g><g clip-path="url(#id2)"><path fill="#ffffff" d="M 183.046875 105.953125 C 182.429688 105.597656 181.796875 105.273438 181.152344 104.980469 C 180.503906 104.691406 179.84375 104.429688 179.171875 104.203125 C 178.496094 103.972656 177.816406 103.78125 177.121094 103.617188 C 176.429688 103.457031 175.730469 103.332031 175.027344 103.238281 C 174.324219 103.144531 173.613281 103.085938 172.90625 103.066406 C 172.195312 103.042969 171.484375 103.050781 170.773438 103.097656 C 170.066406 103.144531 169.359375 103.226562 168.660156 103.339844 C 167.957031 103.457031 167.265625 103.605469 166.578125 103.789062 C 165.890625 103.972656 165.214844 104.1875 164.550781 104.4375 C 163.882812 104.6875 163.234375 104.96875 162.59375 105.28125 C 161.957031 105.59375 161.335938 105.9375 160.734375 106.3125 C 160.128906 106.683594 159.546875 107.085938 158.984375 107.519531 C 158.417969 107.949219 157.878906 108.40625 157.359375 108.890625 C 156.839844 109.375 156.347656 109.882812 155.878906 110.414062 C 155.410156 110.949219 154.96875 111.503906 154.554688 112.078125 C 154.140625 112.652344 153.753906 113.246094 153.398438 113.859375 L 126.105469 160.964844 C 125.75 161.578125 125.425781 162.207031 125.132812 162.851562 C 124.839844 163.496094 124.578125 164.152344 124.351562 164.824219 C 124.121094 165.492188 123.925781 166.175781 123.765625 166.863281 C 123.605469 167.550781 123.476562 168.25 123.382812 168.949219 C 123.292969 169.652344 123.234375 170.355469 123.210938 171.0625 C 123.1875 171.769531 123.199219 172.476562 123.246094 173.183594 C 123.292969 173.890625 123.371094 174.59375 123.488281 175.292969 C 123.605469 175.988281 123.753906 176.679688 123.9375 177.363281 C 124.121094 178.046875 124.339844 178.722656 124.589844 179.382812 C 124.839844 180.046875 125.121094 180.695312 125.433594 181.332031 C 125.75 181.964844 126.09375 182.582031 126.46875 183.183594 C 126.84375 183.785156 127.25 184.367188 127.679688 184.929688 C 128.113281 185.492188 128.574219 186.03125 129.058594 186.546875 C 129.542969 187.0625 130.054688 187.554688 130.589844 188.019531 C 131.121094 188.488281 131.679688 188.929688 132.257812 189.339844 C 132.835938 189.753906 133.429688 190.136719 134.046875 190.488281 C 134.660156 190.84375 135.292969 191.167969 135.941406 191.460938 C 136.585938 191.75 137.246094 192.011719 137.921875 192.238281 C 138.59375 192.464844 139.277344 192.660156 139.96875 192.820312 C 140.660156 192.980469 141.359375 193.109375 142.0625 193.199219 C 142.769531 193.292969 143.476562 193.351562 144.1875 193.375 C 144.898438 193.398438 145.605469 193.386719 146.316406 193.339844 C 147.023438 193.292969 147.730469 193.210938 148.429688 193.097656 C 149.132812 192.980469 149.828125 192.832031 150.511719 192.648438 C 151.199219 192.464844 151.875 192.25 152.539062 192 C 153.207031 191.75 153.855469 191.46875 154.496094 191.15625 C 155.132812 190.84375 155.753906 190.5 156.355469 190.128906 C 156.960938 189.753906 157.542969 189.351562 158.105469 188.921875 C 158.671875 188.488281 159.210938 188.03125 159.730469 187.546875 C 160.25 187.066406 160.742188 186.558594 161.210938 186.023438 C 161.679688 185.492188 162.121094 184.9375 162.535156 184.363281 C 162.949219 183.789062 163.335938 183.195312 163.691406 182.582031 L 190.984375 135.46875 C 191.34375 134.855469 191.667969 134.226562 191.960938 133.582031 C 192.253906 132.9375 192.515625 132.277344 192.746094 131.609375 C 192.972656 130.9375 193.167969 130.257812 193.332031 129.570312 C 193.492188 128.878906 193.621094 128.183594 193.714844 127.480469 C 193.808594 126.78125 193.867188 126.074219 193.890625 125.367188 C 193.914062 124.660156 193.902344 123.953125 193.855469 123.246094 C 193.808594 122.539062 193.726562 121.835938 193.613281 121.136719 C 193.496094 120.441406 193.347656 119.75 193.164062 119.066406 C 192.980469 118.378906 192.761719 117.707031 192.511719 117.042969 C 192.261719 116.382812 191.976562 115.734375 191.664062 115.097656 C 191.347656 114.464844 191.003906 113.84375 190.628906 113.242188 C 190.253906 112.644531 189.847656 112.0625 189.414062 111.5 C 188.984375 110.9375 188.523438 110.398438 188.035156 109.882812 C 187.550781 109.367188 187.039062 108.875 186.503906 108.40625 C 185.972656 107.941406 185.414062 107.503906 184.835938 107.089844 C 184.257812 106.679688 183.660156 106.296875 183.046875 105.941406 Z M 183.046875 105.953125 " fill-opacity="1" fill-rule="evenodd"/></g><g clip-path="url(#id3)"><path fill="#de5d1d" d="M 239.679688 105.953125 C 239.0625 105.597656 238.429688 105.273438 237.785156 104.980469 C 237.136719 104.691406 236.476562 104.429688 235.804688 104.203125 C 235.128906 103.972656 234.449219 103.78125 233.753906 103.617188 C 233.0625 103.457031 232.363281 103.332031 231.660156 103.238281 C 230.957031 103.144531 230.25 103.085938 229.539062 103.066406 C 228.828125 103.042969 228.117188 103.050781 227.40625 103.097656 C 226.699219 103.144531 225.992188 103.226562 225.292969 103.339844 C 224.589844 103.457031 223.898438 103.605469 223.210938 103.789062 C 222.523438 103.972656 221.847656 104.1875 221.183594 104.4375 C 220.515625 104.6875 219.867188 104.96875 219.226562 105.28125 C 218.589844 105.59375 217.96875 105.9375 217.367188 106.3125 C 216.761719 106.683594 216.179688 107.085938 215.617188 107.519531 C 215.050781 107.949219 214.511719 108.40625 213.992188 108.890625 C 213.472656 109.375 212.980469 109.882812 212.511719 110.414062 C 212.042969 110.949219 211.601562 111.503906 211.1875 112.078125 C 210.773438 112.652344 210.386719 113.246094 210.03125 113.859375 L 182.738281 160.964844 C 182.382812 161.578125 182.058594 162.207031 181.765625 162.851562 C 181.472656 163.496094 181.210938 164.152344 180.980469 164.824219 C 180.753906 165.492188 180.558594 166.171875 180.394531 166.863281 C 180.234375 167.550781 180.105469 168.25 180.011719 168.949219 C 179.921875 169.652344 179.863281 170.355469 179.839844 171.0625 C 179.816406 171.773438 179.828125 172.480469 179.875 173.183594 C 179.917969 173.890625 180 174.59375 180.117188 175.292969 C 180.230469 175.992188 180.382812 176.683594 180.566406 177.367188 C 180.75 178.050781 180.96875 178.722656 181.21875 179.386719 C 181.46875 180.046875 181.75 180.695312 182.0625 181.332031 C 182.378906 181.96875 182.722656 182.585938 183.097656 183.1875 C 183.472656 183.789062 183.878906 184.367188 184.3125 184.929688 C 184.742188 185.492188 185.203125 186.03125 185.6875 186.546875 C 186.175781 187.0625 186.6875 187.554688 187.21875 188.023438 C 187.753906 188.488281 188.3125 188.929688 188.886719 189.339844 C 189.464844 189.753906 190.0625 190.136719 190.679688 190.488281 C 191.292969 190.84375 191.925781 191.167969 192.574219 191.460938 C 193.21875 191.753906 193.878906 192.011719 194.554688 192.242188 C 195.226562 192.46875 195.910156 192.664062 196.601562 192.824219 C 197.292969 192.984375 197.992188 193.109375 198.695312 193.203125 C 199.402344 193.296875 200.109375 193.355469 200.820312 193.378906 C 201.53125 193.402344 202.238281 193.390625 202.949219 193.34375 C 203.660156 193.296875 204.363281 193.214844 205.066406 193.101562 C 205.765625 192.984375 206.460938 192.835938 207.148438 192.652344 C 207.832031 192.46875 208.507812 192.253906 209.175781 192.003906 C 209.839844 191.753906 210.492188 191.472656 211.128906 191.160156 C 211.765625 190.847656 212.386719 190.503906 212.992188 190.128906 C 213.59375 189.757812 214.179688 189.355469 214.742188 188.921875 C 215.304688 188.492188 215.847656 188.035156 216.367188 187.550781 C 216.882812 187.066406 217.378906 186.558594 217.847656 186.027344 C 218.316406 185.492188 218.757812 184.941406 219.171875 184.363281 C 219.585938 183.789062 219.96875 183.195312 220.324219 182.582031 L 247.628906 135.476562 C 247.984375 134.863281 248.308594 134.234375 248.601562 133.589844 C 248.898438 132.945312 249.15625 132.289062 249.386719 131.617188 C 249.617188 130.949219 249.8125 130.269531 249.972656 129.578125 C 250.132812 128.890625 250.261719 128.195312 250.355469 127.492188 C 250.445312 126.789062 250.503906 126.085938 250.527344 125.378906 C 250.550781 124.671875 250.539062 123.964844 250.496094 123.257812 C 250.449219 122.550781 250.367188 121.847656 250.25 121.148438 C 250.136719 120.453125 249.984375 119.761719 249.800781 119.078125 C 249.617188 118.390625 249.402344 117.71875 249.148438 117.054688 C 248.898438 116.394531 248.617188 115.746094 248.304688 115.109375 C 247.988281 114.476562 247.644531 113.855469 247.269531 113.257812 C 246.894531 112.65625 246.488281 112.074219 246.054688 111.511719 C 245.625 110.949219 245.164062 110.410156 244.679688 109.894531 C 244.191406 109.378906 243.683594 108.886719 243.148438 108.417969 C 242.613281 107.953125 242.058594 107.511719 241.480469 107.101562 C 240.902344 106.6875 240.304688 106.304688 239.6875 105.953125 Z M 239.679688 105.953125 " fill-opacity="1" fill-rule="evenodd"/></g><g clip-path="url(#id4)"><path fill="#de5d1d" d="M 233.292969 174.242188 C 233.292969 173.628906 233.324219 173.019531 233.382812 172.410156 C 233.445312 171.800781 233.535156 171.195312 233.652344 170.597656 C 233.773438 169.996094 233.921875 169.40625 234.101562 168.820312 C 234.28125 168.234375 234.484375 167.660156 234.722656 167.09375 C 234.957031 166.527344 235.21875 165.976562 235.507812 165.4375 C 235.796875 164.898438 236.113281 164.375 236.453125 163.867188 C 236.796875 163.355469 237.160156 162.867188 237.550781 162.394531 C 237.941406 161.921875 238.351562 161.46875 238.785156 161.035156 C 239.21875 160.601562 239.675781 160.191406 240.148438 159.804688 C 240.625 159.417969 241.117188 159.050781 241.628906 158.710938 C 242.136719 158.375 242.664062 158.058594 243.207031 157.769531 C 243.746094 157.480469 244.300781 157.222656 244.867188 156.988281 C 245.4375 156.753906 246.015625 156.546875 246.601562 156.371094 C 247.1875 156.191406 247.785156 156.042969 248.386719 155.925781 C 248.988281 155.804688 249.59375 155.714844 250.207031 155.65625 C 250.816406 155.59375 251.429688 155.566406 252.042969 155.566406 C 252.660156 155.566406 253.269531 155.59375 253.882812 155.65625 C 254.492188 155.714844 255.101562 155.804688 255.703125 155.925781 C 256.304688 156.042969 256.898438 156.191406 257.488281 156.371094 C 258.074219 156.546875 258.652344 156.753906 259.21875 156.988281 C 259.789062 157.222656 260.34375 157.480469 260.882812 157.769531 C 261.425781 158.058594 261.949219 158.375 262.460938 158.710938 C 262.972656 159.050781 263.464844 159.417969 263.941406 159.804688 C 264.414062 160.191406 264.867188 160.601562 265.304688 161.035156 C 265.738281 161.46875 266.148438 161.921875 266.539062 162.394531 C 266.929688 162.867188 267.292969 163.355469 267.636719 163.867188 C 267.976562 164.375 268.292969 164.898438 268.582031 165.4375 C 268.871094 165.976562 269.132812 166.527344 269.367188 167.09375 C 269.601562 167.660156 269.808594 168.234375 269.988281 168.820312 C 270.164062 169.40625 270.316406 169.996094 270.433594 170.597656 C 270.554688 171.195312 270.644531 171.800781 270.703125 172.410156 C 270.765625 173.019531 270.796875 173.628906 270.796875 174.242188 C 270.796875 174.851562 270.765625 175.460938 270.703125 176.070312 C 270.644531 176.679688 270.554688 177.285156 270.433594 177.882812 C 270.316406 178.484375 270.164062 179.078125 269.988281 179.660156 C 269.808594 180.246094 269.601562 180.820312 269.367188 181.386719 C 269.132812 181.953125 268.871094 182.503906 268.582031 183.042969 C 268.292969 183.582031 267.976562 184.105469 267.636719 184.617188 C 267.292969 185.125 266.929688 185.613281 266.539062 186.085938 C 266.148438 186.558594 265.738281 187.011719 265.304688 187.445312 C 264.867188 187.878906 264.414062 188.289062 263.941406 188.675781 C 263.464844 189.0625 262.972656 189.429688 262.460938 189.769531 C 261.949219 190.109375 261.425781 190.421875 260.882812 190.710938 C 260.34375 191 259.789062 191.261719 259.21875 191.492188 C 258.652344 191.726562 258.074219 191.933594 257.488281 192.109375 C 256.898438 192.289062 256.304688 192.4375 255.703125 192.554688 C 255.101562 192.675781 254.492188 192.765625 253.882812 192.824219 C 253.269531 192.886719 252.660156 192.914062 252.042969 192.914062 C 251.429688 192.914062 250.816406 192.886719 250.207031 192.824219 C 249.59375 192.765625 248.988281 192.675781 248.386719 192.554688 C 247.785156 192.4375 247.1875 192.289062 246.601562 192.109375 C 246.015625 191.933594 245.4375 191.726562 244.867188 191.492188 C 244.300781 191.261719 243.746094 191 243.207031 190.710938 C 242.664062 190.421875 242.136719 190.109375 241.628906 189.769531 C 241.117188 189.429688 240.625 189.0625 240.148438 188.675781 C 239.675781 188.289062 239.21875 187.878906 238.785156 187.445312 C 238.351562 187.011719 237.941406 186.558594 237.550781 186.085938 C 237.160156 185.613281 236.796875 185.125 236.453125 184.617188 C 236.113281 184.105469 235.796875 183.582031 235.507812 183.042969 C 235.21875 182.503906 234.957031 181.953125 234.722656 181.386719 C 234.484375 180.820312 234.28125 180.246094 234.101562 179.660156 C 233.921875 179.078125 233.773438 178.484375 233.652344 177.882812 C 233.535156 177.285156 233.445312 176.679688 233.382812 176.070312 C 233.324219 175.460938 233.292969 174.851562 233.292969 174.242188 Z M 233.292969 174.242188 " fill-opacity="1" fill-rule="evenodd"/></g><g fill="#ffffff" fill-opacity="1"><g transform="translate(17.85562, 247.650468)"><g><path d="M 9.140625 0 L 5.65625 -40.015625 L 13.5 -40.015625 L 15.09375 -8.46875 L 29.09375 -40.015625 L 37.28125 -40.015625 L 39.84375 -8.515625 L 52.59375 -40.015625 L 60.546875 -40.015625 L 42.59375 0 L 33.90625 0 L 31.21875 -29.609375 L 17.78125 0 Z M 9.140625 0 "/></g></g></g><g fill="#ffffff" fill-opacity="1"><g transform="translate(73.079705, 247.650468)"><g><path d="M 10.75 0.6875 C 7.550781 0.6875 5.207031 -0.046875 3.71875 -1.515625 C 2.226562 -2.984375 1.484375 -4.742188 1.484375 -6.796875 C 1.484375 -9.847656 2.757812 -12.269531 5.3125 -14.0625 C 7.863281 -15.851562 11.273438 -16.75 15.546875 -16.75 L 22.75 -16.75 L 22.875 -17.4375 C 22.90625 -17.664062 22.929688 -17.90625 22.953125 -18.15625 C 22.972656 -18.40625 22.984375 -18.625 22.984375 -18.8125 C 22.984375 -20.257812 22.523438 -21.332031 21.609375 -22.03125 C 20.691406 -22.738281 19.53125 -23.09375 18.125 -23.09375 C 16.632812 -23.09375 15.269531 -22.738281 14.03125 -22.03125 C 12.789062 -21.332031 11.90625 -20.296875 11.375 -18.921875 L 4.234375 -18.921875 C 4.804688 -20.984375 5.804688 -22.773438 7.234375 -24.296875 C 8.660156 -25.816406 10.398438 -26.988281 12.453125 -27.8125 C 14.515625 -28.632812 16.75 -29.046875 19.15625 -29.046875 C 22.65625 -29.046875 25.40625 -28.265625 27.40625 -26.703125 C 29.414062 -25.140625 30.421875 -22.890625 30.421875 -19.953125 C 30.421875 -19.566406 30.398438 -19.15625 30.359375 -18.71875 C 30.316406 -18.28125 30.257812 -17.851562 30.1875 -17.4375 L 27.09375 0 L 20.578125 0 L 20.875 -4.40625 C 19.757812 -2.957031 18.375 -1.742188 16.71875 -0.765625 C 15.0625 0.203125 13.070312 0.6875 10.75 0.6875 Z M 13.4375 -5.03125 C 15.53125 -5.03125 17.269531 -5.710938 18.65625 -7.078125 C 20.050781 -8.453125 21.070312 -10.148438 21.71875 -12.171875 L 15.546875 -12.171875 C 13.640625 -12.171875 12.132812 -11.789062 11.03125 -11.03125 C 9.925781 -10.269531 9.375 -9.222656 9.375 -7.890625 C 9.375 -6.929688 9.742188 -6.210938 10.484375 -5.734375 C 11.234375 -5.265625 12.21875 -5.03125 13.4375 -5.03125 Z M 13.4375 -5.03125 "/></g></g></g><g fill="#ffffff" fill-opacity="1"><g transform="translate(103.378341, 247.650468)"><g><path d="M 21.09375 12.578125 L 23.890625 -4.0625 C 22.828125 -2.800781 21.484375 -1.691406 19.859375 -0.734375 C 18.242188 0.210938 16.253906 0.6875 13.890625 0.6875 C 11.523438 0.6875 9.503906 0.132812 7.828125 -0.96875 C 6.148438 -2.070312 4.851562 -3.578125 3.9375 -5.484375 C 3.03125 -7.390625 2.578125 -9.523438 2.578125 -11.890625 C 2.578125 -15.128906 3.289062 -18.046875 4.71875 -20.640625 C 6.144531 -23.234375 8.066406 -25.28125 10.484375 -26.78125 C 12.910156 -28.289062 15.609375 -29.046875 18.578125 -29.046875 C 20.941406 -29.046875 22.847656 -28.613281 24.296875 -27.75 C 25.742188 -26.894531 26.832031 -25.800781 27.5625 -24.46875 L 29.046875 -28.359375 L 35.5625 -28.359375 L 28.421875 12.578125 Z M 16.6875 -5.71875 C 18.476562 -5.71875 20.070312 -6.179688 21.46875 -7.109375 C 22.863281 -8.046875 23.96875 -9.296875 24.78125 -10.859375 C 25.601562 -12.421875 26.015625 -14.140625 26.015625 -16.015625 C 26.015625 -17.992188 25.421875 -19.59375 24.234375 -20.8125 C 23.054688 -22.03125 21.4375 -22.640625 19.375 -22.640625 C 17.582031 -22.640625 15.988281 -22.203125 14.59375 -21.328125 C 13.207031 -20.453125 12.113281 -19.269531 11.3125 -17.78125 C 10.519531 -16.289062 10.125 -14.613281 10.125 -12.75 C 10.125 -10.769531 10.703125 -9.101562 11.859375 -7.75 C 13.023438 -6.394531 14.632812 -5.71875 16.6875 -5.71875 Z M 16.6875 -5.71875 "/></g></g></g><g fill="#ffffff" fill-opacity="1"><g transform="translate(137.678773, 247.650468)"><g><path d="M 10.75 0.6875 C 7.550781 0.6875 5.207031 -0.046875 3.71875 -1.515625 C 2.226562 -2.984375 1.484375 -4.742188 1.484375 -6.796875 C 1.484375 -9.847656 2.757812 -12.269531 5.3125 -14.0625 C 7.863281 -15.851562 11.273438 -16.75 15.546875 -16.75 L 22.75 -16.75 L 22.875 -17.4375 C 22.90625 -17.664062 22.929688 -17.90625 22.953125 -18.15625 C 22.972656 -18.40625 22.984375 -18.625 22.984375 -18.8125 C 22.984375 -20.257812 22.523438 -21.332031 21.609375 -22.03125 C 20.691406 -22.738281 19.53125 -23.09375 18.125 -23.09375 C 16.632812 -23.09375 15.269531 -22.738281 14.03125 -22.03125 C 12.789062 -21.332031 11.90625 -20.296875 11.375 -18.921875 L 4.234375 -18.921875 C 4.804688 -20.984375 5.804688 -22.773438 7.234375 -24.296875 C 8.660156 -25.816406 10.398438 -26.988281 12.453125 -27.8125 C 14.515625 -28.632812 16.75 -29.046875 19.15625 -29.046875 C 22.65625 -29.046875 25.40625 -28.265625 27.40625 -26.703125 C 29.414062 -25.140625 30.421875 -22.890625 30.421875 -19.953125 C 30.421875 -19.566406 30.398438 -19.15625 30.359375 -18.71875 C 30.316406 -18.28125 30.257812 -17.851562 30.1875 -17.4375 L 27.09375 0 L 20.578125 0 L 20.875 -4.40625 C 19.757812 -2.957031 18.375 -1.742188 16.71875 -0.765625 C 15.0625 0.203125 13.070312 0.6875 10.75 0.6875 Z M 13.4375 -5.03125 C 15.53125 -5.03125 17.269531 -5.710938 18.65625 -7.078125 C 20.050781 -8.453125 21.070312 -10.148438 21.71875 -12.171875 L 15.546875 -12.171875 C 13.640625 -12.171875 12.132812 -11.789062 11.03125 -11.03125 C 9.925781 -10.269531 9.375 -9.222656 9.375 -7.890625 C 9.375 -6.929688 9.742188 -6.210938 10.484375 -5.734375 C 11.234375 -5.265625 12.21875 -5.03125 13.4375 -5.03125 Z M 13.4375 -5.03125 "/></g></g></g><g fill="#ffffff" fill-opacity="1"><g transform="translate(167.977409, 247.650468)"><g><path d="M 1.25 0 L 6.234375 -28.359375 L 12.8125 -28.359375 L 12.578125 -23.21875 C 13.910156 -24.96875 15.554688 -26.375 17.515625 -27.4375 C 19.484375 -28.507812 21.664062 -29.046875 24.0625 -29.046875 L 22.703125 -21.328125 L 20.703125 -21.328125 C 18.253906 -21.328125 16.15625 -20.765625 14.40625 -19.640625 C 12.65625 -18.515625 11.515625 -16.445312 10.984375 -13.4375 L 8.578125 0 Z M 1.25 0 "/></g></g></g><g fill="#ffffff" fill-opacity="1"><g transform="translate(188.443073, 247.650468)"><g/></g></g><g fill="#ffffff" fill-opacity="1"><g transform="translate(200.619315, 247.650468)"><g><path d="M 1.421875 0 L 8.46875 -40.015625 L 15.78125 -40.015625 L 12.984375 -23.84375 L 30.59375 -40.015625 L 39.625 -40.015625 L 22.0625 -24.125 L 32.984375 0 L 24.296875 0 L 16.015625 -18.6875 L 11.265625 -14.34375 L 8.75 0 Z M 1.421875 0 "/></g></g></g><g fill="#ffffff" fill-opacity="1"><g transform="translate(235.034085, 247.650468)"><g><path d="M 11.71875 -32.59375 C 10.382812 -32.59375 9.285156 -33 8.421875 -33.8125 C 7.566406 -34.632812 7.140625 -35.65625 7.140625 -36.875 C 7.140625 -38.09375 7.566406 -39.109375 8.421875 -39.921875 C 9.285156 -40.742188 10.382812 -41.15625 11.71875 -41.15625 C 13.050781 -41.15625 14.144531 -40.742188 15 -39.921875 C 15.863281 -39.109375 16.296875 -38.09375 16.296875 -36.875 C 16.296875 -35.65625 15.863281 -34.632812 15 -33.8125 C 14.144531 -33 13.050781 -32.59375 11.71875 -32.59375 Z M 1.546875 0 L 6.515625 -28.359375 L 13.828125 -28.359375 L 8.859375 0 Z M 1.546875 0 "/></g></g></g><g fill="#ffffff" fill-opacity="1"><g transform="translate(247.896329, 247.650468)"><g><path d="M 2.453125 12.578125 L 11.546875 -1.890625 L 9.828125 -1.890625 L 3.484375 -28.359375 L 11.3125 -28.359375 L 15.890625 -8.40625 L 27.671875 -28.359375 L 35.453125 -28.359375 L 10.171875 12.578125 Z M 2.453125 12.578125 "/></g></g></g><g fill="#ffffff" fill-opacity="1"><g transform="translate(279.16684, 247.650468)"><g><path d="M 10.75 0.6875 C 7.550781 0.6875 5.207031 -0.046875 3.71875 -1.515625 C 2.226562 -2.984375 1.484375 -4.742188 1.484375 -6.796875 C 1.484375 -9.847656 2.757812 -12.269531 5.3125 -14.0625 C 7.863281 -15.851562 11.273438 -16.75 15.546875 -16.75 L 22.75 -16.75 L 22.875 -17.4375 C 22.90625 -17.664062 22.929688 -17.90625 22.953125 -18.15625 C 22.972656 -18.40625 22.984375 -18.625 22.984375 -18.8125 C 22.984375 -20.257812 22.523438 -21.332031 21.609375 -22.03125 C 20.691406 -22.738281 19.53125 -23.09375 18.125 -23.09375 C 16.632812 -23.09375 15.269531 -22.738281 14.03125 -22.03125 C 12.789062 -21.332031 11.90625 -20.296875 11.375 -18.921875 L 4.234375 -18.921875 C 4.804688 -20.984375 5.804688 -22.773438 7.234375 -24.296875 C 8.660156 -25.816406 10.398438 -26.988281 12.453125 -27.8125 C 14.515625 -28.632812 16.75 -29.046875 19.15625 -29.046875 C 22.65625 -29.046875 25.40625 -28.265625 27.40625 -26.703125 C 29.414062 -25.140625 30.421875 -22.890625 30.421875 -19.953125 C 30.421875 -19.566406 30.398438 -19.15625 30.359375 -18.71875 C 30.316406 -18.28125 30.257812 -17.851562 30.1875 -17.4375 L 27.09375 0 L 20.578125 0 L 20.875 -4.40625 C 19.757812 -2.957031 18.375 -1.742188 16.71875 -0.765625 C 15.0625 0.203125 13.070312 0.6875 10.75 0.6875 Z M 13.4375 -5.03125 C 15.53125 -5.03125 17.269531 -5.710938 18.65625 -7.078125 C 20.050781 -8.453125 21.070312 -10.148438 21.71875 -12.171875 L 15.546875 -12.171875 C 13.640625 -12.171875 12.132812 -11.789062 11.03125 -11.03125 C 9.925781 -10.269531 9.375 -9.222656 9.375 -7.890625 C 9.375 -6.929688 9.742188 -6.210938 10.484375 -5.734375 C 11.234375 -5.265625 12.21875 -5.03125 13.4375 -5.03125 Z M 13.4375 -5.03125 "/></g></g></g><g fill="#ffffff" fill-opacity="1"><g transform="translate(309.465477, 247.650468)"><g><path d="M 1.25 0 L 6.234375 -28.359375 L 12.6875 -28.359375 L 12.515625 -23.671875 C 13.703125 -25.304688 15.191406 -26.609375 16.984375 -27.578125 C 18.773438 -28.554688 20.773438 -29.046875 22.984375 -29.046875 C 25.921875 -29.046875 28.195312 -28.234375 29.8125 -26.609375 C 31.4375 -24.992188 32.25 -22.660156 32.25 -19.609375 C 32.25 -18.546875 32.132812 -17.347656 31.90625 -16.015625 L 29.046875 0 L 21.71875 0 L 24.46875 -15.328125 C 24.507812 -15.785156 24.554688 -16.210938 24.609375 -16.609375 C 24.671875 -17.003906 24.703125 -17.375 24.703125 -17.71875 C 24.703125 -21.15625 23.003906 -22.875 19.609375 -22.875 C 17.585938 -22.875 15.796875 -22.15625 14.234375 -20.71875 C 12.671875 -19.289062 11.660156 -17.335938 11.203125 -14.859375 L 8.578125 0 Z M 1.25 0 "/></g></g></g><g fill="#ffffff" fill-opacity="1"><g transform="translate(341.707835, 247.650468)"><g><path d="M 11.71875 -32.59375 C 10.382812 -32.59375 9.285156 -33 8.421875 -33.8125 C 7.566406 -34.632812 7.140625 -35.65625 7.140625 -36.875 C 7.140625 -38.09375 7.566406 -39.109375 8.421875 -39.921875 C 9.285156 -40.742188 10.382812 -41.15625 11.71875 -41.15625 C 13.050781 -41.15625 14.144531 -40.742188 15 -39.921875 C 15.863281 -39.109375 16.296875 -38.09375 16.296875 -36.875 C 16.296875 -35.65625 15.863281 -34.632812 15 -33.8125 C 14.144531 -33 13.050781 -32.59375 11.71875 -32.59375 Z M 1.546875 0 L 6.515625 -28.359375 L 13.828125 -28.359375 L 8.859375 0 Z M 1.546875 0 "/></g></g></g><g fill="#de5d1d" fill-opacity="1"><g transform="translate(77.578985, 276.633653)"><g><path d="M 2.984375 -6.9375 L 2.984375 -4.6875 L 6.921875 -4.6875 L 6.921875 -3.109375 L 2.984375 -3.109375 L 2.984375 0 L 1.015625 0 L 1.015625 -8.515625 L 7.453125 -8.515625 L 7.453125 -6.9375 Z M 2.984375 -6.9375 "/></g></g></g><g fill="#de5d1d" fill-opacity="1"><g transform="translate(88.768356, 276.633653)"><g><path d="M 6.4375 0 L 4.796875 -2.375 L 2.984375 -2.375 L 2.984375 0 L 1.015625 0 L 1.015625 -8.515625 L 4.703125 -8.515625 C 5.453125 -8.515625 6.101562 -8.390625 6.65625 -8.140625 C 7.21875 -7.890625 7.648438 -7.53125 7.953125 -7.0625 C 8.253906 -6.601562 8.40625 -6.054688 8.40625 -5.421875 C 8.40625 -4.796875 8.25 -4.253906 7.9375 -3.796875 C 7.632812 -3.335938 7.203125 -2.984375 6.640625 -2.734375 L 8.5625 0 Z M 6.40625 -5.421875 C 6.40625 -5.898438 6.25 -6.265625 5.9375 -6.515625 C 5.632812 -6.773438 5.1875 -6.90625 4.59375 -6.90625 L 2.984375 -6.90625 L 2.984375 -3.9375 L 4.59375 -3.9375 C 5.1875 -3.9375 5.632812 -4.066406 5.9375 -4.328125 C 6.25 -4.585938 6.40625 -4.953125 6.40625 -5.421875 Z M 6.40625 -5.421875 "/></g></g></g><g fill="#de5d1d" fill-opacity="1"><g transform="translate(101.126443, 276.633653)"><g><path d="M 5.140625 0.140625 C 4.253906 0.140625 3.457031 -0.046875 2.75 -0.421875 C 2.039062 -0.804688 1.484375 -1.332031 1.078125 -2 C 0.671875 -2.664062 0.46875 -3.421875 0.46875 -4.265625 C 0.46875 -5.097656 0.671875 -5.847656 1.078125 -6.515625 C 1.484375 -7.179688 2.039062 -7.707031 2.75 -8.09375 C 3.457031 -8.476562 4.253906 -8.671875 5.140625 -8.671875 C 6.023438 -8.671875 6.816406 -8.476562 7.515625 -8.09375 C 8.222656 -7.707031 8.78125 -7.179688 9.1875 -6.515625 C 9.59375 -5.847656 9.796875 -5.097656 9.796875 -4.265625 C 9.796875 -3.421875 9.59375 -2.664062 9.1875 -2 C 8.78125 -1.332031 8.222656 -0.804688 7.515625 -0.421875 C 6.816406 -0.046875 6.023438 0.140625 5.140625 0.140625 Z M 5.140625 -1.53125 C 5.640625 -1.53125 6.09375 -1.644531 6.5 -1.875 C 6.90625 -2.113281 7.222656 -2.4375 7.453125 -2.84375 C 7.679688 -3.257812 7.796875 -3.734375 7.796875 -4.265625 C 7.796875 -4.785156 7.679688 -5.253906 7.453125 -5.671875 C 7.222656 -6.085938 6.90625 -6.410156 6.5 -6.640625 C 6.09375 -6.867188 5.640625 -6.984375 5.140625 -6.984375 C 4.628906 -6.984375 4.171875 -6.867188 3.765625 -6.640625 C 3.367188 -6.410156 3.050781 -6.085938 2.8125 -5.671875 C 2.582031 -5.253906 2.46875 -4.785156 2.46875 -4.265625 C 2.46875 -3.734375 2.582031 -3.257812 2.8125 -2.84375 C 3.050781 -2.4375 3.367188 -2.113281 3.765625 -1.875 C 4.171875 -1.644531 4.628906 -1.53125 5.140625 -1.53125 Z M 5.140625 -1.53125 "/></g></g></g><g fill="#de5d1d" fill-opacity="1"><g transform="translate(114.811525, 276.633653)"><g><path d="M 8.828125 -8.515625 L 8.828125 0 L 7.203125 0 L 2.953125 -5.171875 L 2.953125 0 L 1.015625 0 L 1.015625 -8.515625 L 2.640625 -8.515625 L 6.875 -3.34375 L 6.875 -8.515625 Z M 8.828125 -8.515625 "/></g></g></g><g fill="#de5d1d" fill-opacity="1"><g transform="translate(128.058333, 276.633653)"><g><path d="M 2.78125 -6.90625 L 0.046875 -6.90625 L 0.046875 -8.515625 L 7.46875 -8.515625 L 7.46875 -6.90625 L 4.75 -6.90625 L 4.75 0 L 2.78125 0 Z M 2.78125 -6.90625 "/></g></g></g><g fill="#de5d1d" fill-opacity="1"><g transform="translate(138.992042, 276.633653)"><g/></g></g><g fill="#de5d1d" fill-opacity="1"><g transform="translate(145.847396, 276.633653)"><g><path d="M 7.609375 -1.578125 L 7.609375 0 L 1.015625 0 L 1.015625 -8.515625 L 7.453125 -8.515625 L 7.453125 -6.9375 L 2.96875 -6.9375 L 2.96875 -5.09375 L 6.921875 -5.09375 L 6.921875 -3.546875 L 2.96875 -3.546875 L 2.96875 -1.578125 Z M 7.609375 -1.578125 "/></g></g></g><g fill="#de5d1d" fill-opacity="1"><g transform="translate(157.426334, 276.633653)"><g><path d="M 8.828125 -8.515625 L 8.828125 0 L 7.203125 0 L 2.953125 -5.171875 L 2.953125 0 L 1.015625 0 L 1.015625 -8.515625 L 2.640625 -8.515625 L 6.875 -3.34375 L 6.875 -8.515625 Z M 8.828125 -8.515625 "/></g></g></g><g fill="#de5d1d" fill-opacity="1"><g transform="translate(170.673142, 276.633653)"><g><path d="M 1.015625 -8.515625 L 4.875 -8.515625 C 5.800781 -8.515625 6.617188 -8.335938 7.328125 -7.984375 C 8.046875 -7.640625 8.597656 -7.144531 8.984375 -6.5 C 9.378906 -5.851562 9.578125 -5.109375 9.578125 -4.265625 C 9.578125 -3.410156 9.378906 -2.660156 8.984375 -2.015625 C 8.597656 -1.378906 8.046875 -0.882812 7.328125 -0.53125 C 6.617188 -0.175781 5.800781 0 4.875 0 L 1.015625 0 Z M 4.78125 -1.625 C 5.632812 -1.625 6.3125 -1.859375 6.8125 -2.328125 C 7.320312 -2.804688 7.578125 -3.453125 7.578125 -4.265625 C 7.578125 -5.078125 7.320312 -5.71875 6.8125 -6.1875 C 6.3125 -6.664062 5.632812 -6.90625 4.78125 -6.90625 L 2.984375 -6.90625 L 2.984375 -1.625 Z M 4.78125 -1.625 "/></g></g></g><g fill="#de5d1d" fill-opacity="1"><g transform="translate(184.139094, 276.633653)"><g/></g></g><g fill="#de5d1d" fill-opacity="1"><g transform="translate(190.994448, 276.633653)"><g><path d="M 1.015625 -8.515625 L 4.875 -8.515625 C 5.800781 -8.515625 6.617188 -8.335938 7.328125 -7.984375 C 8.046875 -7.640625 8.597656 -7.144531 8.984375 -6.5 C 9.378906 -5.851562 9.578125 -5.109375 9.578125 -4.265625 C 9.578125 -3.410156 9.378906 -2.660156 8.984375 -2.015625 C 8.597656 -1.378906 8.046875 -0.882812 7.328125 -0.53125 C 6.617188 -0.175781 5.800781 0 4.875 0 L 1.015625 0 Z M 4.78125 -1.625 C 5.632812 -1.625 6.3125 -1.859375 6.8125 -2.328125 C 7.320312 -2.804688 7.578125 -3.453125 7.578125 -4.265625 C 7.578125 -5.078125 7.320312 -5.71875 6.8125 -6.1875 C 6.3125 -6.664062 5.632812 -6.90625 4.78125 -6.90625 L 2.984375 -6.90625 L 2.984375 -1.625 Z M 4.78125 -1.625 "/></g></g></g><g fill="#de5d1d" fill-opacity="1"><g transform="translate(204.460407, 276.633653)"><g><path d="M 7.609375 -1.578125 L 7.609375 0 L 1.015625 0 L 1.015625 -8.515625 L 7.453125 -8.515625 L 7.453125 -6.9375 L 2.96875 -6.9375 L 2.96875 -5.09375 L 6.921875 -5.09375 L 6.921875 -3.546875 L 2.96875 -3.546875 L 2.96875 -1.578125 Z M 7.609375 -1.578125 "/></g></g></g><g fill="#de5d1d" fill-opacity="1"><g transform="translate(216.039352, 276.633653)"><g><path d="M 9.203125 -8.515625 L 5.515625 0 L 3.5625 0 L -0.109375 -8.515625 L 2.015625 -8.515625 L 4.609375 -2.4375 L 7.25 -8.515625 Z M 9.203125 -8.515625 "/></g></g></g><g fill="#de5d1d" fill-opacity="1"><g transform="translate(228.531351, 276.633653)"><g><path d="M 7.609375 -1.578125 L 7.609375 0 L 1.015625 0 L 1.015625 -8.515625 L 7.453125 -8.515625 L 7.453125 -6.9375 L 2.96875 -6.9375 L 2.96875 -5.09375 L 6.921875 -5.09375 L 6.921875 -3.546875 L 2.96875 -3.546875 L 2.96875 -1.578125 Z M 7.609375 -1.578125 "/></g></g></g><g fill="#de5d1d" fill-opacity="1"><g transform="translate(240.110297, 276.633653)"><g><path d="M 1.015625 -8.515625 L 2.984375 -8.515625 L 2.984375 -1.609375 L 7.25 -1.609375 L 7.25 0 L 1.015625 0 Z M 1.015625 -8.515625 "/></g></g></g><g fill="#de5d1d" fill-opacity="1"><g transform="translate(250.873574, 276.633653)"><g><path d="M 5.140625 0.140625 C 4.253906 0.140625 3.457031 -0.046875 2.75 -0.421875 C 2.039062 -0.804688 1.484375 -1.332031 1.078125 -2 C 0.671875 -2.664062 0.46875 -3.421875 0.46875 -4.265625 C 0.46875 -5.097656 0.671875 -5.847656 1.078125 -6.515625 C 1.484375 -7.179688 2.039062 -7.707031 2.75 -8.09375 C 3.457031 -8.476562 4.253906 -8.671875 5.140625 -8.671875 C 6.023438 -8.671875 6.816406 -8.476562 7.515625 -8.09375 C 8.222656 -7.707031 8.78125 -7.179688 9.1875 -6.515625 C 9.59375 -5.847656 9.796875 -5.097656 9.796875 -4.265625 C 9.796875 -3.421875 9.59375 -2.664062 9.1875 -2 C 8.78125 -1.332031 8.222656 -0.804688 7.515625 -0.421875 C 6.816406 -0.046875 6.023438 0.140625 5.140625 0.140625 Z M 5.140625 -1.53125 C 5.640625 -1.53125 6.09375 -1.644531 6.5 -1.875 C 6.90625 -2.113281 7.222656 -2.4375 7.453125 -2.84375 C 7.679688 -3.257812 7.796875 -3.734375 7.796875 -4.265625 C 7.796875 -4.785156 7.679688 -5.253906 7.453125 -5.671875 C 7.222656 -6.085938 6.90625 -6.410156 6.5 -6.640625 C 6.09375 -6.867188 5.640625 -6.984375 5.140625 -6.984375 C 4.628906 -6.984375 4.171875 -6.867188 3.765625 -6.640625 C 3.367188 -6.410156 3.050781 -6.085938 2.8125 -5.671875 C 2.582031 -5.253906 2.46875 -4.785156 2.46875 -4.265625 C 2.46875 -3.734375 2.582031 -3.257812 2.8125 -2.84375 C 3.050781 -2.4375 3.367188 -2.113281 3.765625 -1.875 C 4.171875 -1.644531 4.628906 -1.53125 5.140625 -1.53125 Z M 5.140625 -1.53125 "/></g></g></g><g fill="#de5d1d" fill-opacity="1"><g transform="translate(264.558649, 276.633653)"><g><path d="M 4.703125 -8.515625 C 5.453125 -8.515625 6.101562 -8.390625 6.65625 -8.140625 C 7.21875 -7.890625 7.648438 -7.53125 7.953125 -7.0625 C 8.253906 -6.601562 8.40625 -6.054688 8.40625 -5.421875 C 8.40625 -4.796875 8.253906 -4.25 7.953125 -3.78125 C 7.648438 -3.320312 7.21875 -2.96875 6.65625 -2.71875 C 6.101562 -2.46875 5.453125 -2.34375 4.703125 -2.34375 L 2.984375 -2.34375 L 2.984375 0 L 1.015625 0 L 1.015625 -8.515625 Z M 4.59375 -3.953125 C 5.1875 -3.953125 5.632812 -4.078125 5.9375 -4.328125 C 6.25 -4.585938 6.40625 -4.953125 6.40625 -5.421875 C 6.40625 -5.898438 6.25 -6.265625 5.9375 -6.515625 C 5.632812 -6.773438 5.1875 -6.90625 4.59375 -6.90625 L 2.984375 -6.90625 L 2.984375 -3.953125 Z M 4.59375 -3.953125 "/></g></g></g><g fill="#de5d1d" fill-opacity="1"><g transform="translate(276.880224, 276.633653)"><g><path d="M 7.609375 -1.578125 L 7.609375 0 L 1.015625 0 L 1.015625 -8.515625 L 7.453125 -8.515625 L 7.453125 -6.9375 L 2.96875 -6.9375 L 2.96875 -5.09375 L 6.921875 -5.09375 L 6.921875 -3.546875 L 2.96875 -3.546875 L 2.96875 -1.578125 Z M 7.609375 -1.578125 "/></g></g></g><g fill="#de5d1d" fill-opacity="1"><g transform="translate(288.45917, 276.633653)"><g><path d="M 6.4375 0 L 4.796875 -2.375 L 2.984375 -2.375 L 2.984375 0 L 1.015625 0 L 1.015625 -8.515625 L 4.703125 -8.515625 C 5.453125 -8.515625 6.101562 -8.390625 6.65625 -8.140625 C 7.21875 -7.890625 7.648438 -7.53125 7.953125 -7.0625 C 8.253906 -6.601562 8.40625 -6.054688 8.40625 -5.421875 C 8.40625 -4.796875 8.25 -4.253906 7.9375 -3.796875 C 7.632812 -3.335938 7.203125 -2.984375 6.640625 -2.734375 L 8.5625 0 Z M 6.40625 -5.421875 C 6.40625 -5.898438 6.25 -6.265625 5.9375 -6.515625 C 5.632812 -6.773438 5.1875 -6.90625 4.59375 -6.90625 L 2.984375 -6.90625 L 2.984375 -3.9375 L 4.59375 -3.9375 C 5.1875 -3.9375 5.632812 -4.066406 5.9375 -4.328125 C 6.25 -4.585938 6.40625 -4.953125 6.40625 -5.421875 Z M 6.40625 -5.421875 "/></g></g></g></svg>