<svg xmlns="http://www.w3.org/2000/svg" xmlns:xlink="http://www.w3.org/1999/xlink" width="500" zoomAndPan="magnify" viewBox="0 0 375 374.999991" height="500" preserveAspectRatio="xMidYMid meet" version="1.0"><defs><g/><clipPath id="id1"><path d="M 99.421875 124 L 163 124 L 163 201 L 99.421875 201 Z M 99.421875 124 " clip-rule="nonzero"/></clipPath><clipPath id="id2"><path d="M 119 104.382812 L 195 104.382812 L 195 201 L 119 201 Z M 119 104.382812 " clip-rule="nonzero"/></clipPath><clipPath id="id3"><path d="M 179 104.382812 L 255 104.382812 L 255 201 L 179 201 Z M 179 104.382812 " clip-rule="nonzero"/></clipPath><clipPath id="id4"><path d="M 235 160 L 275.671875 160 L 275.671875 201 L 235 201 Z M 235 160 " clip-rule="nonzero"/></clipPath></defs><g clip-path="url(#id1)"><path fill="#ffffff" d="M 110.910156 128 C 111.5625 127.621094 112.230469 127.277344 112.914062 126.964844 C 113.597656 126.652344 114.296875 126.375 115.011719 126.132812 C 115.722656 125.890625 116.445312 125.683594 117.179688 125.511719 C 117.910156 125.339844 118.652344 125.207031 119.398438 125.105469 C 120.140625 125.007812 120.890625 124.945312 121.644531 124.921875 C 122.394531 124.898438 123.148438 124.910156 123.898438 124.957031 C 124.648438 125.007812 125.394531 125.09375 126.136719 125.214844 C 126.878906 125.339844 127.613281 125.5 128.339844 125.695312 C 129.066406 125.890625 129.785156 126.121094 130.488281 126.386719 C 131.191406 126.652344 131.882812 126.949219 132.558594 127.285156 C 133.230469 127.617188 133.886719 127.984375 134.527344 128.382812 C 135.167969 128.78125 135.785156 129.210938 136.382812 129.671875 C 136.976562 130.128906 137.550781 130.617188 138.101562 131.132812 C 138.648438 131.648438 139.171875 132.191406 139.667969 132.757812 C 140.164062 133.328125 140.632812 133.917969 141.070312 134.53125 C 141.507812 135.144531 141.914062 135.777344 142.289062 136.433594 L 159.492188 166.347656 C 159.871094 167 160.214844 167.671875 160.523438 168.359375 C 160.835938 169.046875 161.113281 169.746094 161.355469 170.460938 C 161.597656 171.175781 161.804688 171.902344 161.972656 172.636719 C 162.144531 173.371094 162.28125 174.113281 162.378906 174.863281 C 162.476562 175.609375 162.539062 176.363281 162.5625 177.117188 C 162.585938 177.871094 162.574219 178.625 162.527344 179.378906 C 162.476562 180.128906 162.390625 180.878906 162.269531 181.625 C 162.148438 182.367188 161.988281 183.105469 161.792969 183.835938 C 161.597656 184.5625 161.367188 185.28125 161.105469 185.988281 C 160.839844 186.695312 160.539062 187.386719 160.207031 188.0625 C 159.875 188.738281 159.507812 189.398438 159.113281 190.039062 C 158.714844 190.679688 158.285156 191.300781 157.828125 191.898438 C 157.371094 192.5 156.882812 193.074219 156.371094 193.625 C 155.855469 194.175781 155.316406 194.699219 154.75 195.195312 C 154.183594 195.695312 153.59375 196.164062 152.984375 196.601562 C 152.371094 197.042969 151.738281 197.449219 151.089844 197.828125 C 150.4375 198.203125 149.769531 198.550781 149.082031 198.859375 C 148.398438 199.171875 147.699219 199.449219 146.988281 199.691406 C 146.273438 199.9375 145.550781 200.144531 144.820312 200.316406 C 144.085938 200.488281 143.347656 200.621094 142.601562 200.71875 C 141.855469 200.820312 141.105469 200.878906 140.355469 200.90625 C 139.601562 200.929688 138.851562 200.917969 138.101562 200.867188 C 137.347656 200.820312 136.601562 200.734375 135.859375 200.609375 C 135.117188 200.488281 134.382812 200.328125 133.65625 200.132812 C 132.929688 199.9375 132.214844 199.707031 131.507812 199.441406 C 130.804688 199.175781 130.117188 198.875 129.441406 198.542969 C 128.765625 198.207031 128.109375 197.84375 127.46875 197.445312 C 126.832031 197.046875 126.214844 196.617188 125.617188 196.15625 C 125.019531 195.695312 124.445312 195.210938 123.898438 194.691406 C 123.347656 194.175781 122.824219 193.636719 122.328125 193.066406 C 121.832031 192.5 121.367188 191.910156 120.929688 191.296875 C 120.492188 190.683594 120.082031 190.050781 119.707031 189.394531 L 102.503906 159.46875 C 102.128906 158.8125 101.785156 158.144531 101.472656 157.457031 C 101.160156 156.769531 100.886719 156.066406 100.644531 155.351562 C 100.402344 154.640625 100.195312 153.914062 100.023438 153.179688 C 99.851562 152.445312 99.71875 151.703125 99.621094 150.953125 C 99.519531 150.207031 99.460938 149.453125 99.433594 148.699219 C 99.410156 147.945312 99.421875 147.191406 99.472656 146.4375 C 99.519531 145.683594 99.605469 144.9375 99.726562 144.191406 C 99.851562 143.445312 100.007812 142.710938 100.203125 141.980469 C 100.398438 141.253906 100.628906 140.535156 100.894531 139.828125 C 101.160156 139.121094 101.457031 138.429688 101.789062 137.753906 C 102.125 137.074219 102.488281 136.417969 102.886719 135.777344 C 103.28125 135.136719 103.710938 134.515625 104.167969 133.917969 C 104.625 133.316406 105.113281 132.742188 105.628906 132.191406 C 106.140625 131.640625 106.683594 131.117188 107.246094 130.621094 C 107.8125 130.121094 108.402344 129.652344 109.015625 129.214844 C 109.625 128.773438 110.257812 128.367188 110.910156 127.988281 Z M 110.910156 128 " fill-opacity="1" fill-rule="evenodd"/></g><g clip-path="url(#id2)"><path fill="#ffffff" d="M 182.785156 107.695312 C 182.132812 107.320312 181.464844 106.972656 180.777344 106.664062 C 180.09375 106.351562 179.394531 106.074219 178.683594 105.832031 C 177.96875 105.585938 177.246094 105.378906 176.515625 105.207031 C 175.78125 105.035156 175.042969 104.902344 174.296875 104.804688 C 173.550781 104.703125 172.800781 104.640625 172.050781 104.617188 C 171.296875 104.59375 170.546875 104.605469 169.792969 104.652344 C 169.042969 104.703125 168.296875 104.789062 167.554688 104.914062 C 166.8125 105.035156 166.078125 105.195312 165.351562 105.390625 C 164.625 105.585938 163.910156 105.816406 163.203125 106.082031 C 162.5 106.347656 161.8125 106.648438 161.136719 106.980469 C 160.460938 107.316406 159.804688 107.679688 159.164062 108.078125 C 158.527344 108.476562 157.910156 108.90625 157.3125 109.367188 C 156.714844 109.824219 156.140625 110.3125 155.59375 110.828125 C 155.042969 111.347656 154.519531 111.886719 154.023438 112.457031 C 153.527344 113.023438 153.0625 113.613281 152.625 114.226562 C 152.183594 114.839844 151.777344 115.472656 151.402344 116.128906 L 122.507812 166.347656 C 122.132812 167 121.789062 167.671875 121.480469 168.359375 C 121.167969 169.046875 120.894531 169.75 120.652344 170.460938 C 120.410156 171.175781 120.203125 171.902344 120.03125 172.636719 C 119.859375 173.371094 119.726562 174.113281 119.628906 174.863281 C 119.53125 175.609375 119.46875 176.363281 119.445312 177.117188 C 119.417969 177.871094 119.429688 178.625 119.480469 179.375 C 119.53125 180.128906 119.617188 180.878906 119.738281 181.625 C 119.859375 182.367188 120.019531 183.105469 120.214844 183.832031 C 120.410156 184.5625 120.636719 185.28125 120.902344 185.988281 C 121.167969 186.691406 121.46875 187.382812 121.800781 188.0625 C 122.132812 188.738281 122.496094 189.398438 122.894531 190.039062 C 123.292969 190.679688 123.71875 191.296875 124.175781 191.898438 C 124.636719 192.496094 125.121094 193.070312 125.636719 193.621094 C 126.148438 194.171875 126.6875 194.699219 127.253906 195.195312 C 127.820312 195.691406 128.410156 196.160156 129.019531 196.601562 C 129.632812 197.039062 130.261719 197.449219 130.914062 197.828125 C 131.566406 198.203125 132.234375 198.546875 132.921875 198.859375 C 133.605469 199.171875 134.304688 199.449219 135.015625 199.691406 C 135.730469 199.933594 136.453125 200.140625 137.183594 200.3125 C 137.917969 200.484375 138.65625 200.617188 139.402344 200.714844 C 140.148438 200.816406 140.898438 200.875 141.648438 200.902344 C 142.402344 200.925781 143.152344 200.914062 143.902344 200.863281 C 144.652344 200.816406 145.398438 200.730469 146.140625 200.605469 C 146.882812 200.484375 147.617188 200.324219 148.347656 200.128906 C 149.074219 199.933594 149.789062 199.703125 150.492188 199.4375 C 151.195312 199.171875 151.886719 198.871094 152.558594 198.539062 C 153.234375 198.203125 153.890625 197.839844 154.53125 197.441406 C 155.171875 197.042969 155.789062 196.613281 156.386719 196.152344 C 156.980469 195.695312 157.554688 195.207031 158.105469 194.691406 C 158.652344 194.175781 159.175781 193.632812 159.671875 193.066406 C 160.167969 192.5 160.636719 191.910156 161.074219 191.296875 C 161.511719 190.683594 161.917969 190.046875 162.296875 189.394531 L 191.1875 139.164062 C 191.566406 138.511719 191.910156 137.839844 192.222656 137.152344 C 192.53125 136.464844 192.808594 135.765625 193.050781 135.050781 C 193.292969 134.335938 193.5 133.609375 193.671875 132.875 C 193.84375 132.140625 193.976562 131.398438 194.078125 130.648438 C 194.175781 129.902344 194.238281 129.148438 194.261719 128.394531 C 194.285156 127.640625 194.273438 126.886719 194.226562 126.132812 C 194.175781 125.382812 194.089844 124.632812 193.96875 123.886719 C 193.847656 123.140625 193.6875 122.40625 193.492188 121.675781 C 193.296875 120.945312 193.070312 120.230469 192.804688 119.523438 C 192.539062 118.816406 192.238281 118.125 191.90625 117.449219 C 191.574219 116.769531 191.207031 116.113281 190.8125 115.46875 C 190.414062 114.828125 189.984375 114.210938 189.527344 113.609375 C 189.070312 113.011719 188.582031 112.4375 188.066406 111.886719 C 187.550781 111.335938 187.011719 110.8125 186.445312 110.316406 C 185.878906 109.816406 185.292969 109.347656 184.679688 108.910156 C 184.066406 108.46875 183.433594 108.0625 182.785156 107.683594 Z M 182.785156 107.695312 " fill-opacity="1" fill-rule="evenodd"/></g><g clip-path="url(#id3)"><path fill="#de5d1d" d="M 242.734375 107.695312 C 242.082031 107.320312 241.414062 106.972656 240.726562 106.664062 C 240.042969 106.351562 239.34375 106.074219 238.632812 105.832031 C 237.917969 105.585938 237.195312 105.378906 236.464844 105.207031 C 235.730469 105.035156 234.992188 104.902344 234.246094 104.804688 C 233.5 104.703125 232.75 104.640625 232 104.617188 C 231.246094 104.59375 230.496094 104.605469 229.742188 104.652344 C 228.992188 104.703125 228.246094 104.789062 227.503906 104.914062 C 226.761719 105.035156 226.027344 105.195312 225.300781 105.390625 C 224.574219 105.585938 223.859375 105.816406 223.152344 106.082031 C 222.449219 106.347656 221.761719 106.648438 221.085938 106.980469 C 220.410156 107.316406 219.753906 107.679688 219.113281 108.078125 C 218.476562 108.476562 217.859375 108.90625 217.261719 109.367188 C 216.664062 109.824219 216.089844 110.3125 215.542969 110.828125 C 214.992188 111.347656 214.46875 111.886719 213.972656 112.457031 C 213.476562 113.023438 213.011719 113.613281 212.574219 114.226562 C 212.132812 114.839844 211.726562 115.472656 211.351562 116.128906 L 182.457031 166.347656 C 182.082031 167 181.738281 167.671875 181.425781 168.359375 C 181.117188 169.046875 180.839844 169.746094 180.597656 170.460938 C 180.355469 171.175781 180.148438 171.902344 179.976562 172.636719 C 179.808594 173.371094 179.671875 174.113281 179.574219 174.863281 C 179.476562 175.609375 179.414062 176.363281 179.390625 177.117188 C 179.363281 177.871094 179.375 178.625 179.425781 179.378906 C 179.476562 180.128906 179.558594 180.878906 179.683594 181.625 C 179.804688 182.367188 179.964844 183.105469 180.160156 183.835938 C 180.351562 184.5625 180.582031 185.28125 180.847656 185.988281 C 181.113281 186.695312 181.414062 187.386719 181.746094 188.0625 C 182.078125 188.738281 182.441406 189.398438 182.839844 190.039062 C 183.238281 190.679688 183.664062 191.300781 184.125 191.898438 C 184.582031 192.5 185.066406 193.074219 185.582031 193.625 C 186.097656 194.175781 186.636719 194.699219 187.203125 195.195312 C 187.769531 195.695312 188.355469 196.164062 188.96875 196.601562 C 189.582031 197.042969 190.210938 197.449219 190.863281 197.828125 C 191.515625 198.203125 192.183594 198.550781 192.867188 198.859375 C 193.554688 199.171875 194.253906 199.449219 194.964844 199.691406 C 195.679688 199.9375 196.402344 200.144531 197.132812 200.316406 C 197.867188 200.488281 198.605469 200.621094 199.351562 200.71875 C 200.097656 200.820312 200.847656 200.878906 201.597656 200.90625 C 202.351562 200.929688 203.101562 200.917969 203.851562 200.867188 C 204.601562 200.820312 205.351562 200.734375 206.09375 200.609375 C 206.835938 200.488281 207.570312 200.328125 208.296875 200.132812 C 209.023438 199.9375 209.738281 199.707031 210.441406 199.441406 C 211.148438 199.175781 211.835938 198.875 212.511719 198.542969 C 213.1875 198.207031 213.84375 197.84375 214.480469 197.445312 C 215.121094 197.046875 215.738281 196.617188 216.335938 196.15625 C 216.933594 195.695312 217.503906 195.210938 218.054688 194.691406 C 218.605469 194.175781 219.125 193.636719 219.621094 193.066406 C 220.117188 192.5 220.585938 191.910156 221.023438 191.296875 C 221.460938 190.683594 221.867188 190.050781 222.246094 189.394531 L 251.148438 139.175781 C 251.527344 138.523438 251.871094 137.851562 252.179688 137.164062 C 252.492188 136.476562 252.769531 135.777344 253.007812 135.0625 C 253.25 134.347656 253.457031 133.621094 253.628906 132.886719 C 253.800781 132.152344 253.933594 131.410156 254.035156 130.660156 C 254.132812 129.914062 254.195312 129.160156 254.21875 128.40625 C 254.242188 127.652344 254.230469 126.898438 254.183594 126.144531 C 254.132812 125.394531 254.046875 124.644531 253.925781 123.898438 C 253.800781 123.15625 253.644531 122.417969 253.449219 121.6875 C 253.253906 120.960938 253.023438 120.242188 252.757812 119.535156 C 252.496094 118.828125 252.195312 118.136719 251.863281 117.460938 C 251.53125 116.785156 251.164062 116.125 250.765625 115.484375 C 250.371094 114.84375 249.941406 114.222656 249.484375 113.625 C 249.027344 113.023438 248.539062 112.449219 248.027344 111.898438 C 247.511719 111.347656 246.972656 110.824219 246.40625 110.328125 C 245.839844 109.828125 245.25 109.359375 244.640625 108.921875 C 244.027344 108.480469 243.394531 108.074219 242.742188 107.695312 Z M 242.734375 107.695312 " fill-opacity="1" fill-rule="evenodd"/></g><g clip-path="url(#id4)"><path fill="#de5d1d" d="M 235.972656 180.503906 C 235.972656 179.851562 236.007812 179.199219 236.070312 178.550781 C 236.132812 177.902344 236.230469 177.257812 236.355469 176.617188 C 236.484375 175.976562 236.640625 175.347656 236.828125 174.722656 C 237.019531 174.097656 237.238281 173.484375 237.484375 172.882812 C 237.734375 172.28125 238.011719 171.691406 238.316406 171.117188 C 238.625 170.542969 238.957031 169.984375 239.320312 169.441406 C 239.679688 168.898438 240.066406 168.375 240.480469 167.871094 C 240.890625 167.367188 241.328125 166.882812 241.789062 166.421875 C 242.246094 165.960938 242.730469 165.523438 243.230469 165.113281 C 243.734375 164.699219 244.253906 164.308594 244.796875 163.949219 C 245.335938 163.585938 245.894531 163.25 246.464844 162.941406 C 247.039062 162.636719 247.625 162.355469 248.226562 162.109375 C 248.828125 161.859375 249.4375 161.636719 250.0625 161.449219 C 250.683594 161.261719 251.3125 161.101562 251.949219 160.972656 C 252.589844 160.847656 253.230469 160.75 253.878906 160.6875 C 254.523438 160.625 255.171875 160.59375 255.824219 160.59375 C 256.472656 160.59375 257.121094 160.625 257.769531 160.6875 C 258.414062 160.75 259.058594 160.847656 259.695312 160.972656 C 260.332031 161.101562 260.960938 161.261719 261.585938 161.449219 C 262.207031 161.636719 262.816406 161.859375 263.417969 162.109375 C 264.019531 162.355469 264.605469 162.636719 265.179688 162.941406 C 265.753906 163.25 266.308594 163.585938 266.851562 163.949219 C 267.390625 164.308594 267.914062 164.699219 268.414062 165.113281 C 268.917969 165.523438 269.398438 165.960938 269.859375 166.421875 C 270.316406 166.882812 270.753906 167.367188 271.167969 167.871094 C 271.578125 168.375 271.964844 168.898438 272.328125 169.441406 C 272.6875 169.984375 273.019531 170.542969 273.328125 171.117188 C 273.632812 171.691406 273.910156 172.28125 274.160156 172.882812 C 274.410156 173.484375 274.628906 174.097656 274.816406 174.722656 C 275.003906 175.347656 275.164062 175.976562 275.289062 176.617188 C 275.417969 177.257812 275.511719 177.902344 275.574219 178.550781 C 275.640625 179.199219 275.671875 179.851562 275.671875 180.503906 C 275.671875 181.15625 275.640625 181.804688 275.574219 182.453125 C 275.511719 183.101562 275.417969 183.746094 275.289062 184.386719 C 275.164062 185.027344 275.003906 185.65625 274.816406 186.28125 C 274.628906 186.90625 274.410156 187.519531 274.160156 188.121094 C 273.910156 188.722656 273.632812 189.3125 273.328125 189.886719 C 273.019531 190.464844 272.6875 191.023438 272.328125 191.5625 C 271.964844 192.105469 271.578125 192.628906 271.167969 193.132812 C 270.753906 193.636719 270.316406 194.121094 269.859375 194.582031 C 269.398438 195.042969 268.917969 195.480469 268.414062 195.894531 C 267.914062 196.308594 267.390625 196.695312 266.851562 197.058594 C 266.308594 197.417969 265.753906 197.753906 265.179688 198.0625 C 264.605469 198.367188 264.019531 198.648438 263.417969 198.898438 C 262.816406 199.148438 262.207031 199.367188 261.585938 199.554688 C 260.960938 199.746094 260.332031 199.902344 259.695312 200.03125 C 259.058594 200.15625 258.414062 200.253906 257.769531 200.316406 C 257.121094 200.378906 256.472656 200.414062 255.824219 200.414062 C 255.171875 200.414062 254.523438 200.378906 253.878906 200.316406 C 253.230469 200.253906 252.589844 200.15625 251.949219 200.03125 C 251.3125 199.902344 250.683594 199.746094 250.0625 199.554688 C 249.4375 199.367188 248.828125 199.148438 248.226562 198.898438 C 247.625 198.648438 247.039062 198.367188 246.464844 198.0625 C 245.894531 197.753906 245.335938 197.417969 244.796875 197.058594 C 244.253906 196.695312 243.734375 196.308594 243.230469 195.894531 C 242.730469 195.480469 242.246094 195.042969 241.789062 194.582031 C 241.328125 194.121094 240.890625 193.636719 240.480469 193.132812 C 240.066406 192.628906 239.679688 192.105469 239.320312 191.5625 C 238.957031 191.023438 238.625 190.464844 238.316406 189.886719 C 238.011719 189.3125 237.734375 188.722656 237.484375 188.121094 C 237.238281 187.519531 237.019531 186.90625 236.828125 186.28125 C 236.640625 185.65625 236.484375 185.027344 236.355469 184.386719 C 236.230469 183.746094 236.132812 183.101562 236.070312 182.453125 C 236.007812 181.804688 235.972656 181.15625 235.972656 180.503906 Z M 235.972656 180.503906 " fill-opacity="1" fill-rule="evenodd"/></g><g fill="#ffffff" fill-opacity="1"><g transform="translate(46.758389, 245.369414)"><g><path d="M 7.59375 0 L 4.703125 -33.203125 L 11.1875 -33.203125 L 12.53125 -7.015625 L 24.140625 -33.203125 L 30.921875 -33.203125 L 33.0625 -7.0625 L 43.640625 -33.203125 L 50.234375 -33.203125 L 35.34375 0 L 28.125 0 L 25.90625 -24.578125 L 14.75 0 Z M 7.59375 0 "/></g></g></g><g fill="#ffffff" fill-opacity="1"><g transform="translate(92.573793, 245.369414)"><g><path d="M 8.921875 0.5625 C 6.265625 0.5625 4.316406 -0.0390625 3.078125 -1.25 C 1.847656 -2.46875 1.234375 -3.929688 1.234375 -5.640625 C 1.234375 -8.171875 2.289062 -10.179688 4.40625 -11.671875 C 6.53125 -13.160156 9.363281 -13.90625 12.90625 -13.90625 L 18.875 -13.90625 L 18.96875 -14.46875 C 19 -14.65625 19.019531 -14.851562 19.03125 -15.0625 C 19.050781 -15.269531 19.0625 -15.453125 19.0625 -15.609375 C 19.0625 -16.804688 18.679688 -17.695312 17.921875 -18.28125 C 17.171875 -18.875 16.207031 -19.171875 15.03125 -19.171875 C 13.800781 -19.171875 12.671875 -18.875 11.640625 -18.28125 C 10.617188 -17.695312 9.882812 -16.835938 9.4375 -15.703125 L 3.515625 -15.703125 C 3.984375 -17.410156 4.8125 -18.894531 6 -20.15625 C 7.1875 -21.425781 8.632812 -22.398438 10.34375 -23.078125 C 12.050781 -23.753906 13.898438 -24.09375 15.890625 -24.09375 C 18.796875 -24.09375 21.078125 -23.441406 22.734375 -22.140625 C 24.398438 -20.847656 25.234375 -18.988281 25.234375 -16.5625 C 25.234375 -16.238281 25.21875 -15.894531 25.1875 -15.53125 C 25.15625 -15.164062 25.109375 -14.8125 25.046875 -14.46875 L 22.484375 0 L 17.078125 0 L 17.3125 -3.65625 C 16.394531 -2.445312 15.25 -1.441406 13.875 -0.640625 C 12.5 0.160156 10.847656 0.5625 8.921875 0.5625 Z M 11.140625 -4.171875 C 12.878906 -4.171875 14.328125 -4.738281 15.484375 -5.875 C 16.640625 -7.019531 17.488281 -8.429688 18.03125 -10.109375 L 12.90625 -10.109375 C 11.320312 -10.109375 10.070312 -9.789062 9.15625 -9.15625 C 8.238281 -8.519531 7.78125 -7.648438 7.78125 -6.546875 C 7.78125 -5.753906 8.085938 -5.160156 8.703125 -4.765625 C 9.316406 -4.367188 10.128906 -4.171875 11.140625 -4.171875 Z M 11.140625 -4.171875 "/></g></g></g><g fill="#ffffff" fill-opacity="1"><g transform="translate(117.710367, 245.369414)"><g><path d="M 17.5 10.4375 L 19.828125 -3.375 C 18.941406 -2.320312 17.828125 -1.398438 16.484375 -0.609375 C 15.140625 0.171875 13.488281 0.5625 11.53125 0.5625 C 9.570312 0.5625 7.894531 0.101562 6.5 -0.8125 C 5.101562 -1.726562 4.023438 -2.972656 3.265625 -4.546875 C 2.515625 -6.128906 2.140625 -7.898438 2.140625 -9.859375 C 2.140625 -12.554688 2.726562 -14.976562 3.90625 -17.125 C 5.09375 -19.269531 6.691406 -20.96875 8.703125 -22.21875 C 10.710938 -23.46875 12.953125 -24.09375 15.421875 -24.09375 C 17.378906 -24.09375 18.957031 -23.738281 20.15625 -23.03125 C 21.363281 -22.320312 22.265625 -21.410156 22.859375 -20.296875 L 24.09375 -23.53125 L 29.5 -23.53125 L 23.578125 10.4375 Z M 13.859375 -4.75 C 15.335938 -4.75 16.65625 -5.132812 17.8125 -5.90625 C 18.96875 -6.675781 19.882812 -7.707031 20.5625 -9 C 21.238281 -10.300781 21.578125 -11.726562 21.578125 -13.28125 C 21.578125 -14.925781 21.085938 -16.253906 20.109375 -17.265625 C 19.128906 -18.273438 17.785156 -18.78125 16.078125 -18.78125 C 14.597656 -18.78125 13.28125 -18.414062 12.125 -17.6875 C 10.96875 -16.96875 10.054688 -15.988281 9.390625 -14.75 C 8.722656 -13.519531 8.390625 -12.128906 8.390625 -10.578125 C 8.390625 -8.929688 8.875 -7.546875 9.84375 -6.421875 C 10.8125 -5.304688 12.148438 -4.75 13.859375 -4.75 Z M 13.859375 -4.75 "/></g></g></g><g fill="#ffffff" fill-opacity="1"><g transform="translate(146.166939, 245.369414)"><g><path d="M 8.921875 0.5625 C 6.265625 0.5625 4.316406 -0.0390625 3.078125 -1.25 C 1.847656 -2.46875 1.234375 -3.929688 1.234375 -5.640625 C 1.234375 -8.171875 2.289062 -10.179688 4.40625 -11.671875 C 6.53125 -13.160156 9.363281 -13.90625 12.90625 -13.90625 L 18.875 -13.90625 L 18.96875 -14.46875 C 19 -14.65625 19.019531 -14.851562 19.03125 -15.0625 C 19.050781 -15.269531 19.0625 -15.453125 19.0625 -15.609375 C 19.0625 -16.804688 18.679688 -17.695312 17.921875 -18.28125 C 17.171875 -18.875 16.207031 -19.171875 15.03125 -19.171875 C 13.800781 -19.171875 12.671875 -18.875 11.640625 -18.28125 C 10.617188 -17.695312 9.882812 -16.835938 9.4375 -15.703125 L 3.515625 -15.703125 C 3.984375 -17.410156 4.8125 -18.894531 6 -20.15625 C 7.1875 -21.425781 8.632812 -22.398438 10.34375 -23.078125 C 12.050781 -23.753906 13.898438 -24.09375 15.890625 -24.09375 C 18.796875 -24.09375 21.078125 -23.441406 22.734375 -22.140625 C 24.398438 -20.847656 25.234375 -18.988281 25.234375 -16.5625 C 25.234375 -16.238281 25.21875 -15.894531 25.1875 -15.53125 C 25.15625 -15.164062 25.109375 -14.8125 25.046875 -14.46875 L 22.484375 0 L 17.078125 0 L 17.3125 -3.65625 C 16.394531 -2.445312 15.25 -1.441406 13.875 -0.640625 C 12.5 0.160156 10.847656 0.5625 8.921875 0.5625 Z M 11.140625 -4.171875 C 12.878906 -4.171875 14.328125 -4.738281 15.484375 -5.875 C 16.640625 -7.019531 17.488281 -8.429688 18.03125 -10.109375 L 12.90625 -10.109375 C 11.320312 -10.109375 10.070312 -9.789062 9.15625 -9.15625 C 8.238281 -8.519531 7.78125 -7.648438 7.78125 -6.546875 C 7.78125 -5.753906 8.085938 -5.160156 8.703125 -4.765625 C 9.316406 -4.367188 10.128906 -4.171875 11.140625 -4.171875 Z M 11.140625 -4.171875 "/></g></g></g><g fill="#ffffff" fill-opacity="1"><g transform="translate(171.303513, 245.369414)"><g><path d="M 1.046875 0 L 5.171875 -23.53125 L 10.625 -23.53125 L 10.4375 -19.265625 C 11.539062 -20.710938 12.90625 -21.878906 14.53125 -22.765625 C 16.164062 -23.648438 17.976562 -24.09375 19.96875 -24.09375 L 18.828125 -17.6875 L 17.171875 -17.6875 C 15.148438 -17.6875 13.410156 -17.21875 11.953125 -16.28125 C 10.492188 -15.351562 9.546875 -13.640625 9.109375 -11.140625 L 7.109375 0 Z M 1.046875 0 "/></g></g></g><g fill="#ffffff" fill-opacity="1"><g transform="translate(188.282385, 245.369414)"><g/></g></g><g fill="#ffffff" fill-opacity="1"><g transform="translate(198.384127, 245.369414)"><g><path d="M 1.1875 0 L 7.015625 -33.203125 L 13.09375 -33.203125 L 10.765625 -19.78125 L 25.375 -33.203125 L 32.875 -33.203125 L 18.3125 -20.015625 L 27.375 0 L 20.15625 0 L 13.28125 -15.515625 L 9.34375 -11.90625 L 7.265625 0 Z M 1.1875 0 "/></g></g></g><g fill="#ffffff" fill-opacity="1"><g transform="translate(226.935557, 245.369414)"><g><path d="M 9.71875 -27.046875 C 8.613281 -27.046875 7.703125 -27.382812 6.984375 -28.0625 C 6.273438 -28.738281 5.921875 -29.582031 5.921875 -30.59375 C 5.921875 -31.601562 6.273438 -32.445312 6.984375 -33.125 C 7.703125 -33.8125 8.613281 -34.15625 9.71875 -34.15625 C 10.832031 -34.15625 11.742188 -33.8125 12.453125 -33.125 C 13.160156 -32.445312 13.515625 -31.601562 13.515625 -30.59375 C 13.515625 -29.582031 13.160156 -28.738281 12.453125 -28.0625 C 11.742188 -27.382812 10.832031 -27.046875 9.71875 -27.046875 Z M 1.28125 0 L 5.40625 -23.53125 L 11.484375 -23.53125 L 7.359375 0 Z M 1.28125 0 "/></g></g></g><g fill="#ffffff" fill-opacity="1"><g transform="translate(237.606424, 245.369414)"><g><path d="M 2.046875 10.4375 L 9.578125 -1.5625 L 8.15625 -1.5625 L 2.890625 -23.53125 L 9.390625 -23.53125 L 13.1875 -6.96875 L 22.953125 -23.53125 L 29.40625 -23.53125 L 8.4375 10.4375 Z M 2.046875 10.4375 "/></g></g></g><g fill="#ffffff" fill-opacity="1"><g transform="translate(263.549292, 245.369414)"><g><path d="M 8.921875 0.5625 C 6.265625 0.5625 4.316406 -0.0390625 3.078125 -1.25 C 1.847656 -2.46875 1.234375 -3.929688 1.234375 -5.640625 C 1.234375 -8.171875 2.289062 -10.179688 4.40625 -11.671875 C 6.53125 -13.160156 9.363281 -13.90625 12.90625 -13.90625 L 18.875 -13.90625 L 18.96875 -14.46875 C 19 -14.65625 19.019531 -14.851562 19.03125 -15.0625 C 19.050781 -15.269531 19.0625 -15.453125 19.0625 -15.609375 C 19.0625 -16.804688 18.679688 -17.695312 17.921875 -18.28125 C 17.171875 -18.875 16.207031 -19.171875 15.03125 -19.171875 C 13.800781 -19.171875 12.671875 -18.875 11.640625 -18.28125 C 10.617188 -17.695312 9.882812 -16.835938 9.4375 -15.703125 L 3.515625 -15.703125 C 3.984375 -17.410156 4.8125 -18.894531 6 -20.15625 C 7.1875 -21.425781 8.632812 -22.398438 10.34375 -23.078125 C 12.050781 -23.753906 13.898438 -24.09375 15.890625 -24.09375 C 18.796875 -24.09375 21.078125 -23.441406 22.734375 -22.140625 C 24.398438 -20.847656 25.234375 -18.988281 25.234375 -16.5625 C 25.234375 -16.238281 25.21875 -15.894531 25.1875 -15.53125 C 25.15625 -15.164062 25.109375 -14.8125 25.046875 -14.46875 L 22.484375 0 L 17.078125 0 L 17.3125 -3.65625 C 16.394531 -2.445312 15.25 -1.441406 13.875 -0.640625 C 12.5 0.160156 10.847656 0.5625 8.921875 0.5625 Z M 11.140625 -4.171875 C 12.878906 -4.171875 14.328125 -4.738281 15.484375 -5.875 C 16.640625 -7.019531 17.488281 -8.429688 18.03125 -10.109375 L 12.90625 -10.109375 C 11.320312 -10.109375 10.070312 -9.789062 9.15625 -9.15625 C 8.238281 -8.519531 7.78125 -7.648438 7.78125 -6.546875 C 7.78125 -5.753906 8.085938 -5.160156 8.703125 -4.765625 C 9.316406 -4.367188 10.128906 -4.171875 11.140625 -4.171875 Z M 11.140625 -4.171875 "/></g></g></g><g fill="#ffffff" fill-opacity="1"><g transform="translate(288.685866, 245.369414)"><g><path d="M 1.046875 0 L 5.171875 -23.53125 L 10.53125 -23.53125 L 10.390625 -19.640625 C 11.367188 -20.992188 12.597656 -22.070312 14.078125 -22.875 C 15.566406 -23.6875 17.226562 -24.09375 19.0625 -24.09375 C 21.5 -24.09375 23.390625 -23.421875 24.734375 -22.078125 C 26.078125 -20.734375 26.75 -18.796875 26.75 -16.265625 C 26.75 -15.378906 26.65625 -14.382812 26.46875 -13.28125 L 24.09375 0 L 18.03125 0 L 20.296875 -12.71875 C 20.328125 -13.09375 20.367188 -13.445312 20.421875 -13.78125 C 20.472656 -14.113281 20.5 -14.421875 20.5 -14.703125 C 20.5 -17.546875 19.085938 -18.96875 16.265625 -18.96875 C 14.585938 -18.96875 13.097656 -18.375 11.796875 -17.1875 C 10.503906 -16.007812 9.671875 -14.390625 9.296875 -12.328125 L 7.109375 0 Z M 1.046875 0 "/></g></g></g><g fill="#ffffff" fill-opacity="1"><g transform="translate(315.435004, 245.369414)"><g><path d="M 9.71875 -27.046875 C 8.613281 -27.046875 7.703125 -27.382812 6.984375 -28.0625 C 6.273438 -28.738281 5.921875 -29.582031 5.921875 -30.59375 C 5.921875 -31.601562 6.273438 -32.445312 6.984375 -33.125 C 7.703125 -33.8125 8.613281 -34.15625 9.71875 -34.15625 C 10.832031 -34.15625 11.742188 -33.8125 12.453125 -33.125 C 13.160156 -32.445312 13.515625 -31.601562 13.515625 -30.59375 C 13.515625 -29.582031 13.160156 -28.738281 12.453125 -28.0625 C 11.742188 -27.382812 10.832031 -27.046875 9.71875 -27.046875 Z M 1.28125 0 L 5.40625 -23.53125 L 11.484375 -23.53125 L 7.359375 0 Z M 1.28125 0 "/></g></g></g><g fill="#de5d1d" fill-opacity="1"><g transform="translate(83.841124, 268.272944)"><g><path d="M 2.8125 -6.546875 L 2.8125 -4.421875 L 6.53125 -4.421875 L 6.53125 -2.921875 L 2.8125 -2.921875 L 2.8125 0 L 0.953125 0 L 0.953125 -8.046875 L 7.03125 -8.046875 L 7.03125 -6.546875 Z M 2.8125 -6.546875 "/></g></g></g><g fill="#de5d1d" fill-opacity="1"><g transform="translate(94.393043, 268.272944)"><g><path d="M 6.078125 0 L 4.53125 -2.234375 L 2.8125 -2.234375 L 2.8125 0 L 0.953125 0 L 0.953125 -8.046875 L 4.4375 -8.046875 C 5.144531 -8.046875 5.757812 -7.925781 6.28125 -7.6875 C 6.8125 -7.445312 7.21875 -7.109375 7.5 -6.671875 C 7.78125 -6.234375 7.921875 -5.71875 7.921875 -5.125 C 7.921875 -4.519531 7.773438 -4 7.484375 -3.5625 C 7.203125 -3.132812 6.796875 -2.804688 6.265625 -2.578125 L 8.078125 0 Z M 6.046875 -5.125 C 6.046875 -5.570312 5.898438 -5.914062 5.609375 -6.15625 C 5.316406 -6.394531 4.890625 -6.515625 4.328125 -6.515625 L 2.8125 -6.515625 L 2.8125 -3.71875 L 4.328125 -3.71875 C 4.890625 -3.71875 5.316406 -3.835938 5.609375 -4.078125 C 5.898438 -4.328125 6.046875 -4.675781 6.046875 -5.125 Z M 6.046875 -5.125 "/></g></g></g><g fill="#de5d1d" fill-opacity="1"><g transform="translate(106.047097, 268.272944)"><g><path d="M 4.84375 0.140625 C 4.007812 0.140625 3.253906 -0.0351562 2.578125 -0.390625 C 1.910156 -0.753906 1.390625 -1.253906 1.015625 -1.890625 C 0.640625 -2.523438 0.453125 -3.234375 0.453125 -4.015625 C 0.453125 -4.804688 0.640625 -5.515625 1.015625 -6.140625 C 1.390625 -6.773438 1.910156 -7.269531 2.578125 -7.625 C 3.253906 -7.988281 4.007812 -8.171875 4.84375 -8.171875 C 5.675781 -8.171875 6.425781 -7.988281 7.09375 -7.625 C 7.757812 -7.269531 8.285156 -6.773438 8.671875 -6.140625 C 9.054688 -5.515625 9.25 -4.804688 9.25 -4.015625 C 9.25 -3.234375 9.054688 -2.523438 8.671875 -1.890625 C 8.285156 -1.253906 7.757812 -0.753906 7.09375 -0.390625 C 6.425781 -0.0351562 5.675781 0.140625 4.84375 0.140625 Z M 4.84375 -1.453125 C 5.320312 -1.453125 5.75 -1.5625 6.125 -1.78125 C 6.507812 -2 6.8125 -2.300781 7.03125 -2.6875 C 7.25 -3.070312 7.359375 -3.515625 7.359375 -4.015625 C 7.359375 -4.515625 7.25 -4.957031 7.03125 -5.34375 C 6.8125 -5.738281 6.507812 -6.046875 6.125 -6.265625 C 5.75 -6.484375 5.320312 -6.59375 4.84375 -6.59375 C 4.375 -6.59375 3.945312 -6.484375 3.5625 -6.265625 C 3.175781 -6.046875 2.875 -5.738281 2.65625 -5.34375 C 2.4375 -4.957031 2.328125 -4.515625 2.328125 -4.015625 C 2.328125 -3.515625 2.4375 -3.070312 2.65625 -2.6875 C 2.875 -2.300781 3.175781 -2 3.5625 -1.78125 C 3.945312 -1.5625 4.375 -1.453125 4.84375 -1.453125 Z M 4.84375 -1.453125 "/></g></g></g><g fill="#de5d1d" fill-opacity="1"><g transform="translate(118.952548, 268.272944)"><g><path d="M 8.328125 -8.046875 L 8.328125 0 L 6.796875 0 L 2.796875 -4.875 L 2.796875 0 L 0.953125 0 L 0.953125 -8.046875 L 2.484375 -8.046875 L 6.484375 -3.15625 L 6.484375 -8.046875 Z M 8.328125 -8.046875 "/></g></g></g><g fill="#de5d1d" fill-opacity="1"><g transform="translate(131.444693, 268.272944)"><g><path d="M 2.625 -6.515625 L 0.046875 -6.515625 L 0.046875 -8.046875 L 7.046875 -8.046875 L 7.046875 -6.515625 L 4.484375 -6.515625 L 4.484375 0 L 2.625 0 Z M 2.625 -6.515625 "/></g></g></g><g fill="#de5d1d" fill-opacity="1"><g transform="translate(141.755514, 268.272944)"><g/></g></g><g fill="#de5d1d" fill-opacity="1"><g transform="translate(148.220322, 268.272944)"><g><path d="M 7.171875 -1.5 L 7.171875 0 L 0.953125 0 L 0.953125 -8.046875 L 7.03125 -8.046875 L 7.03125 -6.546875 L 2.796875 -6.546875 L 2.796875 -4.796875 L 6.53125 -4.796875 L 6.53125 -3.359375 L 2.796875 -3.359375 L 2.796875 -1.5 Z M 7.171875 -1.5 "/></g></g></g><g fill="#de5d1d" fill-opacity="1"><g transform="translate(159.139615, 268.272944)"><g><path d="M 8.328125 -8.046875 L 8.328125 0 L 6.796875 0 L 2.796875 -4.875 L 2.796875 0 L 0.953125 0 L 0.953125 -8.046875 L 2.484375 -8.046875 L 6.484375 -3.15625 L 6.484375 -8.046875 Z M 8.328125 -8.046875 "/></g></g></g><g fill="#de5d1d" fill-opacity="1"><g transform="translate(171.63176, 268.272944)"><g><path d="M 0.953125 -8.046875 L 4.609375 -8.046875 C 5.484375 -8.046875 6.253906 -7.878906 6.921875 -7.546875 C 7.585938 -7.210938 8.101562 -6.738281 8.46875 -6.125 C 8.84375 -5.519531 9.03125 -4.816406 9.03125 -4.015625 C 9.03125 -3.210938 8.84375 -2.507812 8.46875 -1.90625 C 8.101562 -1.300781 7.585938 -0.832031 6.921875 -0.5 C 6.253906 -0.164062 5.484375 0 4.609375 0 L 0.953125 0 Z M 4.515625 -1.53125 C 5.316406 -1.53125 5.957031 -1.753906 6.4375 -2.203125 C 6.914062 -2.648438 7.15625 -3.253906 7.15625 -4.015625 C 7.15625 -4.785156 6.914062 -5.394531 6.4375 -5.84375 C 5.957031 -6.289062 5.316406 -6.515625 4.515625 -6.515625 L 2.8125 -6.515625 L 2.8125 -1.53125 Z M 4.515625 -1.53125 "/></g></g></g><g fill="#de5d1d" fill-opacity="1"><g transform="translate(184.330564, 268.272944)"><g/></g></g><g fill="#de5d1d" fill-opacity="1"><g transform="translate(190.795372, 268.272944)"><g><path d="M 0.953125 -8.046875 L 4.609375 -8.046875 C 5.484375 -8.046875 6.253906 -7.878906 6.921875 -7.546875 C 7.585938 -7.210938 8.101562 -6.738281 8.46875 -6.125 C 8.84375 -5.519531 9.03125 -4.816406 9.03125 -4.015625 C 9.03125 -3.210938 8.84375 -2.507812 8.46875 -1.90625 C 8.101562 -1.300781 7.585938 -0.832031 6.921875 -0.5 C 6.253906 -0.164062 5.484375 0 4.609375 0 L 0.953125 0 Z M 4.515625 -1.53125 C 5.316406 -1.53125 5.957031 -1.753906 6.4375 -2.203125 C 6.914062 -2.648438 7.15625 -3.253906 7.15625 -4.015625 C 7.15625 -4.785156 6.914062 -5.394531 6.4375 -5.84375 C 5.957031 -6.289062 5.316406 -6.515625 4.515625 -6.515625 L 2.8125 -6.515625 L 2.8125 -1.53125 Z M 4.515625 -1.53125 "/></g></g></g><g fill="#de5d1d" fill-opacity="1"><g transform="translate(203.494183, 268.272944)"><g><path d="M 7.171875 -1.5 L 7.171875 0 L 0.953125 0 L 0.953125 -8.046875 L 7.03125 -8.046875 L 7.03125 -6.546875 L 2.796875 -6.546875 L 2.796875 -4.796875 L 6.53125 -4.796875 L 6.53125 -3.359375 L 2.796875 -3.359375 L 2.796875 -1.5 Z M 7.171875 -1.5 "/></g></g></g><g fill="#de5d1d" fill-opacity="1"><g transform="translate(214.413482, 268.272944)"><g><path d="M 8.6875 -8.046875 L 5.203125 0 L 3.359375 0 L -0.109375 -8.046875 L 1.90625 -8.046875 L 4.359375 -2.296875 L 6.828125 -8.046875 Z M 8.6875 -8.046875 "/></g></g></g><g fill="#de5d1d" fill-opacity="1"><g transform="translate(226.193819, 268.272944)"><g><path d="M 7.171875 -1.5 L 7.171875 0 L 0.953125 0 L 0.953125 -8.046875 L 7.03125 -8.046875 L 7.03125 -6.546875 L 2.796875 -6.546875 L 2.796875 -4.796875 L 6.53125 -4.796875 L 6.53125 -3.359375 L 2.796875 -3.359375 L 2.796875 -1.5 Z M 7.171875 -1.5 "/></g></g></g><g fill="#de5d1d" fill-opacity="1"><g transform="translate(237.113118, 268.272944)"><g><path d="M 0.953125 -8.046875 L 2.8125 -8.046875 L 2.8125 -1.515625 L 6.84375 -1.515625 L 6.84375 0 L 0.953125 0 Z M 0.953125 -8.046875 "/></g></g></g><g fill="#de5d1d" fill-opacity="1"><g transform="translate(247.263218, 268.272944)"><g><path d="M 4.84375 0.140625 C 4.007812 0.140625 3.253906 -0.0351562 2.578125 -0.390625 C 1.910156 -0.753906 1.390625 -1.253906 1.015625 -1.890625 C 0.640625 -2.523438 0.453125 -3.234375 0.453125 -4.015625 C 0.453125 -4.804688 0.640625 -5.515625 1.015625 -6.140625 C 1.390625 -6.773438 1.910156 -7.269531 2.578125 -7.625 C 3.253906 -7.988281 4.007812 -8.171875 4.84375 -8.171875 C 5.675781 -8.171875 6.425781 -7.988281 7.09375 -7.625 C 7.757812 -7.269531 8.285156 -6.773438 8.671875 -6.140625 C 9.054688 -5.515625 9.25 -4.804688 9.25 -4.015625 C 9.25 -3.234375 9.054688 -2.523438 8.671875 -1.890625 C 8.285156 -1.253906 7.757812 -0.753906 7.09375 -0.390625 C 6.425781 -0.0351562 5.675781 0.140625 4.84375 0.140625 Z M 4.84375 -1.453125 C 5.320312 -1.453125 5.75 -1.5625 6.125 -1.78125 C 6.507812 -2 6.8125 -2.300781 7.03125 -2.6875 C 7.25 -3.070312 7.359375 -3.515625 7.359375 -4.015625 C 7.359375 -4.515625 7.25 -4.957031 7.03125 -5.34375 C 6.8125 -5.738281 6.507812 -6.046875 6.125 -6.265625 C 5.75 -6.484375 5.320312 -6.59375 4.84375 -6.59375 C 4.375 -6.59375 3.945312 -6.484375 3.5625 -6.265625 C 3.175781 -6.046875 2.875 -5.738281 2.65625 -5.34375 C 2.4375 -4.957031 2.328125 -4.515625 2.328125 -4.015625 C 2.328125 -3.515625 2.4375 -3.070312 2.65625 -2.6875 C 2.875 -2.300781 3.175781 -2 3.5625 -1.78125 C 3.945312 -1.5625 4.375 -1.453125 4.84375 -1.453125 Z M 4.84375 -1.453125 "/></g></g></g><g fill="#de5d1d" fill-opacity="1"><g transform="translate(260.168662, 268.272944)"><g><path d="M 4.4375 -8.046875 C 5.144531 -8.046875 5.757812 -7.925781 6.28125 -7.6875 C 6.8125 -7.445312 7.21875 -7.109375 7.5 -6.671875 C 7.78125 -6.234375 7.921875 -5.71875 7.921875 -5.125 C 7.921875 -4.53125 7.78125 -4.015625 7.5 -3.578125 C 7.21875 -3.140625 6.8125 -2.800781 6.28125 -2.5625 C 5.757812 -2.332031 5.144531 -2.21875 4.4375 -2.21875 L 2.8125 -2.21875 L 2.8125 0 L 0.953125 0 L 0.953125 -8.046875 Z M 4.328125 -3.734375 C 4.890625 -3.734375 5.316406 -3.851562 5.609375 -4.09375 C 5.898438 -4.332031 6.046875 -4.675781 6.046875 -5.125 C 6.046875 -5.570312 5.898438 -5.914062 5.609375 -6.15625 C 5.316406 -6.394531 4.890625 -6.515625 4.328125 -6.515625 L 2.8125 -6.515625 L 2.8125 -3.734375 Z M 4.328125 -3.734375 "/></g></g></g><g fill="#de5d1d" fill-opacity="1"><g transform="translate(271.788284, 268.272944)"><g><path d="M 7.171875 -1.5 L 7.171875 0 L 0.953125 0 L 0.953125 -8.046875 L 7.03125 -8.046875 L 7.03125 -6.546875 L 2.796875 -6.546875 L 2.796875 -4.796875 L 6.53125 -4.796875 L 6.53125 -3.359375 L 2.796875 -3.359375 L 2.796875 -1.5 Z M 7.171875 -1.5 "/></g></g></g><g fill="#de5d1d" fill-opacity="1"><g transform="translate(282.707583, 268.272944)"><g><path d="M 6.078125 0 L 4.53125 -2.234375 L 2.8125 -2.234375 L 2.8125 0 L 0.953125 0 L 0.953125 -8.046875 L 4.4375 -8.046875 C 5.144531 -8.046875 5.757812 -7.925781 6.28125 -7.6875 C 6.8125 -7.445312 7.21875 -7.109375 7.5 -6.671875 C 7.78125 -6.234375 7.921875 -5.71875 7.921875 -5.125 C 7.921875 -4.519531 7.773438 -4 7.484375 -3.5625 C 7.203125 -3.132812 6.796875 -2.804688 6.265625 -2.578125 L 8.078125 0 Z M 6.046875 -5.125 C 6.046875 -5.570312 5.898438 -5.914062 5.609375 -6.15625 C 5.316406 -6.394531 4.890625 -6.515625 4.328125 -6.515625 L 2.8125 -6.515625 L 2.8125 -3.71875 L 4.328125 -3.71875 C 4.890625 -3.71875 5.316406 -3.835938 5.609375 -4.078125 C 5.898438 -4.328125 6.046875 -4.675781 6.046875 -5.125 Z M 6.046875 -5.125 "/></g></g></g></svg>