<svg xmlns="http://www.w3.org/2000/svg" xmlns:xlink="http://www.w3.org/1999/xlink" width="500" zoomAndPan="magnify" viewBox="0 0 375 374.999991" height="500" preserveAspectRatio="xMidYMid meet" version="1.0"><defs><clipPath id="id1"><path d="M 18.75 128 L 140 128 L 140 273.757812 L 18.75 273.757812 Z M 18.75 128 " clip-rule="nonzero"/></clipPath><clipPath id="id2"><path d="M 57 89.257812 L 201 89.257812 L 201 273.757812 L 57 273.757812 Z M 57 89.257812 " clip-rule="nonzero"/></clipPath><clipPath id="id3"><path d="M 171 89.257812 L 316 89.257812 L 316 273.757812 L 171 273.757812 Z M 171 89.257812 " clip-rule="nonzero"/></clipPath><clipPath id="id4"><path d="M 280 196 L 356.25 196 L 356.25 273 L 280 273 Z M 280 196 " clip-rule="nonzero"/></clipPath></defs><g clip-path="url(#id1)"><path fill="#ffffff" d="M 40.746094 134.300781 C 41.996094 133.578125 43.273438 132.921875 44.585938 132.328125 C 45.898438 131.734375 47.238281 131.203125 48.601562 130.742188 C 49.964844 130.277344 51.351562 129.882812 52.753906 129.554688 C 54.15625 129.230469 55.570312 128.972656 57 128.78125 C 58.429688 128.59375 59.863281 128.476562 61.304688 128.429688 C 62.742188 128.382812 64.183594 128.40625 65.621094 128.5 C 67.058594 128.59375 68.488281 128.757812 69.910156 128.992188 C 71.332031 129.226562 72.738281 129.527344 74.128906 129.902344 C 75.519531 130.273438 76.890625 130.714844 78.238281 131.21875 C 79.585938 131.726562 80.90625 132.300781 82.199219 132.9375 C 83.492188 133.574219 84.75 134.269531 85.972656 135.03125 C 87.199219 135.789062 88.378906 136.609375 89.523438 137.484375 C 90.667969 138.363281 91.765625 139.292969 92.816406 140.277344 C 93.867188 141.261719 94.867188 142.292969 95.816406 143.375 C 96.765625 144.457031 97.660156 145.582031 98.5 146.753906 C 99.339844 147.925781 100.121094 149.132812 100.839844 150.378906 L 133.78125 207.425781 C 134.503906 208.671875 135.160156 209.949219 135.757812 211.261719 C 136.351562 212.570312 136.882812 213.910156 137.34375 215.269531 C 137.808594 216.632812 138.203125 218.015625 138.53125 219.417969 C 138.859375 220.820312 139.117188 222.234375 139.304688 223.660156 C 139.492188 225.085938 139.613281 226.519531 139.660156 227.957031 C 139.707031 229.398438 139.683594 230.835938 139.589844 232.269531 C 139.496094 233.707031 139.332031 235.136719 139.097656 236.554688 C 138.863281 237.976562 138.558594 239.378906 138.1875 240.769531 C 137.8125 242.160156 137.371094 243.53125 136.867188 244.875 C 136.359375 246.222656 135.785156 247.542969 135.148438 248.832031 C 134.511719 250.125 133.8125 251.378906 133.050781 252.601562 C 132.289062 253.824219 131.472656 255.007812 130.59375 256.148438 C 129.714844 257.289062 128.785156 258.386719 127.800781 259.4375 C 126.816406 260.488281 125.78125 261.488281 124.699219 262.4375 C 123.613281 263.382812 122.488281 264.277344 121.316406 265.117188 C 120.144531 265.953125 118.933594 266.734375 117.6875 267.453125 C 116.4375 268.171875 115.160156 268.828125 113.847656 269.425781 C 112.535156 270.019531 111.195312 270.546875 109.832031 271.011719 C 108.46875 271.472656 107.085938 271.867188 105.679688 272.195312 C 104.277344 272.523438 102.863281 272.78125 101.433594 272.96875 C 100.003906 273.15625 98.570312 273.277344 97.132812 273.324219 C 95.691406 273.371094 94.253906 273.347656 92.816406 273.253906 C 91.375 273.160156 89.945312 272.996094 88.527344 272.761719 C 87.105469 272.527344 85.699219 272.222656 84.304688 271.851562 C 82.914062 271.480469 81.542969 271.039062 80.195312 270.53125 C 78.847656 270.023438 77.527344 269.453125 76.234375 268.816406 C 74.941406 268.179688 73.683594 267.480469 72.460938 266.722656 C 71.238281 265.960938 70.054688 265.144531 68.910156 264.265625 C 67.765625 263.390625 66.671875 262.460938 65.617188 261.476562 C 64.566406 260.492188 63.566406 259.460938 62.617188 258.378906 C 61.667969 257.296875 60.773438 256.167969 59.933594 255 C 59.09375 253.828125 58.316406 252.621094 57.59375 251.375 L 24.652344 194.304688 C 23.929688 193.058594 23.273438 191.78125 22.675781 190.46875 C 22.082031 189.160156 21.554688 187.824219 21.089844 186.460938 C 20.625 185.097656 20.230469 183.714844 19.902344 182.3125 C 19.574219 180.910156 19.316406 179.496094 19.128906 178.070312 C 18.941406 176.644531 18.824219 175.210938 18.773438 173.773438 C 18.726562 172.335938 18.75 170.898438 18.84375 169.460938 C 18.9375 168.023438 19.101562 166.597656 19.335938 165.175781 C 19.570312 163.757812 19.875 162.351562 20.25 160.960938 C 20.621094 159.570312 21.0625 158.203125 21.570312 156.855469 C 22.078125 155.507812 22.648438 154.1875 23.285156 152.898438 C 23.921875 151.605469 24.621094 150.351562 25.382812 149.128906 C 26.144531 147.90625 26.964844 146.722656 27.839844 145.582031 C 28.71875 144.441406 29.648438 143.34375 30.632812 142.292969 C 31.617188 141.242188 32.652344 140.242188 33.738281 139.296875 C 34.820312 138.347656 35.949219 137.453125 37.117188 136.613281 C 38.289062 135.777344 39.5 135 40.746094 134.277344 Z M 40.746094 134.300781 " fill-opacity="1" fill-rule="evenodd"/></g><g clip-path="url(#id2)"><path fill="#ffffff" d="M 178.378906 95.582031 C 177.132812 94.863281 175.851562 94.207031 174.539062 93.609375 C 173.226562 93.015625 171.890625 92.488281 170.523438 92.023438 C 169.160156 91.5625 167.777344 91.167969 166.375 90.839844 C 164.972656 90.511719 163.554688 90.253906 162.125 90.066406 C 160.699219 89.878906 159.265625 89.761719 157.824219 89.710938 C 156.382812 89.664062 154.945312 89.6875 153.507812 89.78125 C 152.070312 89.875 150.640625 90.039062 149.21875 90.273438 C 147.796875 90.507812 146.390625 90.8125 144.996094 91.183594 C 143.605469 91.558594 142.234375 91.996094 140.886719 92.503906 C 139.539062 93.011719 138.21875 93.582031 136.925781 94.21875 C 135.632812 94.855469 134.375 95.554688 133.152344 96.3125 C 131.929688 97.074219 130.746094 97.890625 129.601562 98.769531 C 128.460938 99.644531 127.363281 100.574219 126.3125 101.558594 C 125.257812 102.542969 124.257812 103.574219 123.308594 104.65625 C 122.359375 105.738281 121.464844 106.867188 120.625 108.035156 C 119.785156 109.207031 119.007812 110.414062 118.289062 111.660156 L 62.960938 207.425781 C 62.238281 208.671875 61.582031 209.949219 60.988281 211.261719 C 60.394531 212.570312 59.863281 213.910156 59.402344 215.273438 C 58.9375 216.632812 58.542969 218.015625 58.214844 219.417969 C 57.890625 220.820312 57.632812 222.234375 57.445312 223.660156 C 57.253906 225.085938 57.136719 226.519531 57.089844 227.957031 C 57.042969 229.394531 57.066406 230.832031 57.160156 232.269531 C 57.253906 233.707031 57.417969 235.132812 57.65625 236.554688 C 57.890625 237.972656 58.191406 239.378906 58.566406 240.769531 C 58.9375 242.160156 59.378906 243.527344 59.886719 244.875 C 60.394531 246.21875 60.964844 247.539062 61.601562 248.832031 C 62.238281 250.121094 62.9375 251.378906 63.699219 252.601562 C 64.460938 253.820312 65.277344 255.003906 66.15625 256.144531 C 67.03125 257.289062 67.960938 258.382812 68.945312 259.433594 C 69.929688 260.484375 70.964844 261.484375 72.046875 262.433594 C 73.132812 263.382812 74.257812 264.277344 75.429688 265.113281 C 76.597656 265.953125 77.808594 266.734375 79.054688 267.453125 C 80.304688 268.171875 81.582031 268.828125 82.894531 269.421875 C 84.207031 270.015625 85.546875 270.542969 86.910156 271.007812 C 88.273438 271.46875 89.660156 271.863281 91.0625 272.191406 C 92.464844 272.519531 93.878906 272.773438 95.308594 272.964844 C 96.738281 273.152344 98.171875 273.269531 99.609375 273.316406 C 101.050781 273.363281 102.488281 273.339844 103.925781 273.246094 C 105.363281 273.152344 106.792969 272.988281 108.214844 272.753906 C 109.636719 272.519531 111.042969 272.214844 112.433594 271.84375 C 113.828125 271.46875 115.195312 271.03125 116.542969 270.523438 C 117.894531 270.015625 119.214844 269.445312 120.503906 268.808594 C 121.796875 268.171875 123.054688 267.476562 124.277344 266.714844 C 125.503906 265.957031 126.6875 265.136719 127.828125 264.261719 C 128.972656 263.386719 130.070312 262.457031 131.121094 261.472656 C 132.171875 260.488281 133.171875 259.457031 134.125 258.375 C 135.074219 257.292969 135.96875 256.167969 136.808594 254.996094 C 137.648438 253.828125 138.425781 252.621094 139.148438 251.375 L 194.476562 155.589844 C 195.195312 154.34375 195.855469 153.0625 196.449219 151.753906 C 197.046875 150.441406 197.578125 149.105469 198.039062 147.742188 C 198.503906 146.378906 198.902344 145 199.230469 143.597656 C 199.558594 142.195312 199.816406 140.78125 200.003906 139.351562 C 200.195312 137.925781 200.3125 136.492188 200.359375 135.054688 C 200.40625 133.617188 200.382812 132.179688 200.289062 130.742188 C 200.195312 129.304688 200.03125 127.878906 199.796875 126.457031 C 199.5625 125.035156 199.257812 123.632812 198.886719 122.242188 C 198.515625 120.851562 198.074219 119.480469 197.566406 118.132812 C 197.058594 116.789062 196.484375 115.46875 195.847656 114.175781 C 195.210938 112.886719 194.511719 111.628906 193.75 110.40625 C 192.988281 109.183594 192.167969 108.003906 191.292969 106.863281 C 190.414062 105.71875 189.484375 104.625 188.496094 103.574219 C 187.511719 102.523438 186.476562 101.523438 185.394531 100.574219 C 184.308594 99.628906 183.179688 98.734375 182.007812 97.894531 C 180.835938 97.058594 179.628906 96.28125 178.378906 95.5625 Z M 178.378906 95.582031 " fill-opacity="1" fill-rule="evenodd"/></g><g clip-path="url(#id3)"><path fill="#de5d1d" d="M 293.175781 95.582031 C 291.929688 94.863281 290.648438 94.207031 289.335938 93.609375 C 288.023438 93.015625 286.683594 92.488281 285.320312 92.023438 C 283.957031 91.5625 282.574219 91.167969 281.171875 90.839844 C 279.765625 90.511719 278.351562 90.253906 276.921875 90.066406 C 275.496094 89.878906 274.058594 89.761719 272.621094 89.710938 C 271.179688 89.664062 269.742188 89.6875 268.304688 89.78125 C 266.867188 89.875 265.4375 90.039062 264.015625 90.273438 C 262.59375 90.507812 261.1875 90.8125 259.792969 91.183594 C 258.402344 91.558594 257.03125 91.996094 255.683594 92.503906 C 254.335938 93.011719 253.015625 93.582031 251.722656 94.21875 C 250.429688 94.855469 249.171875 95.554688 247.949219 96.3125 C 246.726562 97.074219 245.542969 97.890625 244.398438 98.769531 C 243.257812 99.644531 242.160156 100.574219 241.109375 101.558594 C 240.054688 102.542969 239.054688 103.574219 238.105469 104.65625 C 237.15625 105.738281 236.261719 106.867188 235.421875 108.035156 C 234.582031 109.207031 233.804688 110.414062 233.082031 111.660156 L 177.757812 207.425781 C 177.035156 208.671875 176.378906 209.949219 175.78125 211.261719 C 175.1875 212.570312 174.65625 213.910156 174.195312 215.269531 C 173.730469 216.632812 173.335938 218.015625 173.007812 219.417969 C 172.679688 220.820312 172.421875 222.234375 172.234375 223.660156 C 172.046875 225.085938 171.925781 226.519531 171.878906 227.957031 C 171.832031 229.398438 171.855469 230.835938 171.949219 232.269531 C 172.042969 233.707031 172.207031 235.136719 172.441406 236.554688 C 172.675781 237.976562 172.980469 239.378906 173.351562 240.769531 C 173.726562 242.160156 174.167969 243.53125 174.671875 244.875 C 175.179688 246.222656 175.753906 247.542969 176.390625 248.832031 C 177.027344 250.125 177.726562 251.378906 178.488281 252.601562 C 179.25 253.824219 180.066406 255.007812 180.945312 256.148438 C 181.824219 257.289062 182.753906 258.386719 183.738281 259.4375 C 184.722656 260.488281 185.757812 261.488281 186.839844 262.4375 C 187.925781 263.382812 189.050781 264.277344 190.222656 265.117188 C 191.394531 265.953125 192.605469 266.734375 193.851562 267.453125 C 195.101562 268.171875 196.378906 268.828125 197.691406 269.425781 C 199.003906 270.019531 200.34375 270.546875 201.707031 271.011719 C 203.070312 271.472656 204.453125 271.867188 205.859375 272.195312 C 207.261719 272.523438 208.675781 272.78125 210.105469 272.96875 C 211.535156 273.15625 212.96875 273.277344 214.40625 273.324219 C 215.847656 273.371094 217.285156 273.347656 218.722656 273.253906 C 220.164062 273.160156 221.59375 272.996094 223.011719 272.761719 C 224.433594 272.527344 225.839844 272.222656 227.234375 271.851562 C 228.625 271.480469 229.996094 271.039062 231.34375 270.53125 C 232.691406 270.023438 234.011719 269.453125 235.304688 268.816406 C 236.597656 268.179688 237.855469 267.480469 239.078125 266.722656 C 240.300781 265.960938 241.484375 265.144531 242.628906 264.265625 C 243.773438 263.390625 244.867188 262.460938 245.921875 261.476562 C 246.972656 260.492188 247.972656 259.460938 248.921875 258.378906 C 249.871094 257.296875 250.765625 256.167969 251.605469 255 C 252.445312 253.828125 253.222656 252.621094 253.945312 251.375 L 309.292969 155.609375 C 310.011719 154.363281 310.671875 153.085938 311.265625 151.773438 C 311.863281 150.464844 312.390625 149.125 312.855469 147.765625 C 313.320312 146.402344 313.714844 145.019531 314.042969 143.617188 C 314.371094 142.214844 314.628906 140.800781 314.816406 139.375 C 315.003906 137.949219 315.121094 136.515625 315.167969 135.078125 C 315.21875 133.636719 315.195312 132.199219 315.101562 130.765625 C 315.007812 129.328125 314.839844 127.898438 314.605469 126.480469 C 314.371094 125.058594 314.070312 123.65625 313.695312 122.265625 C 313.324219 120.875 312.882812 119.503906 312.375 118.160156 C 311.867188 116.8125 311.296875 115.492188 310.660156 114.203125 C 310.019531 112.910156 309.324219 111.65625 308.5625 110.433594 C 307.800781 109.210938 306.980469 108.027344 306.105469 106.886719 C 305.226562 105.746094 304.296875 104.648438 303.3125 103.597656 C 302.324219 102.546875 301.292969 101.546875 300.207031 100.597656 C 299.125 99.652344 297.996094 98.757812 296.824219 97.917969 C 295.65625 97.082031 294.445312 96.300781 293.195312 95.582031 Z M 293.175781 95.582031 " fill-opacity="1" fill-rule="evenodd"/></g><g clip-path="url(#id4)"><path fill="#de5d1d" d="M 280.234375 234.417969 C 280.234375 233.171875 280.296875 231.933594 280.417969 230.695312 C 280.539062 229.457031 280.722656 228.230469 280.964844 227.007812 C 281.207031 225.789062 281.507812 224.585938 281.871094 223.394531 C 282.230469 222.207031 282.652344 221.035156 283.128906 219.886719 C 283.605469 218.738281 284.136719 217.617188 284.722656 216.519531 C 285.308594 215.421875 285.949219 214.355469 286.640625 213.324219 C 287.332031 212.289062 288.070312 211.292969 288.863281 210.332031 C 289.652344 209.367188 290.484375 208.449219 291.367188 207.570312 C 292.246094 206.691406 293.167969 205.855469 294.128906 205.066406 C 295.09375 204.277344 296.089844 203.539062 297.125 202.847656 C 298.160156 202.15625 299.226562 201.519531 300.324219 200.933594 C 301.421875 200.347656 302.546875 199.816406 303.695312 199.339844 C 304.847656 198.863281 306.019531 198.445312 307.210938 198.085938 C 308.398438 197.722656 309.605469 197.421875 310.828125 197.179688 C 312.046875 196.9375 313.277344 196.753906 314.515625 196.632812 C 315.753906 196.511719 316.996094 196.449219 318.242188 196.449219 C 319.488281 196.449219 320.730469 196.511719 321.96875 196.632812 C 323.207031 196.753906 324.4375 196.9375 325.65625 197.179688 C 326.878906 197.421875 328.085938 197.722656 329.273438 198.085938 C 330.464844 198.445312 331.636719 198.863281 332.785156 199.339844 C 333.9375 199.816406 335.0625 200.347656 336.160156 200.933594 C 337.257812 201.519531 338.324219 202.15625 339.359375 202.847656 C 340.394531 203.539062 341.390625 204.277344 342.355469 205.066406 C 343.316406 205.855469 344.238281 206.691406 345.117188 207.570312 C 345.996094 208.449219 346.832031 209.367188 347.621094 210.332031 C 348.414062 211.292969 349.152344 212.289062 349.84375 213.324219 C 350.535156 214.355469 351.175781 215.421875 351.761719 216.519531 C 352.347656 217.617188 352.878906 218.738281 353.355469 219.886719 C 353.832031 221.035156 354.253906 222.207031 354.613281 223.394531 C 354.976562 224.585938 355.277344 225.789062 355.519531 227.007812 C 355.761719 228.230469 355.945312 229.457031 356.066406 230.695312 C 356.1875 231.933594 356.25 233.171875 356.25 234.417969 C 356.25 235.660156 356.1875 236.898438 356.066406 238.136719 C 355.945312 239.375 355.761719 240.605469 355.519531 241.824219 C 355.277344 243.042969 354.976562 244.246094 354.613281 245.4375 C 354.253906 246.628906 353.832031 247.796875 353.355469 248.945312 C 352.878906 250.09375 352.347656 251.21875 351.761719 252.3125 C 351.175781 253.410156 350.535156 254.476562 349.84375 255.507812 C 349.152344 256.542969 348.414062 257.542969 347.621094 258.503906 C 346.832031 259.464844 345.996094 260.382812 345.117188 261.261719 C 344.238281 262.140625 343.316406 262.976562 342.355469 263.765625 C 341.390625 264.554688 340.394531 265.292969 339.359375 265.984375 C 338.324219 266.675781 337.257812 267.3125 336.160156 267.898438 C 335.0625 268.484375 333.9375 269.015625 332.785156 269.492188 C 331.636719 269.96875 330.464844 270.386719 329.273438 270.75 C 328.085938 271.109375 326.878906 271.410156 325.65625 271.652344 C 324.4375 271.894531 323.207031 272.078125 321.96875 272.199219 C 320.730469 272.320312 319.488281 272.382812 318.242188 272.382812 C 316.996094 272.382812 315.753906 272.320312 314.515625 272.199219 C 313.277344 272.078125 312.046875 271.894531 310.828125 271.652344 C 309.605469 271.410156 308.398438 271.109375 307.207031 270.75 C 306.019531 270.386719 304.847656 269.96875 303.695312 269.492188 C 302.546875 269.015625 301.421875 268.484375 300.324219 267.898438 C 299.226562 267.3125 298.160156 266.675781 297.125 265.984375 C 296.089844 265.292969 295.09375 264.554688 294.128906 263.765625 C 293.167969 262.976562 292.246094 262.140625 291.367188 261.261719 C 290.484375 260.382812 289.652344 259.464844 288.863281 258.503906 C 288.070312 257.542969 287.332031 256.542969 286.640625 255.507812 C 285.949219 254.476562 285.308594 253.410156 284.722656 252.3125 C 284.136719 251.21875 283.605469 250.09375 283.128906 248.945312 C 282.652344 247.796875 282.230469 246.628906 281.871094 245.4375 C 281.507812 244.246094 281.207031 243.042969 280.964844 241.824219 C 280.722656 240.605469 280.539062 239.375 280.417969 238.136719 C 280.296875 236.898438 280.234375 235.660156 280.234375 234.417969 Z M 280.234375 234.417969 " fill-opacity="1" fill-rule="evenodd"/></g></svg>