<svg xmlns="http://www.w3.org/2000/svg" xmlns:xlink="http://www.w3.org/1999/xlink" width="500" zoomAndPan="magnify" viewBox="0 0 375 374.999991" height="500" preserveAspectRatio="xMidYMid meet" version="1.0"><defs><filter x="0%" y="0%" width="100%" height="100%" id="id1"><feColorMatrix values="0 0 0 0 1 0 0 0 0 1 0 0 0 0 1 0 0 0 1 0" color-interpolation-filters="sRGB"/></filter><g/><mask id="id2"><g filter="url(#id1)"><rect x="-37.5" width="450" fill="#000000" y="-37.499999" height="449.999989" fill-opacity="0.8588"/></g></mask><clipPath id="id3"><path d="M 0.238281 35 L 110 35 L 110 167 L 0.238281 167 Z M 0.238281 35 " clip-rule="nonzero"/></clipPath><clipPath id="id4"><path d="M 235 97 L 303.988281 97 L 303.988281 166 L 235 166 Z M 235 97 " clip-rule="nonzero"/></clipPath><clipPath id="id5"><rect x="0" width="306" y="0" height="168"/></clipPath></defs><g mask="url(#id2)"><g transform="matrix(1, 0, 0, 1, 36, 64)"><g clip-path="url(#id5)"><g clip-path="url(#id3)"><path fill="#ffffff" d="M 20.035156 41.273438 C 21.160156 40.625 22.308594 40.03125 23.492188 39.496094 C 24.671875 38.957031 25.875 38.480469 27.105469 38.0625 C 28.332031 37.644531 29.578125 37.289062 30.839844 36.992188 C 32.101562 36.699219 33.378906 36.464844 34.664062 36.296875 C 35.949219 36.125 37.238281 36.019531 38.535156 35.976562 C 39.832031 35.933594 41.125 35.953125 42.421875 36.039062 C 43.714844 36.125 45 36.273438 46.28125 36.484375 C 47.558594 36.695312 48.824219 36.96875 50.078125 37.304688 C 51.332031 37.640625 52.5625 38.039062 53.777344 38.496094 C 54.992188 38.953125 56.179688 39.46875 57.34375 40.042969 C 58.507812 40.617188 59.636719 41.25 60.738281 41.933594 C 61.839844 42.621094 62.90625 43.359375 63.933594 44.148438 C 64.964844 44.941406 65.949219 45.78125 66.898438 46.667969 C 67.84375 47.554688 68.742188 48.488281 69.597656 49.464844 C 70.453125 50.441406 71.257812 51.457031 72.011719 52.511719 C 72.769531 53.570312 73.46875 54.660156 74.117188 55.785156 L 103.765625 107.265625 C 104.414062 108.390625 105.007812 109.542969 105.542969 110.726562 C 106.078125 111.910156 106.554688 113.117188 106.972656 114.347656 C 107.390625 115.574219 107.746094 116.824219 108.042969 118.089844 C 108.335938 119.351562 108.566406 120.628906 108.738281 121.917969 C 108.90625 123.203125 109.011719 124.496094 109.054688 125.796875 C 109.097656 127.09375 109.078125 128.390625 108.992188 129.6875 C 108.910156 130.984375 108.761719 132.273438 108.550781 133.554688 C 108.339844 134.835938 108.066406 136.101562 107.730469 137.359375 C 107.394531 138.613281 107 139.847656 106.542969 141.0625 C 106.085938 142.277344 105.570312 143.46875 104.996094 144.632812 C 104.421875 145.800781 103.792969 146.933594 103.109375 148.035156 C 102.425781 149.140625 101.6875 150.207031 100.898438 151.234375 C 100.109375 152.265625 99.269531 153.253906 98.382812 154.203125 C 97.496094 155.152344 96.566406 156.054688 95.589844 156.910156 C 94.617188 157.765625 93.601562 158.570312 92.546875 159.328125 C 91.492188 160.085938 90.402344 160.789062 89.28125 161.4375 C 88.15625 162.085938 87.007812 162.679688 85.824219 163.214844 C 84.644531 163.753906 83.441406 164.230469 82.210938 164.648438 C 80.984375 165.066406 79.738281 165.421875 78.476562 165.71875 C 77.214844 166.011719 75.9375 166.246094 74.652344 166.414062 C 73.367188 166.585938 72.078125 166.691406 70.78125 166.734375 C 69.484375 166.777344 68.191406 166.757812 66.894531 166.671875 C 65.601562 166.585938 64.316406 166.4375 63.035156 166.226562 C 61.757812 166.015625 60.492188 165.742188 59.238281 165.40625 C 57.984375 165.070312 56.753906 164.671875 55.539062 164.214844 C 54.324219 163.757812 53.136719 163.242188 51.972656 162.667969 C 50.808594 162.09375 49.679688 161.464844 48.578125 160.777344 C 47.476562 160.089844 46.410156 159.351562 45.382812 158.5625 C 44.355469 157.773438 43.367188 156.933594 42.417969 156.042969 C 41.472656 155.15625 40.574219 154.222656 39.71875 153.246094 C 38.863281 152.269531 38.058594 151.253906 37.304688 150.199219 C 36.546875 149.140625 35.847656 148.050781 35.199219 146.925781 L 5.550781 95.425781 C 4.902344 94.300781 4.308594 93.148438 3.773438 91.964844 C 3.238281 90.78125 2.761719 89.574219 2.34375 88.347656 C 1.925781 87.117188 1.570312 85.867188 1.273438 84.605469 C 0.980469 83.339844 0.75 82.0625 0.578125 80.773438 C 0.410156 79.488281 0.304688 78.195312 0.261719 76.894531 C 0.21875 75.597656 0.238281 74.300781 0.324219 73.003906 C 0.40625 71.707031 0.554688 70.417969 0.765625 69.136719 C 0.976562 67.855469 1.25 66.589844 1.585938 65.335938 C 1.921875 64.078125 2.316406 62.84375 2.773438 61.628906 C 3.230469 60.414062 3.746094 59.222656 4.320312 58.058594 C 4.894531 56.894531 5.523438 55.757812 6.207031 54.65625 C 6.894531 53.554688 7.628906 52.488281 8.417969 51.457031 C 9.207031 50.425781 10.046875 49.4375 10.933594 48.488281 C 11.820312 47.539062 12.75 46.640625 13.726562 45.78125 C 14.699219 44.925781 15.714844 44.121094 16.769531 43.363281 C 17.824219 42.605469 18.914062 41.90625 20.035156 41.253906 Z M 20.035156 41.273438 " fill-opacity="1" fill-rule="evenodd"/></g><path fill="#ffffff" d="M 143.902344 6.335938 C 142.78125 5.683594 141.628906 5.089844 140.449219 4.554688 C 139.265625 4.019531 138.0625 3.542969 136.835938 3.125 C 135.609375 2.707031 134.363281 2.347656 133.097656 2.054688 C 131.835938 1.757812 130.5625 1.527344 129.277344 1.355469 C 127.992188 1.1875 126.699219 1.078125 125.402344 1.035156 C 124.109375 0.992188 122.8125 1.015625 121.519531 1.101562 C 120.226562 1.183594 118.9375 1.332031 117.660156 1.542969 C 116.378906 1.753906 115.113281 2.027344 113.859375 2.363281 C 112.609375 2.703125 111.375 3.097656 110.160156 3.554688 C 108.949219 4.011719 107.757812 4.527344 106.597656 5.101562 C 105.433594 5.679688 104.300781 6.308594 103.199219 6.992188 C 102.097656 7.679688 101.035156 8.417969 100.003906 9.210938 C 98.976562 10 97.988281 10.839844 97.042969 11.726562 C 96.097656 12.617188 95.195312 13.546875 94.339844 14.523438 C 93.488281 15.5 92.679688 16.515625 91.925781 17.574219 C 91.171875 18.628906 90.46875 19.71875 89.820312 20.84375 L 40.027344 107.265625 C 39.378906 108.390625 38.789062 109.542969 38.253906 110.726562 C 37.71875 111.910156 37.242188 113.117188 36.824219 114.347656 C 36.40625 115.578125 36.050781 116.824219 35.757812 118.089844 C 35.464844 119.351562 35.230469 120.628906 35.0625 121.917969 C 34.894531 123.203125 34.789062 124.496094 34.746094 125.796875 C 34.703125 127.09375 34.722656 128.390625 34.808594 129.6875 C 34.894531 130.980469 35.039062 132.269531 35.25 133.550781 C 35.464844 134.832031 35.734375 136.101562 36.070312 137.355469 C 36.40625 138.609375 36.804688 139.84375 37.261719 141.0625 C 37.714844 142.277344 38.230469 143.464844 38.804688 144.632812 C 39.378906 145.796875 40.007812 146.929688 40.691406 148.03125 C 41.375 149.136719 42.113281 150.203125 42.902344 151.234375 C 43.691406 152.261719 44.527344 153.253906 45.414062 154.199219 C 46.300781 155.148438 47.230469 156.050781 48.207031 156.90625 C 49.179688 157.765625 50.195312 158.570312 51.25 159.328125 C 52.300781 160.085938 53.390625 160.789062 54.511719 161.4375 C 55.636719 162.085938 56.789062 162.679688 57.96875 163.214844 C 59.148438 163.75 60.355469 164.226562 61.582031 164.644531 C 62.808594 165.0625 64.054688 165.417969 65.316406 165.714844 C 66.582031 166.007812 67.855469 166.238281 69.140625 166.410156 C 70.425781 166.578125 71.714844 166.683594 73.011719 166.726562 C 74.308594 166.769531 75.601562 166.75 76.898438 166.664062 C 78.191406 166.578125 79.476562 166.429688 80.757812 166.21875 C 82.035156 166.007812 83.300781 165.734375 84.554688 165.398438 C 85.804688 165.0625 87.039062 164.664062 88.253906 164.207031 C 89.464844 163.75 90.65625 163.234375 91.816406 162.660156 C 92.980469 162.085938 94.113281 161.457031 95.214844 160.769531 C 96.316406 160.085938 97.378906 159.347656 98.410156 158.558594 C 99.4375 157.765625 100.425781 156.925781 101.371094 156.039062 C 102.316406 155.152344 103.21875 154.21875 104.074219 153.246094 C 104.929688 152.269531 105.734375 151.253906 106.488281 150.195312 C 107.246094 149.140625 107.945312 148.050781 108.597656 146.925781 L 158.390625 60.484375 C 159.039062 59.363281 159.632812 58.207031 160.167969 57.023438 C 160.703125 55.84375 161.183594 54.636719 161.601562 53.40625 C 162.015625 52.175781 162.375 50.929688 162.667969 49.664062 C 162.964844 48.398438 163.195312 47.121094 163.367188 45.835938 C 163.535156 44.546875 163.644531 43.253906 163.6875 41.957031 C 163.730469 40.65625 163.707031 39.359375 163.625 38.0625 C 163.539062 36.765625 163.390625 35.480469 163.179688 34.195312 C 162.96875 32.914062 162.695312 31.648438 162.359375 30.390625 C 162.027344 29.136719 161.628906 27.902344 161.171875 26.6875 C 160.714844 25.46875 160.199219 24.28125 159.625 23.113281 C 159.050781 21.949219 158.421875 20.816406 157.738281 19.714844 C 157.054688 18.609375 156.316406 17.542969 155.527344 16.511719 C 154.734375 15.484375 153.898438 14.492188 153.011719 13.546875 C 152.125 12.597656 151.191406 11.695312 150.214844 10.839844 C 149.242188 9.984375 148.226562 9.179688 147.171875 8.421875 C 146.117188 7.667969 145.027344 6.964844 143.902344 6.316406 Z M 143.902344 6.335938 " fill-opacity="1" fill-rule="evenodd"/><path fill="#de5d1d" d="M 247.21875 6.335938 C 246.097656 5.683594 244.945312 5.089844 243.765625 4.554688 C 242.585938 4.019531 241.378906 3.542969 240.152344 3.125 C 238.925781 2.707031 237.679688 2.347656 236.417969 2.054688 C 235.152344 1.757812 233.878906 1.527344 232.59375 1.355469 C 231.308594 1.1875 230.015625 1.078125 228.722656 1.035156 C 227.425781 0.992188 226.128906 1.015625 224.835938 1.101562 C 223.542969 1.183594 222.253906 1.332031 220.976562 1.542969 C 219.695312 1.753906 218.429688 2.027344 217.179688 2.363281 C 215.925781 2.703125 214.691406 3.097656 213.476562 3.554688 C 212.265625 4.011719 211.078125 4.527344 209.914062 5.101562 C 208.75 5.679688 207.617188 6.308594 206.515625 6.992188 C 205.414062 7.679688 204.351562 8.417969 203.320312 9.210938 C 202.292969 10 201.304688 10.839844 200.359375 11.726562 C 199.414062 12.617188 198.511719 13.546875 197.65625 14.523438 C 196.804688 15.5 196 16.515625 195.242188 17.574219 C 194.488281 18.628906 193.785156 19.71875 193.136719 20.84375 L 143.34375 107.265625 C 142.695312 108.390625 142.101562 109.542969 141.566406 110.726562 C 141.03125 111.910156 140.554688 113.117188 140.136719 114.347656 C 139.71875 115.574219 139.363281 116.824219 139.070312 118.089844 C 138.773438 119.351562 138.542969 120.628906 138.371094 121.917969 C 138.203125 123.203125 138.097656 124.496094 138.054688 125.796875 C 138.011719 127.09375 138.03125 128.390625 138.117188 129.6875 C 138.203125 130.984375 138.351562 132.273438 138.5625 133.554688 C 138.773438 134.835938 139.046875 136.101562 139.378906 137.359375 C 139.714844 138.613281 140.113281 139.847656 140.570312 141.0625 C 141.027344 142.277344 141.539062 143.46875 142.113281 144.632812 C 142.6875 145.800781 143.316406 146.933594 144.003906 148.035156 C 144.6875 149.140625 145.425781 150.207031 146.214844 151.234375 C 147.003906 152.265625 147.839844 153.253906 148.726562 154.203125 C 149.613281 155.152344 150.546875 156.054688 151.519531 156.910156 C 152.496094 157.765625 153.511719 158.570312 154.5625 159.328125 C 155.617188 160.085938 156.707031 160.789062 157.832031 161.4375 C 158.953125 162.085938 160.105469 162.679688 161.285156 163.214844 C 162.464844 163.753906 163.671875 164.230469 164.898438 164.648438 C 166.125 165.066406 167.371094 165.421875 168.632812 165.71875 C 169.898438 166.011719 171.171875 166.246094 172.457031 166.414062 C 173.742188 166.585938 175.035156 166.691406 176.328125 166.734375 C 177.625 166.777344 178.921875 166.757812 180.214844 166.671875 C 181.507812 166.585938 182.796875 166.4375 184.074219 166.226562 C 185.355469 166.015625 186.621094 165.742188 187.871094 165.40625 C 189.125 165.070312 190.359375 164.671875 191.574219 164.214844 C 192.785156 163.757812 193.972656 163.242188 195.136719 162.667969 C 196.300781 162.09375 197.433594 161.464844 198.535156 160.777344 C 199.636719 160.089844 200.699219 159.351562 201.726562 158.5625 C 202.757812 157.773438 203.746094 156.933594 204.691406 156.042969 C 205.636719 155.15625 206.539062 154.222656 207.394531 153.246094 C 208.246094 152.269531 209.050781 151.253906 209.808594 150.199219 C 210.5625 149.140625 211.265625 148.050781 211.914062 146.925781 L 261.726562 60.503906 C 262.375 59.378906 262.96875 58.226562 263.503906 57.042969 C 264.039062 55.859375 264.515625 54.65625 264.933594 53.425781 C 265.347656 52.195312 265.707031 50.949219 266 49.683594 C 266.296875 48.417969 266.527344 47.140625 266.695312 45.855469 C 266.867188 44.566406 266.972656 43.273438 267.015625 41.976562 C 267.058594 40.675781 267.039062 39.378906 266.953125 38.085938 C 266.867188 36.789062 266.71875 35.5 266.507812 34.21875 C 266.296875 32.9375 266.023438 31.667969 265.6875 30.414062 C 265.355469 29.160156 264.957031 27.921875 264.5 26.707031 C 264.042969 25.492188 263.527344 24.300781 262.957031 23.136719 C 262.382812 21.972656 261.753906 20.839844 261.066406 19.734375 C 260.382812 18.632812 259.644531 17.566406 258.855469 16.535156 C 258.066406 15.503906 257.230469 14.515625 256.34375 13.566406 C 255.457031 12.621094 254.523438 11.71875 253.550781 10.863281 C 252.574219 10.003906 251.558594 9.199219 250.507812 8.441406 C 249.453125 7.6875 248.363281 6.984375 247.238281 6.335938 Z M 247.21875 6.335938 " fill-opacity="1" fill-rule="evenodd"/><g clip-path="url(#id4)"><path fill="#de5d1d" d="M 235.574219 131.625 C 235.574219 130.5 235.628906 129.382812 235.738281 128.265625 C 235.847656 127.148438 236.011719 126.039062 236.230469 124.9375 C 236.449219 123.839844 236.722656 122.75 237.046875 121.675781 C 237.371094 120.605469 237.75 119.546875 238.175781 118.511719 C 238.605469 117.476562 239.085938 116.460938 239.613281 115.472656 C 240.140625 114.484375 240.714844 113.519531 241.339844 112.589844 C 241.960938 111.65625 242.628906 110.753906 243.339844 109.886719 C 244.050781 109.019531 244.800781 108.191406 245.59375 107.394531 C 246.386719 106.601562 247.214844 105.851562 248.078125 105.136719 C 248.945312 104.425781 249.84375 103.757812 250.777344 103.136719 C 251.707031 102.511719 252.667969 101.933594 253.65625 101.40625 C 254.644531 100.878906 255.65625 100.398438 256.691406 99.96875 C 257.726562 99.539062 258.777344 99.160156 259.851562 98.835938 C 260.921875 98.511719 262.007812 98.238281 263.105469 98.019531 C 264.207031 97.800781 265.3125 97.636719 266.429688 97.527344 C 267.542969 97.414062 268.660156 97.359375 269.78125 97.359375 C 270.902344 97.359375 272.019531 97.414062 273.132812 97.527344 C 274.25 97.636719 275.355469 97.800781 276.453125 98.019531 C 277.554688 98.238281 278.636719 98.511719 279.710938 98.835938 C 280.78125 99.160156 281.835938 99.539062 282.871094 99.96875 C 283.90625 100.398438 284.917969 100.878906 285.90625 101.40625 C 286.894531 101.933594 287.855469 102.511719 288.785156 103.136719 C 289.714844 103.757812 290.617188 104.425781 291.480469 105.136719 C 292.347656 105.851562 293.175781 106.601562 293.96875 107.394531 C 294.761719 108.191406 295.511719 109.019531 296.222656 109.886719 C 296.933594 110.753906 297.601562 111.65625 298.222656 112.589844 C 298.84375 113.519531 299.421875 114.484375 299.949219 115.472656 C 300.476562 116.460938 300.957031 117.476562 301.382812 118.511719 C 301.8125 119.546875 302.191406 120.605469 302.515625 121.675781 C 302.839844 122.75 303.113281 123.839844 303.332031 124.9375 C 303.550781 126.039062 303.714844 127.148438 303.824219 128.265625 C 303.933594 129.382812 303.988281 130.5 303.988281 131.625 C 303.988281 132.746094 303.933594 133.863281 303.824219 134.980469 C 303.714844 136.097656 303.550781 137.207031 303.332031 138.308594 C 303.113281 139.410156 302.839844 140.496094 302.515625 141.570312 C 302.191406 142.644531 301.8125 143.699219 301.382812 144.734375 C 300.957031 145.773438 300.476562 146.785156 299.949219 147.773438 C 299.421875 148.765625 298.84375 149.726562 298.222656 150.660156 C 297.601562 151.59375 296.933594 152.492188 296.222656 153.359375 C 295.511719 154.226562 294.761719 155.058594 293.96875 155.851562 C 293.175781 156.644531 292.347656 157.398438 291.480469 158.109375 C 290.617188 158.820312 289.714844 159.488281 288.785156 160.113281 C 287.855469 160.734375 286.894531 161.3125 285.90625 161.839844 C 284.917969 162.371094 283.90625 162.847656 282.871094 163.277344 C 281.835938 163.707031 280.78125 164.085938 279.710938 164.410156 C 278.636719 164.738281 277.554688 165.007812 276.453125 165.226562 C 275.355469 165.445312 274.25 165.613281 273.132812 165.722656 C 272.019531 165.832031 270.902344 165.886719 269.78125 165.886719 C 268.660156 165.886719 267.542969 165.832031 266.429688 165.722656 C 265.3125 165.613281 264.207031 165.445312 263.105469 165.226562 C 262.007812 165.007812 260.921875 164.738281 259.851562 164.410156 C 258.777344 164.085938 257.726562 163.707031 256.691406 163.277344 C 255.65625 162.847656 254.644531 162.371094 253.65625 161.839844 C 252.667969 161.3125 251.707031 160.734375 250.777344 160.113281 C 249.84375 159.488281 248.945312 158.820312 248.078125 158.109375 C 247.214844 157.398438 246.386719 156.644531 245.59375 155.851562 C 244.800781 155.058594 244.050781 154.226562 243.339844 153.359375 C 242.628906 152.492188 241.960938 151.59375 241.339844 150.660156 C 240.714844 149.726562 240.140625 148.765625 239.613281 147.773438 C 239.085938 146.785156 238.605469 145.773438 238.175781 144.734375 C 237.75 143.699219 237.371094 142.644531 237.046875 141.570312 C 236.722656 140.496094 236.449219 139.410156 236.230469 138.308594 C 236.011719 137.207031 235.847656 136.097656 235.738281 134.980469 C 235.628906 133.863281 235.574219 132.746094 235.574219 131.625 Z M 235.574219 131.625 " fill-opacity="1" fill-rule="evenodd"/></g></g></g></g><g fill="#ffffff" fill-opacity="1"><g transform="translate(11.402225, 278.609223)"><g><path d="M 9.5 0 L 5.875 -41.546875 L 14 -41.546875 L 15.671875 -8.78125 L 30.203125 -41.546875 L 38.6875 -41.546875 L 41.359375 -8.84375 L 54.59375 -41.546875 L 62.84375 -41.546875 L 44.21875 0 L 35.1875 0 L 32.40625 -30.734375 L 18.453125 0 Z M 9.5 0 "/></g></g></g><g fill="#ffffff" fill-opacity="1"><g transform="translate(68.725546, 278.609223)"><g><path d="M 11.15625 0.71875 C 7.832031 0.71875 5.398438 -0.0390625 3.859375 -1.5625 C 2.316406 -3.09375 1.546875 -4.925781 1.546875 -7.0625 C 1.546875 -10.226562 2.867188 -12.738281 5.515625 -14.59375 C 8.171875 -16.457031 11.710938 -17.390625 16.140625 -17.390625 L 23.625 -17.390625 L 23.734375 -18.09375 C 23.773438 -18.332031 23.804688 -18.582031 23.828125 -18.84375 C 23.847656 -19.101562 23.859375 -19.332031 23.859375 -19.53125 C 23.859375 -21.03125 23.378906 -22.144531 22.421875 -22.875 C 21.472656 -23.601562 20.269531 -23.96875 18.8125 -23.96875 C 17.269531 -23.96875 15.851562 -23.601562 14.5625 -22.875 C 13.28125 -22.144531 12.363281 -21.066406 11.8125 -19.640625 L 4.390625 -19.640625 C 4.984375 -21.773438 6.019531 -23.632812 7.5 -25.21875 C 8.988281 -26.800781 10.800781 -28.015625 12.9375 -28.859375 C 15.070312 -29.710938 17.382812 -30.140625 19.875 -30.140625 C 23.519531 -30.140625 26.378906 -29.328125 28.453125 -27.703125 C 30.535156 -26.085938 31.578125 -23.757812 31.578125 -20.71875 C 31.578125 -20.320312 31.554688 -19.894531 31.515625 -19.4375 C 31.472656 -18.976562 31.410156 -18.53125 31.328125 -18.09375 L 28.125 0 L 21.359375 0 L 21.65625 -4.5625 C 20.507812 -3.0625 19.078125 -1.804688 17.359375 -0.796875 C 15.640625 0.210938 13.570312 0.71875 11.15625 0.71875 Z M 13.953125 -5.21875 C 16.117188 -5.21875 17.925781 -5.929688 19.375 -7.359375 C 20.820312 -8.785156 21.878906 -10.546875 22.546875 -12.640625 L 16.140625 -12.640625 C 14.160156 -12.640625 12.597656 -12.242188 11.453125 -11.453125 C 10.304688 -10.660156 9.734375 -9.570312 9.734375 -8.1875 C 9.734375 -7.195312 10.117188 -6.453125 10.890625 -5.953125 C 11.660156 -5.460938 12.679688 -5.21875 13.953125 -5.21875 Z M 13.953125 -5.21875 "/></g></g></g><g fill="#ffffff" fill-opacity="1"><g transform="translate(100.176042, 278.609223)"><g><path d="M 21.890625 13.0625 L 24.8125 -4.21875 C 23.695312 -2.90625 22.296875 -1.753906 20.609375 -0.765625 C 18.929688 0.222656 16.867188 0.71875 14.421875 0.71875 C 11.960938 0.71875 9.863281 0.144531 8.125 -1 C 6.382812 -2.15625 5.039062 -3.722656 4.09375 -5.703125 C 3.144531 -7.679688 2.671875 -9.894531 2.671875 -12.34375 C 2.671875 -15.707031 3.410156 -18.734375 4.890625 -21.421875 C 6.378906 -24.109375 8.378906 -26.234375 10.890625 -27.796875 C 13.398438 -29.359375 16.195312 -30.140625 19.28125 -30.140625 C 21.738281 -30.140625 23.71875 -29.691406 25.21875 -28.796875 C 26.71875 -27.910156 27.847656 -26.78125 28.609375 -25.40625 L 30.140625 -29.4375 L 36.90625 -29.4375 L 29.5 13.0625 Z M 17.328125 -5.9375 C 19.191406 -5.9375 20.84375 -6.421875 22.28125 -7.390625 C 23.726562 -8.359375 24.875 -9.648438 25.71875 -11.265625 C 26.570312 -12.890625 27 -14.671875 27 -16.609375 C 27 -18.671875 26.382812 -20.332031 25.15625 -21.59375 C 23.9375 -22.863281 22.257812 -23.5 20.125 -23.5 C 18.257812 -23.5 16.601562 -23.039062 15.15625 -22.125 C 13.71875 -21.21875 12.582031 -19.992188 11.75 -18.453125 C 10.914062 -16.910156 10.5 -15.171875 10.5 -13.234375 C 10.5 -11.171875 11.101562 -9.4375 12.3125 -8.03125 C 13.519531 -6.632812 15.191406 -5.9375 17.328125 -5.9375 Z M 17.328125 -5.9375 "/></g></g></g><g fill="#ffffff" fill-opacity="1"><g transform="translate(135.780427, 278.609223)"><g><path d="M 11.15625 0.71875 C 7.832031 0.71875 5.398438 -0.0390625 3.859375 -1.5625 C 2.316406 -3.09375 1.546875 -4.925781 1.546875 -7.0625 C 1.546875 -10.226562 2.867188 -12.738281 5.515625 -14.59375 C 8.171875 -16.457031 11.710938 -17.390625 16.140625 -17.390625 L 23.625 -17.390625 L 23.734375 -18.09375 C 23.773438 -18.332031 23.804688 -18.582031 23.828125 -18.84375 C 23.847656 -19.101562 23.859375 -19.332031 23.859375 -19.53125 C 23.859375 -21.03125 23.378906 -22.144531 22.421875 -22.875 C 21.472656 -23.601562 20.269531 -23.96875 18.8125 -23.96875 C 17.269531 -23.96875 15.851562 -23.601562 14.5625 -22.875 C 13.28125 -22.144531 12.363281 -21.066406 11.8125 -19.640625 L 4.390625 -19.640625 C 4.984375 -21.773438 6.019531 -23.632812 7.5 -25.21875 C 8.988281 -26.800781 10.800781 -28.015625 12.9375 -28.859375 C 15.070312 -29.710938 17.382812 -30.140625 19.875 -30.140625 C 23.519531 -30.140625 26.378906 -29.328125 28.453125 -27.703125 C 30.535156 -26.085938 31.578125 -23.757812 31.578125 -20.71875 C 31.578125 -20.320312 31.554688 -19.894531 31.515625 -19.4375 C 31.472656 -18.976562 31.410156 -18.53125 31.328125 -18.09375 L 28.125 0 L 21.359375 0 L 21.65625 -4.5625 C 20.507812 -3.0625 19.078125 -1.804688 17.359375 -0.796875 C 15.640625 0.210938 13.570312 0.71875 11.15625 0.71875 Z M 13.953125 -5.21875 C 16.117188 -5.21875 17.925781 -5.929688 19.375 -7.359375 C 20.820312 -8.785156 21.878906 -10.546875 22.546875 -12.640625 L 16.140625 -12.640625 C 14.160156 -12.640625 12.597656 -12.242188 11.453125 -11.453125 C 10.304688 -10.660156 9.734375 -9.570312 9.734375 -8.1875 C 9.734375 -7.195312 10.117188 -6.453125 10.890625 -5.953125 C 11.660156 -5.460938 12.679688 -5.21875 13.953125 -5.21875 Z M 13.953125 -5.21875 "/></g></g></g><g fill="#ffffff" fill-opacity="1"><g transform="translate(167.230922, 278.609223)"><g><path d="M 1.3125 0 L 6.46875 -29.4375 L 13.296875 -29.4375 L 13.0625 -24.09375 C 14.4375 -25.914062 16.144531 -27.378906 18.1875 -28.484375 C 20.226562 -29.585938 22.492188 -30.140625 24.984375 -30.140625 L 23.5625 -22.140625 L 21.484375 -22.140625 C 18.953125 -22.140625 16.773438 -21.554688 14.953125 -20.390625 C 13.128906 -19.222656 11.941406 -17.078125 11.390625 -13.953125 L 8.90625 0 Z M 1.3125 0 "/></g></g></g><g fill="#ffffff" fill-opacity="1"><g transform="translate(188.474702, 278.609223)"><g/></g></g><g fill="#ffffff" fill-opacity="1"><g transform="translate(201.113987, 278.609223)"><g><path d="M 1.484375 0 L 8.78125 -41.546875 L 16.375 -41.546875 L 13.46875 -24.75 L 31.75 -41.546875 L 41.125 -41.546875 L 22.90625 -25.046875 L 34.234375 0 L 25.21875 0 L 16.609375 -19.40625 L 11.6875 -14.890625 L 9.078125 0 Z M 1.484375 0 "/></g></g></g><g fill="#ffffff" fill-opacity="1"><g transform="translate(236.837053, 278.609223)"><g><path d="M 12.171875 -33.828125 C 10.785156 -33.828125 9.644531 -34.25 8.75 -35.09375 C 7.863281 -35.945312 7.421875 -37.007812 7.421875 -38.28125 C 7.421875 -39.539062 7.863281 -40.597656 8.75 -41.453125 C 9.644531 -42.304688 10.785156 -42.734375 12.171875 -42.734375 C 13.554688 -42.734375 14.691406 -42.304688 15.578125 -41.453125 C 16.460938 -40.597656 16.90625 -39.539062 16.90625 -38.28125 C 16.90625 -37.007812 16.460938 -35.945312 15.578125 -35.09375 C 14.691406 -34.25 13.554688 -33.828125 12.171875 -33.828125 Z M 1.609375 0 L 6.765625 -29.4375 L 14.359375 -29.4375 L 9.203125 0 Z M 1.609375 0 "/></g></g></g><g fill="#ffffff" fill-opacity="1"><g transform="translate(250.188424, 278.609223)"><g><path d="M 2.546875 13.0625 L 11.984375 -1.953125 L 10.203125 -1.953125 L 3.625 -29.4375 L 11.75 -29.4375 L 16.5 -8.71875 L 28.71875 -29.4375 L 36.796875 -29.4375 L 10.5625 13.0625 Z M 2.546875 13.0625 "/></g></g></g><g fill="#ffffff" fill-opacity="1"><g transform="translate(282.647722, 278.609223)"><g><path d="M 11.15625 0.71875 C 7.832031 0.71875 5.398438 -0.0390625 3.859375 -1.5625 C 2.316406 -3.09375 1.546875 -4.925781 1.546875 -7.0625 C 1.546875 -10.226562 2.867188 -12.738281 5.515625 -14.59375 C 8.171875 -16.457031 11.710938 -17.390625 16.140625 -17.390625 L 23.625 -17.390625 L 23.734375 -18.09375 C 23.773438 -18.332031 23.804688 -18.582031 23.828125 -18.84375 C 23.847656 -19.101562 23.859375 -19.332031 23.859375 -19.53125 C 23.859375 -21.03125 23.378906 -22.144531 22.421875 -22.875 C 21.472656 -23.601562 20.269531 -23.96875 18.8125 -23.96875 C 17.269531 -23.96875 15.851562 -23.601562 14.5625 -22.875 C 13.28125 -22.144531 12.363281 -21.066406 11.8125 -19.640625 L 4.390625 -19.640625 C 4.984375 -21.773438 6.019531 -23.632812 7.5 -25.21875 C 8.988281 -26.800781 10.800781 -28.015625 12.9375 -28.859375 C 15.070312 -29.710938 17.382812 -30.140625 19.875 -30.140625 C 23.519531 -30.140625 26.378906 -29.328125 28.453125 -27.703125 C 30.535156 -26.085938 31.578125 -23.757812 31.578125 -20.71875 C 31.578125 -20.320312 31.554688 -19.894531 31.515625 -19.4375 C 31.472656 -18.976562 31.410156 -18.53125 31.328125 -18.09375 L 28.125 0 L 21.359375 0 L 21.65625 -4.5625 C 20.507812 -3.0625 19.078125 -1.804688 17.359375 -0.796875 C 15.640625 0.210938 13.570312 0.71875 11.15625 0.71875 Z M 13.953125 -5.21875 C 16.117188 -5.21875 17.925781 -5.929688 19.375 -7.359375 C 20.820312 -8.785156 21.878906 -10.546875 22.546875 -12.640625 L 16.140625 -12.640625 C 14.160156 -12.640625 12.597656 -12.242188 11.453125 -11.453125 C 10.304688 -10.660156 9.734375 -9.570312 9.734375 -8.1875 C 9.734375 -7.195312 10.117188 -6.453125 10.890625 -5.953125 C 11.660156 -5.460938 12.679688 -5.21875 13.953125 -5.21875 Z M 13.953125 -5.21875 "/></g></g></g><g fill="#ffffff" fill-opacity="1"><g transform="translate(314.098218, 278.609223)"><g><path d="M 1.3125 0 L 6.46875 -29.4375 L 13.171875 -29.4375 L 13 -24.5625 C 14.226562 -26.269531 15.769531 -27.625 17.625 -28.625 C 19.488281 -29.632812 21.566406 -30.140625 23.859375 -30.140625 C 26.898438 -30.140625 29.257812 -29.300781 30.9375 -27.625 C 32.625 -25.945312 33.46875 -23.523438 33.46875 -20.359375 C 33.46875 -19.242188 33.347656 -17.992188 33.109375 -16.609375 L 30.140625 0 L 22.546875 0 L 25.40625 -15.90625 C 25.4375 -16.375 25.484375 -16.816406 25.546875 -17.234375 C 25.609375 -17.648438 25.640625 -18.035156 25.640625 -18.390625 C 25.640625 -21.953125 23.878906 -23.734375 20.359375 -23.734375 C 18.253906 -23.734375 16.390625 -22.988281 14.765625 -21.5 C 13.148438 -20.019531 12.101562 -17.992188 11.625 -15.421875 L 8.90625 0 Z M 1.3125 0 "/></g></g></g><g fill="#ffffff" fill-opacity="1"><g transform="translate(347.566317, 278.609223)"><g><path d="M 12.171875 -33.828125 C 10.785156 -33.828125 9.644531 -34.25 8.75 -35.09375 C 7.863281 -35.945312 7.421875 -37.007812 7.421875 -38.28125 C 7.421875 -39.539062 7.863281 -40.597656 8.75 -41.453125 C 9.644531 -42.304688 10.785156 -42.734375 12.171875 -42.734375 C 13.554688 -42.734375 14.691406 -42.304688 15.578125 -41.453125 C 16.460938 -40.597656 16.90625 -39.539062 16.90625 -38.28125 C 16.90625 -37.007812 16.460938 -35.945312 15.578125 -35.09375 C 14.691406 -34.25 13.554688 -33.828125 12.171875 -33.828125 Z M 1.609375 0 L 6.765625 -29.4375 L 14.359375 -29.4375 L 9.203125 0 Z M 1.609375 0 "/></g></g></g><g fill="#de5d1d" fill-opacity="1"><g transform="translate(57.515695, 307.414941)"><g><path d="M 3.546875 -8.25 L 3.546875 -5.578125 L 8.234375 -5.578125 L 8.234375 -3.6875 L 3.546875 -3.6875 L 3.546875 0 L 1.203125 0 L 1.203125 -10.140625 L 8.859375 -10.140625 L 8.859375 -8.25 Z M 3.546875 -8.25 "/></g></g></g><g fill="#de5d1d" fill-opacity="1"><g transform="translate(70.82449, 307.414941)"><g><path d="M 7.65625 0 L 5.703125 -2.828125 L 3.546875 -2.828125 L 3.546875 0 L 1.203125 0 L 1.203125 -10.140625 L 5.59375 -10.140625 C 6.488281 -10.140625 7.265625 -9.988281 7.921875 -9.6875 C 8.585938 -9.382812 9.097656 -8.957031 9.453125 -8.40625 C 9.816406 -7.863281 10 -7.210938 10 -6.453125 C 10 -5.703125 9.816406 -5.050781 9.453125 -4.5 C 9.085938 -3.957031 8.570312 -3.546875 7.90625 -3.265625 L 10.1875 0 Z M 7.625 -6.453125 C 7.625 -7.023438 7.4375 -7.460938 7.0625 -7.765625 C 6.695312 -8.078125 6.160156 -8.234375 5.453125 -8.234375 L 3.546875 -8.234375 L 3.546875 -4.6875 L 5.453125 -4.6875 C 6.160156 -4.6875 6.695312 -4.84375 7.0625 -5.15625 C 7.4375 -5.46875 7.625 -5.898438 7.625 -6.453125 Z M 7.625 -6.453125 "/></g></g></g><g fill="#de5d1d" fill-opacity="1"><g transform="translate(85.523373, 307.414941)"><g><path d="M 6.109375 0.171875 C 5.054688 0.171875 4.109375 -0.0507812 3.265625 -0.5 C 2.421875 -0.957031 1.757812 -1.582031 1.28125 -2.375 C 0.800781 -3.175781 0.5625 -4.070312 0.5625 -5.0625 C 0.5625 -6.0625 0.800781 -6.957031 1.28125 -7.75 C 1.757812 -8.550781 2.421875 -9.175781 3.265625 -9.625 C 4.109375 -10.082031 5.054688 -10.3125 6.109375 -10.3125 C 7.160156 -10.3125 8.109375 -10.082031 8.953125 -9.625 C 9.796875 -9.175781 10.457031 -8.550781 10.9375 -7.75 C 11.414062 -6.957031 11.65625 -6.0625 11.65625 -5.0625 C 11.65625 -4.070312 11.414062 -3.175781 10.9375 -2.375 C 10.457031 -1.582031 9.796875 -0.957031 8.953125 -0.5 C 8.109375 -0.0507812 7.160156 0.171875 6.109375 0.171875 Z M 6.109375 -1.828125 C 6.710938 -1.828125 7.253906 -1.960938 7.734375 -2.234375 C 8.210938 -2.515625 8.585938 -2.898438 8.859375 -3.390625 C 9.140625 -3.878906 9.28125 -4.4375 9.28125 -5.0625 C 9.28125 -5.695312 9.140625 -6.257812 8.859375 -6.75 C 8.585938 -7.238281 8.210938 -7.617188 7.734375 -7.890625 C 7.253906 -8.171875 6.710938 -8.3125 6.109375 -8.3125 C 5.515625 -8.3125 4.972656 -8.171875 4.484375 -7.890625 C 4.003906 -7.617188 3.625 -7.238281 3.34375 -6.75 C 3.070312 -6.257812 2.9375 -5.695312 2.9375 -5.0625 C 2.9375 -4.4375 3.070312 -3.878906 3.34375 -3.390625 C 3.625 -2.898438 4.003906 -2.515625 4.484375 -2.234375 C 4.972656 -1.960938 5.515625 -1.828125 6.109375 -1.828125 Z M 6.109375 -1.828125 "/></g></g></g><g fill="#de5d1d" fill-opacity="1"><g transform="translate(101.800602, 307.414941)"><g><path d="M 10.5 -10.140625 L 10.5 0 L 8.578125 0 L 3.515625 -6.15625 L 3.515625 0 L 1.203125 0 L 1.203125 -10.140625 L 3.140625 -10.140625 L 8.1875 -3.984375 L 8.1875 -10.140625 Z M 10.5 -10.140625 "/></g></g></g><g fill="#de5d1d" fill-opacity="1"><g transform="translate(117.556541, 307.414941)"><g><path d="M 3.296875 -8.234375 L 0.0625 -8.234375 L 0.0625 -10.140625 L 8.890625 -10.140625 L 8.890625 -8.234375 L 5.65625 -8.234375 L 5.65625 0 L 3.296875 0 Z M 3.296875 -8.234375 "/></g></g></g><g fill="#de5d1d" fill-opacity="1"><g transform="translate(130.561248, 307.414941)"><g/></g></g><g fill="#de5d1d" fill-opacity="1"><g transform="translate(138.715102, 307.414941)"><g><path d="M 9.046875 -1.890625 L 9.046875 0 L 1.203125 0 L 1.203125 -10.140625 L 8.859375 -10.140625 L 8.859375 -8.25 L 3.53125 -8.25 L 3.53125 -6.046875 L 8.234375 -6.046875 L 8.234375 -4.234375 L 3.53125 -4.234375 L 3.53125 -1.890625 Z M 9.046875 -1.890625 "/></g></g></g><g fill="#de5d1d" fill-opacity="1"><g transform="translate(152.487254, 307.414941)"><g><path d="M 10.5 -10.140625 L 10.5 0 L 8.578125 0 L 3.515625 -6.15625 L 3.515625 0 L 1.203125 0 L 1.203125 -10.140625 L 3.140625 -10.140625 L 8.1875 -3.984375 L 8.1875 -10.140625 Z M 10.5 -10.140625 "/></g></g></g><g fill="#de5d1d" fill-opacity="1"><g transform="translate(168.243194, 307.414941)"><g><path d="M 1.203125 -10.140625 L 5.8125 -10.140625 C 6.90625 -10.140625 7.875 -9.925781 8.71875 -9.5 C 9.570312 -9.082031 10.234375 -8.492188 10.703125 -7.734375 C 11.171875 -6.972656 11.40625 -6.082031 11.40625 -5.0625 C 11.40625 -4.050781 11.171875 -3.164062 10.703125 -2.40625 C 10.234375 -1.644531 9.570312 -1.050781 8.71875 -0.625 C 7.875 -0.207031 6.90625 0 5.8125 0 L 1.203125 0 Z M 5.6875 -1.921875 C 6.707031 -1.921875 7.519531 -2.203125 8.125 -2.765625 C 8.726562 -3.335938 9.03125 -4.101562 9.03125 -5.0625 C 9.03125 -6.03125 8.726562 -6.796875 8.125 -7.359375 C 7.519531 -7.929688 6.707031 -8.21875 5.6875 -8.21875 L 3.546875 -8.21875 L 3.546875 -1.921875 Z M 5.6875 -1.921875 "/></g></g></g><g fill="#de5d1d" fill-opacity="1"><g transform="translate(184.259786, 307.414941)"><g/></g></g><g fill="#de5d1d" fill-opacity="1"><g transform="translate(192.413641, 307.414941)"><g><path d="M 1.203125 -10.140625 L 5.8125 -10.140625 C 6.90625 -10.140625 7.875 -9.925781 8.71875 -9.5 C 9.570312 -9.082031 10.234375 -8.492188 10.703125 -7.734375 C 11.171875 -6.972656 11.40625 -6.082031 11.40625 -5.0625 C 11.40625 -4.050781 11.171875 -3.164062 10.703125 -2.40625 C 10.234375 -1.644531 9.570312 -1.050781 8.71875 -0.625 C 7.875 -0.207031 6.90625 0 5.8125 0 L 1.203125 0 Z M 5.6875 -1.921875 C 6.707031 -1.921875 7.519531 -2.203125 8.125 -2.765625 C 8.726562 -3.335938 9.03125 -4.101562 9.03125 -5.0625 C 9.03125 -6.03125 8.726562 -6.796875 8.125 -7.359375 C 7.519531 -7.929688 6.707031 -8.21875 5.6875 -8.21875 L 3.546875 -8.21875 L 3.546875 -1.921875 Z M 5.6875 -1.921875 "/></g></g></g><g fill="#de5d1d" fill-opacity="1"><g transform="translate(208.430241, 307.414941)"><g><path d="M 9.046875 -1.890625 L 9.046875 0 L 1.203125 0 L 1.203125 -10.140625 L 8.859375 -10.140625 L 8.859375 -8.25 L 3.53125 -8.25 L 3.53125 -6.046875 L 8.234375 -6.046875 L 8.234375 -4.234375 L 3.53125 -4.234375 L 3.53125 -1.890625 Z M 9.046875 -1.890625 "/></g></g></g><g fill="#de5d1d" fill-opacity="1"><g transform="translate(222.202401, 307.414941)"><g><path d="M 10.953125 -10.140625 L 6.5625 0 L 4.25 0 L -0.125 -10.140625 L 2.40625 -10.140625 L 5.484375 -2.890625 L 8.625 -10.140625 Z M 10.953125 -10.140625 "/></g></g></g><g fill="#de5d1d" fill-opacity="1"><g transform="translate(237.06056, 307.414941)"><g><path d="M 9.046875 -1.890625 L 9.046875 0 L 1.203125 0 L 1.203125 -10.140625 L 8.859375 -10.140625 L 8.859375 -8.25 L 3.53125 -8.25 L 3.53125 -6.046875 L 8.234375 -6.046875 L 8.234375 -4.234375 L 3.53125 -4.234375 L 3.53125 -1.890625 Z M 9.046875 -1.890625 "/></g></g></g><g fill="#de5d1d" fill-opacity="1"><g transform="translate(250.832721, 307.414941)"><g><path d="M 1.203125 -10.140625 L 3.546875 -10.140625 L 3.546875 -1.90625 L 8.625 -1.90625 L 8.625 0 L 1.203125 0 Z M 1.203125 -10.140625 "/></g></g></g><g fill="#de5d1d" fill-opacity="1"><g transform="translate(263.634715, 307.414941)"><g><path d="M 6.109375 0.171875 C 5.054688 0.171875 4.109375 -0.0507812 3.265625 -0.5 C 2.421875 -0.957031 1.757812 -1.582031 1.28125 -2.375 C 0.800781 -3.175781 0.5625 -4.070312 0.5625 -5.0625 C 0.5625 -6.0625 0.800781 -6.957031 1.28125 -7.75 C 1.757812 -8.550781 2.421875 -9.175781 3.265625 -9.625 C 4.109375 -10.082031 5.054688 -10.3125 6.109375 -10.3125 C 7.160156 -10.3125 8.109375 -10.082031 8.953125 -9.625 C 9.796875 -9.175781 10.457031 -8.550781 10.9375 -7.75 C 11.414062 -6.957031 11.65625 -6.0625 11.65625 -5.0625 C 11.65625 -4.070312 11.414062 -3.175781 10.9375 -2.375 C 10.457031 -1.582031 9.796875 -0.957031 8.953125 -0.5 C 8.109375 -0.0507812 7.160156 0.171875 6.109375 0.171875 Z M 6.109375 -1.828125 C 6.710938 -1.828125 7.253906 -1.960938 7.734375 -2.234375 C 8.210938 -2.515625 8.585938 -2.898438 8.859375 -3.390625 C 9.140625 -3.878906 9.28125 -4.4375 9.28125 -5.0625 C 9.28125 -5.695312 9.140625 -6.257812 8.859375 -6.75 C 8.585938 -7.238281 8.210938 -7.617188 7.734375 -7.890625 C 7.253906 -8.171875 6.710938 -8.3125 6.109375 -8.3125 C 5.515625 -8.3125 4.972656 -8.171875 4.484375 -7.890625 C 4.003906 -7.617188 3.625 -7.238281 3.34375 -6.75 C 3.070312 -6.257812 2.9375 -5.695312 2.9375 -5.0625 C 2.9375 -4.4375 3.070312 -3.878906 3.34375 -3.390625 C 3.625 -2.898438 4.003906 -2.515625 4.484375 -2.234375 C 4.972656 -1.960938 5.515625 -1.828125 6.109375 -1.828125 Z M 6.109375 -1.828125 "/></g></g></g><g fill="#de5d1d" fill-opacity="1"><g transform="translate(279.911935, 307.414941)"><g><path d="M 5.59375 -10.140625 C 6.488281 -10.140625 7.265625 -9.988281 7.921875 -9.6875 C 8.585938 -9.382812 9.097656 -8.957031 9.453125 -8.40625 C 9.816406 -7.863281 10 -7.210938 10 -6.453125 C 10 -5.710938 9.816406 -5.0625 9.453125 -4.5 C 9.097656 -3.945312 8.585938 -3.523438 7.921875 -3.234375 C 7.265625 -2.941406 6.488281 -2.796875 5.59375 -2.796875 L 3.546875 -2.796875 L 3.546875 0 L 1.203125 0 L 1.203125 -10.140625 Z M 5.453125 -4.703125 C 6.160156 -4.703125 6.695312 -4.851562 7.0625 -5.15625 C 7.4375 -5.46875 7.625 -5.898438 7.625 -6.453125 C 7.625 -7.023438 7.4375 -7.460938 7.0625 -7.765625 C 6.695312 -8.078125 6.160156 -8.234375 5.453125 -8.234375 L 3.546875 -8.234375 L 3.546875 -4.703125 Z M 5.453125 -4.703125 "/></g></g></g><g fill="#de5d1d" fill-opacity="1"><g transform="translate(294.567389, 307.414941)"><g><path d="M 9.046875 -1.890625 L 9.046875 0 L 1.203125 0 L 1.203125 -10.140625 L 8.859375 -10.140625 L 8.859375 -8.25 L 3.53125 -8.25 L 3.53125 -6.046875 L 8.234375 -6.046875 L 8.234375 -4.234375 L 3.53125 -4.234375 L 3.53125 -1.890625 Z M 9.046875 -1.890625 "/></g></g></g><g fill="#de5d1d" fill-opacity="1"><g transform="translate(308.33955, 307.414941)"><g><path d="M 7.65625 0 L 5.703125 -2.828125 L 3.546875 -2.828125 L 3.546875 0 L 1.203125 0 L 1.203125 -10.140625 L 5.59375 -10.140625 C 6.488281 -10.140625 7.265625 -9.988281 7.921875 -9.6875 C 8.585938 -9.382812 9.097656 -8.957031 9.453125 -8.40625 C 9.816406 -7.863281 10 -7.210938 10 -6.453125 C 10 -5.703125 9.816406 -5.050781 9.453125 -4.5 C 9.085938 -3.957031 8.570312 -3.546875 7.90625 -3.265625 L 10.1875 0 Z M 7.625 -6.453125 C 7.625 -7.023438 7.4375 -7.460938 7.0625 -7.765625 C 6.695312 -8.078125 6.160156 -8.234375 5.453125 -8.234375 L 3.546875 -8.234375 L 3.546875 -4.6875 L 5.453125 -4.6875 C 6.160156 -4.6875 6.695312 -4.84375 7.0625 -5.15625 C 7.4375 -5.46875 7.625 -5.898438 7.625 -6.453125 Z M 7.625 -6.453125 "/></g></g></g></svg>