<svg xmlns="http://www.w3.org/2000/svg" xmlns:xlink="http://www.w3.org/1999/xlink" width="500" zoomAndPan="magnify" viewBox="0 0 375 374.999991" height="500" preserveAspectRatio="xMidYMid meet" version="1.0"><defs><filter x="0%" y="0%" width="100%" height="100%" id="id1"><feColorMatrix values="0 0 0 0 1 0 0 0 0 1 0 0 0 0 1 0 0 0 1 0" color-interpolation-filters="sRGB"/></filter><g/><mask id="id2"><g filter="url(#id1)"><rect x="-37.5" width="450" fill="#000000" y="-37.499999" height="449.999989" fill-opacity="0.549"/></g></mask><clipPath id="id3"><path d="M 0.296875 20 L 60 20 L 60 91.589844 L 0.296875 91.589844 Z M 0.296875 20 " clip-rule="nonzero"/></clipPath><clipPath id="id4"><path d="M 19 1 L 90 1 L 90 91.589844 L 19 91.589844 Z M 19 1 " clip-rule="nonzero"/></clipPath><clipPath id="id5"><path d="M 75 1 L 147 1 L 147 91.589844 L 75 91.589844 Z M 75 1 " clip-rule="nonzero"/></clipPath><clipPath id="id6"><path d="M 129 53 L 166.796875 53 L 166.796875 91 L 129 91 Z M 129 53 " clip-rule="nonzero"/></clipPath><clipPath id="id7"><rect x="0" width="168" y="0" height="92"/></clipPath></defs><g mask="url(#id2)"><g transform="matrix(1, 0, 0, 1, 104, 102)"><g clip-path="url(#id7)"><g clip-path="url(#id3)"><path fill="#ffffff" d="M 11.148438 22.996094 C 11.761719 22.640625 12.394531 22.320312 13.042969 22.027344 C 13.6875 21.734375 14.347656 21.472656 15.023438 21.246094 C 15.695312 21.019531 16.378906 20.824219 17.070312 20.664062 C 17.761719 20.5 18.460938 20.375 19.164062 20.28125 C 19.871094 20.191406 20.578125 20.132812 21.289062 20.109375 C 22 20.085938 22.707031 20.097656 23.417969 20.144531 C 24.125 20.1875 24.832031 20.269531 25.535156 20.386719 C 26.234375 20.5 26.929688 20.648438 27.613281 20.832031 C 28.300781 21.015625 28.976562 21.230469 29.644531 21.480469 C 30.308594 21.730469 30.960938 22.011719 31.597656 22.324219 C 32.234375 22.636719 32.855469 22.980469 33.457031 23.355469 C 34.0625 23.730469 34.644531 24.132812 35.210938 24.5625 C 35.773438 24.992188 36.316406 25.453125 36.835938 25.933594 C 37.351562 26.417969 37.847656 26.925781 38.316406 27.460938 C 38.785156 27.992188 39.226562 28.546875 39.640625 29.121094 C 40.050781 29.695312 40.4375 30.292969 40.792969 30.90625 L 57.042969 58.964844 C 57.398438 59.578125 57.726562 60.207031 58.019531 60.851562 C 58.3125 61.496094 58.574219 62.152344 58.800781 62.824219 C 59.03125 63.492188 59.226562 64.171875 59.386719 64.863281 C 59.546875 65.550781 59.675781 66.25 59.769531 66.949219 C 59.863281 67.652344 59.921875 68.355469 59.945312 69.0625 C 59.96875 69.773438 59.957031 70.480469 59.910156 71.183594 C 59.863281 71.890625 59.78125 72.59375 59.667969 73.292969 C 59.550781 73.992188 59.402344 74.683594 59.214844 75.367188 C 59.03125 76.050781 58.816406 76.722656 58.566406 77.386719 C 58.316406 78.046875 58.03125 78.695312 57.71875 79.332031 C 57.402344 79.96875 57.058594 80.585938 56.683594 81.1875 C 56.308594 81.789062 55.902344 82.367188 55.472656 82.929688 C 55.039062 83.492188 54.578125 84.03125 54.09375 84.546875 C 53.605469 85.0625 53.097656 85.554688 52.5625 86.023438 C 52.027344 86.488281 51.472656 86.929688 50.894531 87.339844 C 50.316406 87.753906 49.71875 88.136719 49.105469 88.488281 C 48.488281 88.84375 47.855469 89.167969 47.210938 89.460938 C 46.5625 89.753906 45.902344 90.011719 45.230469 90.242188 C 44.554688 90.46875 43.875 90.664062 43.179688 90.824219 C 42.488281 90.984375 41.789062 91.109375 41.085938 91.203125 C 40.382812 91.296875 39.671875 91.355469 38.964844 91.378906 C 38.253906 91.402344 37.542969 91.390625 36.832031 91.34375 C 36.125 91.296875 35.417969 91.214844 34.71875 91.101562 C 34.015625 90.984375 33.324219 90.835938 32.636719 90.652344 C 31.949219 90.46875 31.273438 90.253906 30.609375 90.003906 C 29.941406 89.753906 29.292969 89.472656 28.652344 89.160156 C 28.015625 88.847656 27.394531 88.503906 26.792969 88.128906 C 26.1875 87.757812 25.605469 87.355469 25.039062 86.921875 C 24.476562 86.492188 23.9375 86.035156 23.417969 85.550781 C 22.898438 85.066406 22.40625 84.558594 21.9375 84.027344 C 21.46875 83.492188 21.027344 82.941406 20.613281 82.363281 C 20.199219 81.789062 19.8125 81.195312 19.457031 80.582031 L 3.207031 52.511719 C 2.851562 51.898438 2.527344 51.269531 2.234375 50.625 C 1.9375 49.980469 1.679688 49.324219 1.449219 48.652344 C 1.21875 47.980469 1.023438 47.300781 0.863281 46.613281 C 0.703125 45.921875 0.574219 45.226562 0.480469 44.527344 C 0.390625 43.824219 0.332031 43.117188 0.308594 42.410156 C 0.285156 41.703125 0.296875 40.996094 0.339844 40.289062 C 0.386719 39.585938 0.46875 38.882812 0.585938 38.183594 C 0.699219 37.484375 0.851562 36.792969 1.035156 36.109375 C 1.21875 35.425781 1.433594 34.753906 1.6875 34.089844 C 1.9375 33.425781 2.21875 32.777344 2.53125 32.144531 C 2.847656 31.507812 3.191406 30.890625 3.566406 30.289062 C 3.941406 29.6875 4.347656 29.105469 4.78125 28.546875 C 5.210938 27.984375 5.671875 27.445312 6.15625 26.929688 C 6.644531 26.410156 7.152344 25.917969 7.6875 25.453125 C 8.222656 24.988281 8.777344 24.546875 9.355469 24.132812 C 9.933594 23.722656 10.53125 23.339844 11.148438 22.984375 Z M 11.148438 22.996094 " fill-opacity="1" fill-rule="evenodd"/></g><g clip-path="url(#id4)"><path fill="#ffffff" d="M 79.046875 3.953125 C 78.429688 3.597656 77.796875 3.273438 77.152344 2.980469 C 76.503906 2.691406 75.84375 2.429688 75.171875 2.203125 C 74.496094 1.972656 73.816406 1.78125 73.121094 1.617188 C 72.429688 1.457031 71.730469 1.332031 71.027344 1.238281 C 70.324219 1.144531 69.613281 1.085938 68.90625 1.066406 C 68.195312 1.042969 67.484375 1.050781 66.773438 1.097656 C 66.066406 1.144531 65.359375 1.226562 64.660156 1.339844 C 63.957031 1.457031 63.265625 1.605469 62.578125 1.789062 C 61.890625 1.972656 61.214844 2.1875 60.550781 2.4375 C 59.882812 2.6875 59.234375 2.96875 58.59375 3.28125 C 57.957031 3.59375 57.335938 3.9375 56.734375 4.3125 C 56.128906 4.683594 55.546875 5.085938 54.984375 5.519531 C 54.417969 5.949219 53.878906 6.40625 53.359375 6.890625 C 52.839844 7.375 52.347656 7.882812 51.878906 8.414062 C 51.410156 8.949219 50.96875 9.503906 50.554688 10.078125 C 50.140625 10.652344 49.753906 11.246094 49.398438 11.859375 L 22.105469 58.964844 C 21.75 59.578125 21.425781 60.207031 21.132812 60.851562 C 20.839844 61.496094 20.578125 62.152344 20.351562 62.824219 C 20.121094 63.492188 19.925781 64.175781 19.765625 64.863281 C 19.605469 65.550781 19.476562 66.25 19.382812 66.949219 C 19.292969 67.652344 19.234375 68.355469 19.210938 69.0625 C 19.1875 69.769531 19.199219 70.476562 19.246094 71.183594 C 19.292969 71.890625 19.371094 72.59375 19.488281 73.292969 C 19.605469 73.988281 19.753906 74.679688 19.9375 75.363281 C 20.121094 76.046875 20.339844 76.722656 20.589844 77.382812 C 20.839844 78.046875 21.121094 78.695312 21.433594 79.332031 C 21.75 79.964844 22.09375 80.582031 22.46875 81.183594 C 22.84375 81.785156 23.25 82.367188 23.679688 82.929688 C 24.113281 83.492188 24.574219 84.03125 25.058594 84.546875 C 25.542969 85.0625 26.054688 85.554688 26.589844 86.019531 C 27.121094 86.488281 27.679688 86.929688 28.257812 87.339844 C 28.835938 87.753906 29.429688 88.136719 30.046875 88.488281 C 30.660156 88.84375 31.292969 89.167969 31.941406 89.460938 C 32.585938 89.75 33.246094 90.011719 33.921875 90.238281 C 34.59375 90.464844 35.277344 90.660156 35.96875 90.820312 C 36.660156 90.980469 37.359375 91.109375 38.0625 91.199219 C 38.769531 91.292969 39.476562 91.351562 40.1875 91.375 C 40.898438 91.398438 41.605469 91.386719 42.316406 91.339844 C 43.023438 91.292969 43.730469 91.210938 44.429688 91.097656 C 45.132812 90.980469 45.828125 90.832031 46.511719 90.648438 C 47.199219 90.464844 47.875 90.25 48.539062 90 C 49.207031 89.75 49.855469 89.46875 50.496094 89.15625 C 51.132812 88.84375 51.753906 88.5 52.355469 88.128906 C 52.960938 87.753906 53.542969 87.351562 54.105469 86.921875 C 54.671875 86.488281 55.210938 86.03125 55.730469 85.546875 C 56.25 85.066406 56.742188 84.558594 57.210938 84.023438 C 57.679688 83.492188 58.121094 82.9375 58.535156 82.363281 C 58.949219 81.789062 59.335938 81.195312 59.691406 80.582031 L 86.984375 33.46875 C 87.34375 32.855469 87.667969 32.226562 87.960938 31.582031 C 88.253906 30.9375 88.515625 30.277344 88.746094 29.609375 C 88.972656 28.9375 89.167969 28.257812 89.332031 27.570312 C 89.492188 26.878906 89.621094 26.183594 89.714844 25.480469 C 89.808594 24.78125 89.867188 24.074219 89.890625 23.367188 C 89.914062 22.660156 89.902344 21.953125 89.855469 21.246094 C 89.808594 20.539062 89.726562 19.835938 89.613281 19.136719 C 89.496094 18.441406 89.347656 17.75 89.164062 17.066406 C 88.980469 16.378906 88.761719 15.707031 88.511719 15.042969 C 88.261719 14.382812 87.976562 13.734375 87.664062 13.097656 C 87.347656 12.464844 87.003906 11.84375 86.628906 11.242188 C 86.253906 10.644531 85.847656 10.0625 85.414062 9.5 C 84.984375 8.9375 84.523438 8.398438 84.035156 7.882812 C 83.550781 7.367188 83.039062 6.875 82.503906 6.40625 C 81.972656 5.941406 81.414062 5.503906 80.835938 5.089844 C 80.257812 4.679688 79.660156 4.296875 79.046875 3.941406 Z M 79.046875 3.953125 " fill-opacity="1" fill-rule="evenodd"/></g><g clip-path="url(#id5)"><path fill="#de5d1d" d="M 135.679688 3.953125 C 135.0625 3.597656 134.429688 3.273438 133.785156 2.980469 C 133.136719 2.691406 132.476562 2.429688 131.804688 2.203125 C 131.128906 1.972656 130.449219 1.78125 129.753906 1.617188 C 129.0625 1.457031 128.363281 1.332031 127.660156 1.238281 C 126.957031 1.144531 126.25 1.085938 125.539062 1.066406 C 124.828125 1.042969 124.117188 1.050781 123.40625 1.097656 C 122.699219 1.144531 121.992188 1.226562 121.292969 1.339844 C 120.589844 1.457031 119.898438 1.605469 119.210938 1.789062 C 118.523438 1.972656 117.847656 2.1875 117.183594 2.4375 C 116.515625 2.6875 115.867188 2.96875 115.226562 3.28125 C 114.589844 3.59375 113.96875 3.9375 113.367188 4.3125 C 112.761719 4.683594 112.179688 5.085938 111.617188 5.519531 C 111.050781 5.949219 110.511719 6.40625 109.992188 6.890625 C 109.472656 7.375 108.980469 7.882812 108.511719 8.414062 C 108.042969 8.949219 107.601562 9.503906 107.1875 10.078125 C 106.773438 10.652344 106.386719 11.246094 106.03125 11.859375 L 78.738281 58.964844 C 78.382812 59.578125 78.058594 60.207031 77.765625 60.851562 C 77.472656 61.496094 77.210938 62.152344 76.980469 62.824219 C 76.753906 63.492188 76.558594 64.171875 76.394531 64.863281 C 76.234375 65.550781 76.105469 66.25 76.011719 66.949219 C 75.921875 67.652344 75.863281 68.355469 75.839844 69.0625 C 75.816406 69.773438 75.828125 70.480469 75.875 71.183594 C 75.917969 71.890625 76 72.59375 76.117188 73.292969 C 76.230469 73.992188 76.382812 74.683594 76.566406 75.367188 C 76.75 76.050781 76.96875 76.722656 77.21875 77.386719 C 77.46875 78.046875 77.75 78.695312 78.0625 79.332031 C 78.378906 79.96875 78.722656 80.585938 79.097656 81.1875 C 79.472656 81.789062 79.878906 82.367188 80.3125 82.929688 C 80.742188 83.492188 81.203125 84.03125 81.6875 84.546875 C 82.175781 85.0625 82.6875 85.554688 83.21875 86.023438 C 83.753906 86.488281 84.3125 86.929688 84.886719 87.339844 C 85.464844 87.753906 86.0625 88.136719 86.679688 88.488281 C 87.292969 88.84375 87.925781 89.167969 88.574219 89.460938 C 89.21875 89.753906 89.878906 90.011719 90.554688 90.242188 C 91.226562 90.46875 91.910156 90.664062 92.601562 90.824219 C 93.292969 90.984375 93.992188 91.109375 94.695312 91.203125 C 95.402344 91.296875 96.109375 91.355469 96.820312 91.378906 C 97.53125 91.402344 98.238281 91.390625 98.949219 91.34375 C 99.660156 91.296875 100.363281 91.214844 101.066406 91.101562 C 101.765625 90.984375 102.460938 90.835938 103.148438 90.652344 C 103.832031 90.46875 104.507812 90.253906 105.175781 90.003906 C 105.839844 89.753906 106.492188 89.472656 107.128906 89.160156 C 107.765625 88.847656 108.386719 88.503906 108.992188 88.128906 C 109.59375 87.757812 110.179688 87.355469 110.742188 86.921875 C 111.304688 86.492188 111.847656 86.035156 112.367188 85.550781 C 112.882812 85.066406 113.378906 84.558594 113.847656 84.027344 C 114.316406 83.492188 114.757812 82.941406 115.171875 82.363281 C 115.585938 81.789062 115.96875 81.195312 116.324219 80.582031 L 143.628906 33.476562 C 143.984375 32.863281 144.308594 32.234375 144.601562 31.589844 C 144.898438 30.945312 145.15625 30.289062 145.386719 29.617188 C 145.617188 28.949219 145.8125 28.269531 145.972656 27.578125 C 146.132812 26.890625 146.261719 26.195312 146.355469 25.492188 C 146.445312 24.789062 146.503906 24.085938 146.527344 23.378906 C 146.550781 22.671875 146.539062 21.964844 146.496094 21.257812 C 146.449219 20.550781 146.367188 19.847656 146.25 19.148438 C 146.136719 18.453125 145.984375 17.761719 145.800781 17.078125 C 145.617188 16.390625 145.402344 15.71875 145.148438 15.054688 C 144.898438 14.394531 144.617188 13.746094 144.304688 13.109375 C 143.988281 12.476562 143.644531 11.855469 143.269531 11.257812 C 142.894531 10.65625 142.488281 10.074219 142.054688 9.511719 C 141.625 8.949219 141.164062 8.410156 140.679688 7.894531 C 140.191406 7.378906 139.683594 6.886719 139.148438 6.417969 C 138.613281 5.953125 138.058594 5.511719 137.480469 5.101562 C 136.902344 4.6875 136.304688 4.304688 135.6875 3.953125 Z M 135.679688 3.953125 " fill-opacity="1" fill-rule="evenodd"/></g><g clip-path="url(#id6)"><path fill="#de5d1d" d="M 129.292969 72.242188 C 129.292969 71.628906 129.324219 71.019531 129.382812 70.410156 C 129.445312 69.800781 129.535156 69.195312 129.652344 68.597656 C 129.773438 67.996094 129.921875 67.40625 130.101562 66.820312 C 130.28125 66.234375 130.484375 65.660156 130.722656 65.09375 C 130.957031 64.527344 131.21875 63.976562 131.507812 63.4375 C 131.796875 62.898438 132.113281 62.375 132.453125 61.867188 C 132.796875 61.355469 133.160156 60.867188 133.550781 60.394531 C 133.941406 59.921875 134.351562 59.46875 134.785156 59.035156 C 135.21875 58.601562 135.675781 58.191406 136.148438 57.804688 C 136.625 57.417969 137.117188 57.050781 137.628906 56.710938 C 138.136719 56.375 138.664062 56.058594 139.207031 55.769531 C 139.746094 55.480469 140.300781 55.222656 140.867188 54.988281 C 141.4375 54.753906 142.015625 54.546875 142.601562 54.371094 C 143.1875 54.191406 143.785156 54.042969 144.386719 53.925781 C 144.988281 53.804688 145.59375 53.714844 146.207031 53.65625 C 146.816406 53.59375 147.429688 53.566406 148.042969 53.566406 C 148.660156 53.566406 149.269531 53.59375 149.882812 53.65625 C 150.492188 53.714844 151.101562 53.804688 151.703125 53.925781 C 152.304688 54.042969 152.898438 54.191406 153.488281 54.371094 C 154.074219 54.546875 154.652344 54.753906 155.21875 54.988281 C 155.789062 55.222656 156.34375 55.480469 156.882812 55.769531 C 157.425781 56.058594 157.949219 56.375 158.460938 56.710938 C 158.972656 57.050781 159.464844 57.417969 159.941406 57.804688 C 160.414062 58.191406 160.867188 58.601562 161.304688 59.035156 C 161.738281 59.46875 162.148438 59.921875 162.539062 60.394531 C 162.929688 60.867188 163.292969 61.355469 163.636719 61.867188 C 163.976562 62.375 164.292969 62.898438 164.582031 63.4375 C 164.871094 63.976562 165.132812 64.527344 165.367188 65.09375 C 165.601562 65.660156 165.808594 66.234375 165.988281 66.820312 C 166.164062 67.40625 166.316406 67.996094 166.433594 68.597656 C 166.554688 69.195312 166.644531 69.800781 166.703125 70.410156 C 166.765625 71.019531 166.796875 71.628906 166.796875 72.242188 C 166.796875 72.851562 166.765625 73.460938 166.703125 74.070312 C 166.644531 74.679688 166.554688 75.285156 166.433594 75.882812 C 166.316406 76.484375 166.164062 77.078125 165.988281 77.660156 C 165.808594 78.246094 165.601562 78.820312 165.367188 79.386719 C 165.132812 79.953125 164.871094 80.503906 164.582031 81.042969 C 164.292969 81.582031 163.976562 82.105469 163.636719 82.617188 C 163.292969 83.125 162.929688 83.613281 162.539062 84.085938 C 162.148438 84.558594 161.738281 85.011719 161.304688 85.445312 C 160.867188 85.878906 160.414062 86.289062 159.941406 86.675781 C 159.464844 87.0625 158.972656 87.429688 158.460938 87.769531 C 157.949219 88.109375 157.425781 88.421875 156.882812 88.710938 C 156.34375 89 155.789062 89.261719 155.21875 89.492188 C 154.652344 89.726562 154.074219 89.933594 153.488281 90.109375 C 152.898438 90.289062 152.304688 90.4375 151.703125 90.554688 C 151.101562 90.675781 150.492188 90.765625 149.882812 90.824219 C 149.269531 90.886719 148.660156 90.914062 148.042969 90.914062 C 147.429688 90.914062 146.816406 90.886719 146.207031 90.824219 C 145.59375 90.765625 144.988281 90.675781 144.386719 90.554688 C 143.785156 90.4375 143.1875 90.289062 142.601562 90.109375 C 142.015625 89.933594 141.4375 89.726562 140.867188 89.492188 C 140.300781 89.261719 139.746094 89 139.207031 88.710938 C 138.664062 88.421875 138.136719 88.109375 137.628906 87.769531 C 137.117188 87.429688 136.625 87.0625 136.148438 86.675781 C 135.675781 86.289062 135.21875 85.878906 134.785156 85.445312 C 134.351562 85.011719 133.941406 84.558594 133.550781 84.085938 C 133.160156 83.613281 132.796875 83.125 132.453125 82.617188 C 132.113281 82.105469 131.796875 81.582031 131.507812 81.042969 C 131.21875 80.503906 130.957031 79.953125 130.722656 79.386719 C 130.484375 78.820312 130.28125 78.246094 130.101562 77.660156 C 129.921875 77.078125 129.773438 76.484375 129.652344 75.882812 C 129.535156 75.285156 129.445312 74.679688 129.382812 74.070312 C 129.324219 73.460938 129.292969 72.851562 129.292969 72.242188 Z M 129.292969 72.242188 " fill-opacity="1" fill-rule="evenodd"/></g></g></g></g><g fill="#ffffff" fill-opacity="1"><g transform="translate(44.123549, 244.91474)"><g><path d="M 7.734375 0 L 4.78125 -33.828125 L 11.40625 -33.828125 L 12.765625 -7.15625 L 24.59375 -33.828125 L 31.515625 -33.828125 L 33.6875 -7.203125 L 44.46875 -33.828125 L 51.171875 -33.828125 L 36 0 L 28.65625 0 L 26.390625 -25.03125 L 15.03125 0 Z M 7.734375 0 "/></g></g></g><g fill="#ffffff" fill-opacity="1"><g transform="translate(90.796672, 244.91474)"><g><path d="M 9.078125 0.578125 C 6.378906 0.578125 4.398438 -0.0390625 3.140625 -1.28125 C 1.878906 -2.519531 1.25 -4.007812 1.25 -5.75 C 1.25 -8.332031 2.328125 -10.378906 4.484375 -11.890625 C 6.648438 -13.398438 9.535156 -14.15625 13.140625 -14.15625 L 19.234375 -14.15625 L 19.328125 -14.734375 C 19.359375 -14.929688 19.378906 -15.132812 19.390625 -15.34375 C 19.410156 -15.550781 19.421875 -15.738281 19.421875 -15.90625 C 19.421875 -17.125 19.035156 -18.03125 18.265625 -18.625 C 17.492188 -19.226562 16.507812 -19.53125 15.3125 -19.53125 C 14.0625 -19.53125 12.910156 -19.226562 11.859375 -18.625 C 10.816406 -18.03125 10.070312 -17.15625 9.625 -16 L 3.578125 -16 C 4.054688 -17.738281 4.898438 -19.25 6.109375 -20.53125 C 7.316406 -21.820312 8.789062 -22.8125 10.53125 -23.5 C 12.269531 -24.195312 14.15625 -24.546875 16.1875 -24.546875 C 19.15625 -24.546875 21.484375 -23.882812 23.171875 -22.5625 C 24.859375 -21.25 25.703125 -19.347656 25.703125 -16.859375 C 25.703125 -16.546875 25.6875 -16.203125 25.65625 -15.828125 C 25.625 -15.453125 25.578125 -15.085938 25.515625 -14.734375 L 22.90625 0 L 17.390625 0 L 17.640625 -3.71875 C 16.703125 -2.5 15.53125 -1.476562 14.125 -0.65625 C 12.726562 0.164062 11.046875 0.578125 9.078125 0.578125 Z M 11.359375 -4.25 C 13.128906 -4.25 14.601562 -4.828125 15.78125 -5.984375 C 16.957031 -7.148438 17.816406 -8.585938 18.359375 -10.296875 L 13.140625 -10.296875 C 11.535156 -10.296875 10.265625 -9.972656 9.328125 -9.328125 C 8.390625 -8.679688 7.921875 -7.796875 7.921875 -6.671875 C 7.921875 -5.867188 8.234375 -5.265625 8.859375 -4.859375 C 9.492188 -4.453125 10.328125 -4.25 11.359375 -4.25 Z M 11.359375 -4.25 "/></g></g></g><g fill="#ffffff" fill-opacity="1"><g transform="translate(116.403833, 244.91474)"><g><path d="M 17.828125 10.625 L 20.203125 -3.4375 C 19.296875 -2.375 18.15625 -1.4375 16.78125 -0.625 C 15.414062 0.175781 13.738281 0.578125 11.75 0.578125 C 9.75 0.578125 8.039062 0.113281 6.625 -0.8125 C 5.207031 -1.75 4.109375 -3.023438 3.328125 -4.640625 C 2.554688 -6.253906 2.171875 -8.054688 2.171875 -10.046875 C 2.171875 -12.785156 2.773438 -15.25 3.984375 -17.4375 C 5.191406 -19.632812 6.816406 -21.367188 8.859375 -22.640625 C 10.910156 -23.910156 13.191406 -24.546875 15.703125 -24.546875 C 17.703125 -24.546875 19.3125 -24.179688 20.53125 -23.453125 C 21.757812 -22.734375 22.679688 -21.8125 23.296875 -20.6875 L 24.546875 -23.96875 L 30.0625 -23.96875 L 24.015625 10.625 Z M 14.109375 -4.828125 C 15.628906 -4.828125 16.972656 -5.222656 18.140625 -6.015625 C 19.316406 -6.804688 20.25 -7.859375 20.9375 -9.171875 C 21.632812 -10.492188 21.984375 -11.945312 21.984375 -13.53125 C 21.984375 -15.207031 21.484375 -16.5625 20.484375 -17.59375 C 19.492188 -18.625 18.128906 -19.140625 16.390625 -19.140625 C 14.867188 -19.140625 13.519531 -18.769531 12.34375 -18.03125 C 11.164062 -17.289062 10.238281 -16.289062 9.5625 -15.03125 C 8.882812 -13.769531 8.546875 -12.351562 8.546875 -10.78125 C 8.546875 -9.101562 9.035156 -7.691406 10.015625 -6.546875 C 11.003906 -5.398438 12.367188 -4.828125 14.109375 -4.828125 Z M 14.109375 -4.828125 "/></g></g></g><g fill="#ffffff" fill-opacity="1"><g transform="translate(145.393146, 244.91474)"><g><path d="M 9.078125 0.578125 C 6.378906 0.578125 4.398438 -0.0390625 3.140625 -1.28125 C 1.878906 -2.519531 1.25 -4.007812 1.25 -5.75 C 1.25 -8.332031 2.328125 -10.378906 4.484375 -11.890625 C 6.648438 -13.398438 9.535156 -14.15625 13.140625 -14.15625 L 19.234375 -14.15625 L 19.328125 -14.734375 C 19.359375 -14.929688 19.378906 -15.132812 19.390625 -15.34375 C 19.410156 -15.550781 19.421875 -15.738281 19.421875 -15.90625 C 19.421875 -17.125 19.035156 -18.03125 18.265625 -18.625 C 17.492188 -19.226562 16.507812 -19.53125 15.3125 -19.53125 C 14.0625 -19.53125 12.910156 -19.226562 11.859375 -18.625 C 10.816406 -18.03125 10.070312 -17.15625 9.625 -16 L 3.578125 -16 C 4.054688 -17.738281 4.898438 -19.25 6.109375 -20.53125 C 7.316406 -21.820312 8.789062 -22.8125 10.53125 -23.5 C 12.269531 -24.195312 14.15625 -24.546875 16.1875 -24.546875 C 19.15625 -24.546875 21.484375 -23.882812 23.171875 -22.5625 C 24.859375 -21.25 25.703125 -19.347656 25.703125 -16.859375 C 25.703125 -16.546875 25.6875 -16.203125 25.65625 -15.828125 C 25.625 -15.453125 25.578125 -15.085938 25.515625 -14.734375 L 22.90625 0 L 17.390625 0 L 17.640625 -3.71875 C 16.703125 -2.5 15.53125 -1.476562 14.125 -0.65625 C 12.726562 0.164062 11.046875 0.578125 9.078125 0.578125 Z M 11.359375 -4.25 C 13.128906 -4.25 14.601562 -4.828125 15.78125 -5.984375 C 16.957031 -7.148438 17.816406 -8.585938 18.359375 -10.296875 L 13.140625 -10.296875 C 11.535156 -10.296875 10.265625 -9.972656 9.328125 -9.328125 C 8.390625 -8.679688 7.921875 -7.796875 7.921875 -6.671875 C 7.921875 -5.867188 8.234375 -5.265625 8.859375 -4.859375 C 9.492188 -4.453125 10.328125 -4.25 11.359375 -4.25 Z M 11.359375 -4.25 "/></g></g></g><g fill="#ffffff" fill-opacity="1"><g transform="translate(171.000306, 244.91474)"><g><path d="M 1.0625 0 L 5.265625 -23.96875 L 10.828125 -23.96875 L 10.625 -19.625 C 11.757812 -21.101562 13.15625 -22.289062 14.8125 -23.1875 C 16.46875 -24.09375 18.3125 -24.546875 20.34375 -24.546875 L 19.1875 -18.03125 L 17.5 -18.03125 C 15.4375 -18.03125 13.660156 -17.550781 12.171875 -16.59375 C 10.691406 -15.644531 9.726562 -13.898438 9.28125 -11.359375 L 7.25 0 Z M 1.0625 0 "/></g></g></g><g fill="#ffffff" fill-opacity="1"><g transform="translate(188.297043, 244.91474)"><g/></g></g><g fill="#ffffff" fill-opacity="1"><g transform="translate(198.587902, 244.91474)"><g><path d="M 1.203125 0 L 7.15625 -33.828125 L 13.34375 -33.828125 L 10.96875 -20.15625 L 25.859375 -33.828125 L 33.484375 -33.828125 L 18.65625 -20.390625 L 27.890625 0 L 20.546875 0 L 13.53125 -15.796875 L 9.515625 -12.125 L 7.390625 0 Z M 1.203125 0 "/></g></g></g><g fill="#ffffff" fill-opacity="1"><g transform="translate(227.673848, 244.91474)"><g><path d="M 9.90625 -27.546875 C 8.78125 -27.546875 7.851562 -27.890625 7.125 -28.578125 C 6.40625 -29.273438 6.046875 -30.140625 6.046875 -31.171875 C 6.046875 -32.203125 6.40625 -33.0625 7.125 -33.75 C 7.851562 -34.445312 8.78125 -34.796875 9.90625 -34.796875 C 11.03125 -34.796875 11.957031 -34.445312 12.6875 -33.75 C 13.414062 -33.0625 13.78125 -32.203125 13.78125 -31.171875 C 13.78125 -30.140625 13.414062 -29.273438 12.6875 -28.578125 C 11.957031 -27.890625 11.03125 -27.546875 9.90625 -27.546875 Z M 1.3125 0 L 5.515625 -23.96875 L 11.703125 -23.96875 L 7.484375 0 Z M 1.3125 0 "/></g></g></g><g fill="#ffffff" fill-opacity="1"><g transform="translate(238.544488, 244.91474)"><g><path d="M 2.078125 10.625 L 9.765625 -1.59375 L 8.3125 -1.59375 L 2.953125 -23.96875 L 9.5625 -23.96875 L 13.4375 -7.109375 L 23.390625 -23.96875 L 29.96875 -23.96875 L 8.609375 10.625 Z M 2.078125 10.625 "/></g></g></g><g fill="#ffffff" fill-opacity="1"><g transform="translate(264.973037, 244.91474)"><g><path d="M 9.078125 0.578125 C 6.378906 0.578125 4.398438 -0.0390625 3.140625 -1.28125 C 1.878906 -2.519531 1.25 -4.007812 1.25 -5.75 C 1.25 -8.332031 2.328125 -10.378906 4.484375 -11.890625 C 6.648438 -13.398438 9.535156 -14.15625 13.140625 -14.15625 L 19.234375 -14.15625 L 19.328125 -14.734375 C 19.359375 -14.929688 19.378906 -15.132812 19.390625 -15.34375 C 19.410156 -15.550781 19.421875 -15.738281 19.421875 -15.90625 C 19.421875 -17.125 19.035156 -18.03125 18.265625 -18.625 C 17.492188 -19.226562 16.507812 -19.53125 15.3125 -19.53125 C 14.0625 -19.53125 12.910156 -19.226562 11.859375 -18.625 C 10.816406 -18.03125 10.070312 -17.15625 9.625 -16 L 3.578125 -16 C 4.054688 -17.738281 4.898438 -19.25 6.109375 -20.53125 C 7.316406 -21.820312 8.789062 -22.8125 10.53125 -23.5 C 12.269531 -24.195312 14.15625 -24.546875 16.1875 -24.546875 C 19.15625 -24.546875 21.484375 -23.882812 23.171875 -22.5625 C 24.859375 -21.25 25.703125 -19.347656 25.703125 -16.859375 C 25.703125 -16.546875 25.6875 -16.203125 25.65625 -15.828125 C 25.625 -15.453125 25.578125 -15.085938 25.515625 -14.734375 L 22.90625 0 L 17.390625 0 L 17.640625 -3.71875 C 16.703125 -2.5 15.53125 -1.476562 14.125 -0.65625 C 12.726562 0.164062 11.046875 0.578125 9.078125 0.578125 Z M 11.359375 -4.25 C 13.128906 -4.25 14.601562 -4.828125 15.78125 -5.984375 C 16.957031 -7.148438 17.816406 -8.585938 18.359375 -10.296875 L 13.140625 -10.296875 C 11.535156 -10.296875 10.265625 -9.972656 9.328125 -9.328125 C 8.390625 -8.679688 7.921875 -7.796875 7.921875 -6.671875 C 7.921875 -5.867188 8.234375 -5.265625 8.859375 -4.859375 C 9.492188 -4.453125 10.328125 -4.25 11.359375 -4.25 Z M 11.359375 -4.25 "/></g></g></g><g fill="#ffffff" fill-opacity="1"><g transform="translate(290.580197, 244.91474)"><g><path d="M 1.0625 0 L 5.265625 -23.96875 L 10.734375 -23.96875 L 10.578125 -20.015625 C 11.578125 -21.398438 12.832031 -22.5 14.34375 -23.3125 C 15.863281 -24.132812 17.554688 -24.546875 19.421875 -24.546875 C 21.910156 -24.546875 23.835938 -23.859375 25.203125 -22.484375 C 26.566406 -21.117188 27.25 -19.148438 27.25 -16.578125 C 27.25 -15.671875 27.15625 -14.65625 26.96875 -13.53125 L 24.546875 0 L 18.359375 0 L 20.6875 -12.953125 C 20.71875 -13.335938 20.753906 -13.695312 20.796875 -14.03125 C 20.847656 -14.375 20.875 -14.691406 20.875 -14.984375 C 20.875 -17.878906 19.441406 -19.328125 16.578125 -19.328125 C 14.867188 -19.328125 13.351562 -18.722656 12.03125 -17.515625 C 10.707031 -16.304688 9.851562 -14.65625 9.46875 -12.5625 L 7.25 0 Z M 1.0625 0 "/></g></g></g><g fill="#ffffff" fill-opacity="1"><g transform="translate(317.830111, 244.91474)"><g><path d="M 9.90625 -27.546875 C 8.78125 -27.546875 7.851562 -27.890625 7.125 -28.578125 C 6.40625 -29.273438 6.046875 -30.140625 6.046875 -31.171875 C 6.046875 -32.203125 6.40625 -33.0625 7.125 -33.75 C 7.851562 -34.445312 8.78125 -34.796875 9.90625 -34.796875 C 11.03125 -34.796875 11.957031 -34.445312 12.6875 -33.75 C 13.414062 -33.0625 13.78125 -32.203125 13.78125 -31.171875 C 13.78125 -30.140625 13.414062 -29.273438 12.6875 -28.578125 C 11.957031 -27.890625 11.03125 -27.546875 9.90625 -27.546875 Z M 1.3125 0 L 5.515625 -23.96875 L 11.703125 -23.96875 L 7.484375 0 Z M 1.3125 0 "/></g></g></g><g fill="#de5d1d" fill-opacity="1"><g transform="translate(94.599278, 269.41012)"><g><path d="M 2.515625 -5.875 L 2.515625 -3.96875 L 5.859375 -3.96875 L 5.859375 -2.625 L 2.515625 -2.625 L 2.515625 0 L 0.859375 0 L 0.859375 -7.203125 L 6.296875 -7.203125 L 6.296875 -5.875 Z M 2.515625 -5.875 "/></g></g></g><g fill="#de5d1d" fill-opacity="1"><g transform="translate(104.056074, 269.41012)"><g><path d="M 5.453125 0 L 4.0625 -2.015625 L 2.515625 -2.015625 L 2.515625 0 L 0.859375 0 L 0.859375 -7.203125 L 3.96875 -7.203125 C 4.613281 -7.203125 5.171875 -7.09375 5.640625 -6.875 C 6.109375 -6.664062 6.46875 -6.363281 6.71875 -5.96875 C 6.976562 -5.582031 7.109375 -5.125 7.109375 -4.59375 C 7.109375 -4.0625 6.976562 -3.597656 6.71875 -3.203125 C 6.457031 -2.816406 6.09375 -2.519531 5.625 -2.3125 L 7.234375 0 Z M 5.421875 -4.59375 C 5.421875 -5 5.289062 -5.304688 5.03125 -5.515625 C 4.769531 -5.734375 4.382812 -5.84375 3.875 -5.84375 L 2.515625 -5.84375 L 2.515625 -3.34375 L 3.875 -3.34375 C 4.382812 -3.34375 4.769531 -3.453125 5.03125 -3.671875 C 5.289062 -3.890625 5.421875 -4.195312 5.421875 -4.59375 Z M 5.421875 -4.59375 "/></g></g></g><g fill="#de5d1d" fill-opacity="1"><g transform="translate(114.500621, 269.41012)"><g><path d="M 4.34375 0.125 C 3.59375 0.125 2.914062 -0.0351562 2.3125 -0.359375 C 1.71875 -0.679688 1.25 -1.125 0.90625 -1.6875 C 0.570312 -2.257812 0.40625 -2.898438 0.40625 -3.609375 C 0.40625 -4.316406 0.570312 -4.953125 0.90625 -5.515625 C 1.25 -6.078125 1.71875 -6.519531 2.3125 -6.84375 C 2.914062 -7.164062 3.59375 -7.328125 4.34375 -7.328125 C 5.09375 -7.328125 5.765625 -7.164062 6.359375 -6.84375 C 6.960938 -6.519531 7.429688 -6.078125 7.765625 -5.515625 C 8.109375 -4.953125 8.28125 -4.316406 8.28125 -3.609375 C 8.28125 -2.898438 8.109375 -2.257812 7.765625 -1.6875 C 7.429688 -1.125 6.960938 -0.679688 6.359375 -0.359375 C 5.765625 -0.0351562 5.09375 0.125 4.34375 0.125 Z M 4.34375 -1.296875 C 4.769531 -1.296875 5.15625 -1.394531 5.5 -1.59375 C 5.84375 -1.789062 6.109375 -2.0625 6.296875 -2.40625 C 6.492188 -2.757812 6.59375 -3.160156 6.59375 -3.609375 C 6.59375 -4.046875 6.492188 -4.441406 6.296875 -4.796875 C 6.109375 -5.148438 5.84375 -5.421875 5.5 -5.609375 C 5.15625 -5.804688 4.769531 -5.90625 4.34375 -5.90625 C 3.914062 -5.90625 3.53125 -5.804688 3.1875 -5.609375 C 2.84375 -5.421875 2.570312 -5.148438 2.375 -4.796875 C 2.1875 -4.441406 2.09375 -4.046875 2.09375 -3.609375 C 2.09375 -3.160156 2.1875 -2.757812 2.375 -2.40625 C 2.570312 -2.0625 2.84375 -1.789062 3.1875 -1.59375 C 3.53125 -1.394531 3.914062 -1.296875 4.34375 -1.296875 Z M 4.34375 -1.296875 "/></g></g></g><g fill="#de5d1d" fill-opacity="1"><g transform="translate(126.066689, 269.41012)"><g><path d="M 7.46875 -7.203125 L 7.46875 0 L 6.09375 0 L 2.5 -4.375 L 2.5 0 L 0.859375 0 L 0.859375 -7.203125 L 2.234375 -7.203125 L 5.8125 -2.828125 L 5.8125 -7.203125 Z M 7.46875 -7.203125 "/></g></g></g><g fill="#de5d1d" fill-opacity="1"><g transform="translate(137.262346, 269.41012)"><g><path d="M 2.34375 -5.84375 L 0.046875 -5.84375 L 0.046875 -7.203125 L 6.328125 -7.203125 L 6.328125 -5.84375 L 4.015625 -5.84375 L 4.015625 0 L 2.34375 0 Z M 2.34375 -5.84375 "/></g></g></g><g fill="#de5d1d" fill-opacity="1"><g transform="translate(146.503066, 269.41012)"><g/></g></g><g fill="#de5d1d" fill-opacity="1"><g transform="translate(152.296929, 269.41012)"><g><path d="M 6.4375 -1.34375 L 6.4375 0 L 0.859375 0 L 0.859375 -7.203125 L 6.296875 -7.203125 L 6.296875 -5.875 L 2.515625 -5.875 L 2.515625 -4.296875 L 5.859375 -4.296875 L 5.859375 -3 L 2.515625 -3 L 2.515625 -1.34375 Z M 6.4375 -1.34375 "/></g></g></g><g fill="#de5d1d" fill-opacity="1"><g transform="translate(162.082972, 269.41012)"><g><path d="M 7.46875 -7.203125 L 7.46875 0 L 6.09375 0 L 2.5 -4.375 L 2.5 0 L 0.859375 0 L 0.859375 -7.203125 L 2.234375 -7.203125 L 5.8125 -2.828125 L 5.8125 -7.203125 Z M 7.46875 -7.203125 "/></g></g></g><g fill="#de5d1d" fill-opacity="1"><g transform="translate(173.278629, 269.41012)"><g><path d="M 0.859375 -7.203125 L 4.125 -7.203125 C 4.90625 -7.203125 5.597656 -7.050781 6.203125 -6.75 C 6.804688 -6.457031 7.273438 -6.039062 7.609375 -5.5 C 7.941406 -4.957031 8.109375 -4.328125 8.109375 -3.609375 C 8.109375 -2.878906 7.941406 -2.242188 7.609375 -1.703125 C 7.273438 -1.160156 6.804688 -0.738281 6.203125 -0.4375 C 5.597656 -0.144531 4.90625 0 4.125 0 L 0.859375 0 Z M 4.046875 -1.375 C 4.765625 -1.375 5.335938 -1.570312 5.765625 -1.96875 C 6.203125 -2.375 6.421875 -2.921875 6.421875 -3.609375 C 6.421875 -4.296875 6.203125 -4.835938 5.765625 -5.234375 C 5.335938 -5.640625 4.765625 -5.84375 4.046875 -5.84375 L 2.515625 -5.84375 L 2.515625 -1.375 Z M 4.046875 -1.375 "/></g></g></g><g fill="#de5d1d" fill-opacity="1"><g transform="translate(184.659497, 269.41012)"><g/></g></g><g fill="#de5d1d" fill-opacity="1"><g transform="translate(190.45336, 269.41012)"><g><path d="M 0.859375 -7.203125 L 4.125 -7.203125 C 4.90625 -7.203125 5.597656 -7.050781 6.203125 -6.75 C 6.804688 -6.457031 7.273438 -6.039062 7.609375 -5.5 C 7.941406 -4.957031 8.109375 -4.328125 8.109375 -3.609375 C 8.109375 -2.878906 7.941406 -2.242188 7.609375 -1.703125 C 7.273438 -1.160156 6.804688 -0.738281 6.203125 -0.4375 C 5.597656 -0.144531 4.90625 0 4.125 0 L 0.859375 0 Z M 4.046875 -1.375 C 4.765625 -1.375 5.335938 -1.570312 5.765625 -1.96875 C 6.203125 -2.375 6.421875 -2.921875 6.421875 -3.609375 C 6.421875 -4.296875 6.203125 -4.835938 5.765625 -5.234375 C 5.335938 -5.640625 4.765625 -5.84375 4.046875 -5.84375 L 2.515625 -5.84375 L 2.515625 -1.375 Z M 4.046875 -1.375 "/></g></g></g><g fill="#de5d1d" fill-opacity="1"><g transform="translate(201.834234, 269.41012)"><g><path d="M 6.4375 -1.34375 L 6.4375 0 L 0.859375 0 L 0.859375 -7.203125 L 6.296875 -7.203125 L 6.296875 -5.875 L 2.515625 -5.875 L 2.515625 -4.296875 L 5.859375 -4.296875 L 5.859375 -3 L 2.515625 -3 L 2.515625 -1.34375 Z M 6.4375 -1.34375 "/></g></g></g><g fill="#de5d1d" fill-opacity="1"><g transform="translate(211.620282, 269.41012)"><g><path d="M 7.78125 -7.203125 L 4.671875 0 L 3.015625 0 L -0.09375 -7.203125 L 1.703125 -7.203125 L 3.90625 -2.0625 L 6.125 -7.203125 Z M 7.78125 -7.203125 "/></g></g></g><g fill="#de5d1d" fill-opacity="1"><g transform="translate(222.178005, 269.41012)"><g><path d="M 6.4375 -1.34375 L 6.4375 0 L 0.859375 0 L 0.859375 -7.203125 L 6.296875 -7.203125 L 6.296875 -5.875 L 2.515625 -5.875 L 2.515625 -4.296875 L 5.859375 -4.296875 L 5.859375 -3 L 2.515625 -3 L 2.515625 -1.34375 Z M 6.4375 -1.34375 "/></g></g></g><g fill="#de5d1d" fill-opacity="1"><g transform="translate(231.964054, 269.41012)"><g><path d="M 0.859375 -7.203125 L 2.515625 -7.203125 L 2.515625 -1.359375 L 6.140625 -1.359375 L 6.140625 0 L 0.859375 0 Z M 0.859375 -7.203125 "/></g></g></g><g fill="#de5d1d" fill-opacity="1"><g transform="translate(241.060733, 269.41012)"><g><path d="M 4.34375 0.125 C 3.59375 0.125 2.914062 -0.0351562 2.3125 -0.359375 C 1.71875 -0.679688 1.25 -1.125 0.90625 -1.6875 C 0.570312 -2.257812 0.40625 -2.898438 0.40625 -3.609375 C 0.40625 -4.316406 0.570312 -4.953125 0.90625 -5.515625 C 1.25 -6.078125 1.71875 -6.519531 2.3125 -6.84375 C 2.914062 -7.164062 3.59375 -7.328125 4.34375 -7.328125 C 5.09375 -7.328125 5.765625 -7.164062 6.359375 -6.84375 C 6.960938 -6.519531 7.429688 -6.078125 7.765625 -5.515625 C 8.109375 -4.953125 8.28125 -4.316406 8.28125 -3.609375 C 8.28125 -2.898438 8.109375 -2.257812 7.765625 -1.6875 C 7.429688 -1.125 6.960938 -0.679688 6.359375 -0.359375 C 5.765625 -0.0351562 5.09375 0.125 4.34375 0.125 Z M 4.34375 -1.296875 C 4.769531 -1.296875 5.15625 -1.394531 5.5 -1.59375 C 5.84375 -1.789062 6.109375 -2.0625 6.296875 -2.40625 C 6.492188 -2.757812 6.59375 -3.160156 6.59375 -3.609375 C 6.59375 -4.046875 6.492188 -4.441406 6.296875 -4.796875 C 6.109375 -5.148438 5.84375 -5.421875 5.5 -5.609375 C 5.15625 -5.804688 4.769531 -5.90625 4.34375 -5.90625 C 3.914062 -5.90625 3.53125 -5.804688 3.1875 -5.609375 C 2.84375 -5.421875 2.570312 -5.148438 2.375 -4.796875 C 2.1875 -4.441406 2.09375 -4.046875 2.09375 -3.609375 C 2.09375 -3.160156 2.1875 -2.757812 2.375 -2.40625 C 2.570312 -2.0625 2.84375 -1.789062 3.1875 -1.59375 C 3.53125 -1.394531 3.914062 -1.296875 4.34375 -1.296875 Z M 4.34375 -1.296875 "/></g></g></g><g fill="#de5d1d" fill-opacity="1"><g transform="translate(252.626795, 269.41012)"><g><path d="M 3.96875 -7.203125 C 4.613281 -7.203125 5.171875 -7.09375 5.640625 -6.875 C 6.109375 -6.664062 6.46875 -6.363281 6.71875 -5.96875 C 6.976562 -5.582031 7.109375 -5.125 7.109375 -4.59375 C 7.109375 -4.0625 6.976562 -3.597656 6.71875 -3.203125 C 6.46875 -2.804688 6.109375 -2.503906 5.640625 -2.296875 C 5.171875 -2.085938 4.613281 -1.984375 3.96875 -1.984375 L 2.515625 -1.984375 L 2.515625 0 L 0.859375 0 L 0.859375 -7.203125 Z M 3.875 -3.34375 C 4.382812 -3.34375 4.769531 -3.453125 5.03125 -3.671875 C 5.289062 -3.890625 5.421875 -4.195312 5.421875 -4.59375 C 5.421875 -5 5.289062 -5.304688 5.03125 -5.515625 C 4.769531 -5.734375 4.382812 -5.84375 3.875 -5.84375 L 2.515625 -5.84375 L 2.515625 -3.34375 Z M 3.875 -3.34375 "/></g></g></g><g fill="#de5d1d" fill-opacity="1"><g transform="translate(263.040483, 269.41012)"><g><path d="M 6.4375 -1.34375 L 6.4375 0 L 0.859375 0 L 0.859375 -7.203125 L 6.296875 -7.203125 L 6.296875 -5.875 L 2.515625 -5.875 L 2.515625 -4.296875 L 5.859375 -4.296875 L 5.859375 -3 L 2.515625 -3 L 2.515625 -1.34375 Z M 6.4375 -1.34375 "/></g></g></g><g fill="#de5d1d" fill-opacity="1"><g transform="translate(272.826531, 269.41012)"><g><path d="M 5.453125 0 L 4.0625 -2.015625 L 2.515625 -2.015625 L 2.515625 0 L 0.859375 0 L 0.859375 -7.203125 L 3.96875 -7.203125 C 4.613281 -7.203125 5.171875 -7.09375 5.640625 -6.875 C 6.109375 -6.664062 6.46875 -6.363281 6.71875 -5.96875 C 6.976562 -5.582031 7.109375 -5.125 7.109375 -4.59375 C 7.109375 -4.0625 6.976562 -3.597656 6.71875 -3.203125 C 6.457031 -2.816406 6.09375 -2.519531 5.625 -2.3125 L 7.234375 0 Z M 5.421875 -4.59375 C 5.421875 -5 5.289062 -5.304688 5.03125 -5.515625 C 4.769531 -5.734375 4.382812 -5.84375 3.875 -5.84375 L 2.515625 -5.84375 L 2.515625 -3.34375 L 3.875 -3.34375 C 4.382812 -3.34375 4.769531 -3.453125 5.03125 -3.671875 C 5.289062 -3.890625 5.421875 -4.195312 5.421875 -4.59375 Z M 5.421875 -4.59375 "/></g></g></g></svg>