<svg xmlns="http://www.w3.org/2000/svg" xmlns:xlink="http://www.w3.org/1999/xlink" width="1024" zoomAndPan="magnify" viewBox="0 0 768 767.999994" height="1024" preserveAspectRatio="xMidYMid meet" version="1.0"><defs><clipPath id="id1"><path d="M 11.886719 26.773438 L 755.886719 26.773438 L 755.886719 206 L 11.886719 206 Z M 11.886719 26.773438 " clip-rule="nonzero"/></clipPath><clipPath id="id2"><path d="M 11.886719 294 L 755.886719 294 L 755.886719 474 L 11.886719 474 Z M 11.886719 294 " clip-rule="nonzero"/></clipPath><clipPath id="id3"><path d="M 11.886719 562 L 755.886719 562 L 755.886719 741.523438 L 11.886719 741.523438 Z M 11.886719 562 " clip-rule="nonzero"/></clipPath></defs><g clip-path="url(#id1)"><path fill="#de5d1d" d="M 741.003906 26.773438 L 26.773438 26.773438 C 18.558594 26.773438 11.890625 33.441406 11.890625 41.664062 L 11.890625 190.570312 C 11.890625 198.789062 18.558594 205.460938 26.773438 205.460938 L 741.003906 205.460938 C 749.230469 205.460938 755.882812 198.789062 755.882812 190.570312 L 755.882812 41.664062 C 755.882812 33.441406 749.230469 26.773438 741.003906 26.773438 Z M 741.003906 26.773438 " fill-opacity="1" fill-rule="nonzero"/></g><g clip-path="url(#id2)"><path fill="#de5d1d" d="M 741.003906 294.804688 L 26.773438 294.804688 C 18.558594 294.804688 11.890625 301.472656 11.890625 309.695312 L 11.890625 458.601562 C 11.890625 466.835938 18.558594 473.492188 26.773438 473.492188 L 741.003906 473.492188 C 749.230469 473.492188 755.882812 466.835938 755.882812 458.601562 L 755.882812 309.695312 C 755.882812 301.472656 749.230469 294.804688 741.003906 294.804688 Z M 741.003906 294.804688 " fill-opacity="1" fill-rule="nonzero"/></g><g clip-path="url(#id3)"><path fill="#de5d1d" d="M 741.003906 562.835938 L 26.773438 562.835938 C 18.558594 562.835938 11.890625 569.492188 11.890625 577.726562 L 11.890625 726.632812 C 11.890625 734.867188 18.558594 741.523438 26.773438 741.523438 L 741.003906 741.523438 C 749.230469 741.523438 755.882812 734.867188 755.882812 726.632812 L 755.882812 577.726562 C 755.882812 569.492188 749.230469 562.835938 741.003906 562.835938 Z M 741.003906 562.835938 " fill-opacity="1" fill-rule="nonzero"/></g></svg>