<svg xmlns="http://www.w3.org/2000/svg" xmlns:xlink="http://www.w3.org/1999/xlink" width="500" zoomAndPan="magnify" viewBox="0 0 375 374.999991" height="500" preserveAspectRatio="xMidYMid meet" version="1.0"><defs><filter x="0%" y="0%" width="100%" height="100%" id="id1"><feColorMatrix values="0 0 0 0 1 0 0 0 0 1 0 0 0 0 1 0 0 0 1 0" color-interpolation-filters="sRGB"/></filter><mask id="id2"><g filter="url(#id1)"><rect x="-37.5" width="450" fill="#000000" y="-37.499999" height="449.999989" fill-opacity="0.5176"/></g></mask><clipPath id="id3"><path d="M 0.75 39 L 122 39 L 122 184.757812 L 0.75 184.757812 Z M 0.75 39 " clip-rule="nonzero"/></clipPath><clipPath id="id4"><path d="M 39 0.519531 L 183 0.519531 L 183 184.757812 L 39 184.757812 Z M 39 0.519531 " clip-rule="nonzero"/></clipPath><clipPath id="id5"><path d="M 153 0.519531 L 298 0.519531 L 298 184.757812 L 153 184.757812 Z M 153 0.519531 " clip-rule="nonzero"/></clipPath><clipPath id="id6"><path d="M 262 107 L 338.25 107 L 338.25 184 L 262 184 Z M 262 107 " clip-rule="nonzero"/></clipPath><clipPath id="id7"><rect x="0" width="340" y="0" height="186"/></clipPath></defs><g mask="url(#id2)"><g transform="matrix(1, 0, 0, 1, 18, 89)"><g clip-path="url(#id7)"><g clip-path="url(#id3)"><path fill="#ffffff" d="M 22.746094 45.300781 C 23.996094 44.578125 25.273438 43.921875 26.585938 43.328125 C 27.898438 42.734375 29.238281 42.203125 30.601562 41.742188 C 31.964844 41.277344 33.351562 40.882812 34.753906 40.554688 C 36.15625 40.230469 37.570312 39.972656 39 39.78125 C 40.429688 39.59375 41.863281 39.476562 43.304688 39.429688 C 44.742188 39.382812 46.183594 39.40625 47.621094 39.5 C 49.058594 39.59375 50.488281 39.757812 51.910156 39.992188 C 53.332031 40.226562 54.738281 40.527344 56.128906 40.902344 C 57.519531 41.273438 58.890625 41.714844 60.238281 42.21875 C 61.585938 42.726562 62.90625 43.300781 64.199219 43.9375 C 65.492188 44.574219 66.75 45.269531 67.972656 46.03125 C 69.199219 46.789062 70.378906 47.609375 71.523438 48.484375 C 72.667969 49.363281 73.765625 50.292969 74.816406 51.277344 C 75.867188 52.261719 76.867188 53.292969 77.816406 54.375 C 78.765625 55.457031 79.660156 56.582031 80.5 57.753906 C 81.339844 58.925781 82.121094 60.132812 82.839844 61.378906 L 115.78125 118.425781 C 116.503906 119.671875 117.160156 120.949219 117.757812 122.261719 C 118.351562 123.570312 118.882812 124.910156 119.34375 126.269531 C 119.808594 127.632812 120.203125 129.015625 120.53125 130.417969 C 120.859375 131.820312 121.117188 133.234375 121.304688 134.660156 C 121.492188 136.085938 121.613281 137.519531 121.660156 138.957031 C 121.707031 140.398438 121.683594 141.835938 121.589844 143.269531 C 121.496094 144.707031 121.332031 146.136719 121.097656 147.554688 C 120.863281 148.976562 120.558594 150.378906 120.1875 151.769531 C 119.8125 153.160156 119.371094 154.53125 118.867188 155.875 C 118.359375 157.222656 117.785156 158.542969 117.148438 159.832031 C 116.511719 161.125 115.8125 162.378906 115.050781 163.601562 C 114.289062 164.824219 113.472656 166.007812 112.59375 167.148438 C 111.714844 168.289062 110.785156 169.386719 109.800781 170.4375 C 108.816406 171.488281 107.78125 172.488281 106.699219 173.4375 C 105.613281 174.382812 104.488281 175.277344 103.316406 176.117188 C 102.144531 176.953125 100.933594 177.734375 99.6875 178.453125 C 98.4375 179.171875 97.160156 179.828125 95.847656 180.425781 C 94.535156 181.019531 93.195312 181.546875 91.832031 182.011719 C 90.46875 182.472656 89.085938 182.867188 87.679688 183.195312 C 86.277344 183.523438 84.863281 183.78125 83.433594 183.96875 C 82.003906 184.15625 80.570312 184.277344 79.132812 184.324219 C 77.691406 184.371094 76.253906 184.347656 74.816406 184.253906 C 73.375 184.160156 71.945312 183.996094 70.527344 183.761719 C 69.105469 183.527344 67.699219 183.222656 66.304688 182.851562 C 64.914062 182.480469 63.542969 182.039062 62.195312 181.53125 C 60.847656 181.023438 59.527344 180.453125 58.234375 179.816406 C 56.941406 179.179688 55.683594 178.480469 54.460938 177.722656 C 53.238281 176.960938 52.054688 176.144531 50.910156 175.265625 C 49.765625 174.390625 48.671875 173.460938 47.617188 172.476562 C 46.566406 171.492188 45.566406 170.460938 44.617188 169.378906 C 43.667969 168.296875 42.773438 167.167969 41.933594 166 C 41.09375 164.828125 40.316406 163.621094 39.59375 162.375 L 6.652344 105.304688 C 5.929688 104.058594 5.273438 102.78125 4.675781 101.46875 C 4.082031 100.160156 3.554688 98.824219 3.089844 97.460938 C 2.625 96.097656 2.230469 94.714844 1.902344 93.3125 C 1.574219 91.910156 1.316406 90.496094 1.128906 89.070312 C 0.941406 87.644531 0.824219 86.210938 0.773438 84.773438 C 0.726562 83.335938 0.75 81.898438 0.84375 80.460938 C 0.9375 79.023438 1.101562 77.597656 1.335938 76.175781 C 1.570312 74.757812 1.875 73.351562 2.25 71.960938 C 2.621094 70.570312 3.0625 69.203125 3.570312 67.855469 C 4.078125 66.507812 4.648438 65.1875 5.285156 63.898438 C 5.921875 62.605469 6.621094 61.351562 7.382812 60.128906 C 8.144531 58.90625 8.964844 57.722656 9.839844 56.582031 C 10.71875 55.441406 11.648438 54.34375 12.632812 53.292969 C 13.617188 52.242188 14.652344 51.242188 15.738281 50.296875 C 16.820312 49.347656 17.949219 48.453125 19.117188 47.613281 C 20.289062 46.777344 21.5 46 22.746094 45.277344 Z M 22.746094 45.300781 " fill-opacity="1" fill-rule="evenodd"/></g><g clip-path="url(#id4)"><path fill="#ffffff" d="M 160.378906 6.582031 C 159.132812 5.863281 157.851562 5.207031 156.539062 4.609375 C 155.226562 4.015625 153.890625 3.488281 152.523438 3.023438 C 151.160156 2.5625 149.777344 2.167969 148.375 1.839844 C 146.972656 1.511719 145.554688 1.253906 144.125 1.066406 C 142.699219 0.878906 141.265625 0.761719 139.824219 0.710938 C 138.382812 0.664062 136.945312 0.6875 135.507812 0.78125 C 134.070312 0.875 132.640625 1.039062 131.21875 1.273438 C 129.796875 1.507812 128.390625 1.8125 126.996094 2.183594 C 125.605469 2.558594 124.234375 2.996094 122.886719 3.503906 C 121.539062 4.011719 120.21875 4.582031 118.925781 5.21875 C 117.632812 5.855469 116.375 6.554688 115.152344 7.3125 C 113.929688 8.074219 112.746094 8.890625 111.601562 9.769531 C 110.460938 10.644531 109.363281 11.574219 108.3125 12.558594 C 107.257812 13.542969 106.257812 14.574219 105.308594 15.65625 C 104.359375 16.738281 103.464844 17.867188 102.625 19.035156 C 101.785156 20.207031 101.007812 21.414062 100.289062 22.660156 L 44.960938 118.425781 C 44.238281 119.671875 43.582031 120.949219 42.988281 122.261719 C 42.394531 123.570312 41.863281 124.910156 41.402344 126.273438 C 40.9375 127.632812 40.542969 129.015625 40.214844 130.417969 C 39.890625 131.820312 39.632812 133.234375 39.445312 134.660156 C 39.253906 136.085938 39.136719 137.519531 39.089844 138.957031 C 39.042969 140.394531 39.066406 141.832031 39.160156 143.269531 C 39.253906 144.707031 39.417969 146.132812 39.65625 147.554688 C 39.890625 148.972656 40.191406 150.378906 40.566406 151.769531 C 40.9375 153.160156 41.378906 154.527344 41.886719 155.875 C 42.394531 157.21875 42.964844 158.539062 43.601562 159.832031 C 44.238281 161.121094 44.9375 162.378906 45.699219 163.601562 C 46.460938 164.820312 47.277344 166.003906 48.15625 167.144531 C 49.03125 168.289062 49.960938 169.382812 50.945312 170.433594 C 51.929688 171.484375 52.964844 172.484375 54.046875 173.433594 C 55.132812 174.382812 56.257812 175.277344 57.429688 176.113281 C 58.597656 176.953125 59.808594 177.734375 61.054688 178.453125 C 62.304688 179.171875 63.582031 179.828125 64.894531 180.421875 C 66.207031 181.015625 67.546875 181.542969 68.910156 182.007812 C 70.273438 182.46875 71.660156 182.863281 73.0625 183.191406 C 74.464844 183.519531 75.878906 183.773438 77.308594 183.964844 C 78.738281 184.152344 80.171875 184.269531 81.609375 184.316406 C 83.050781 184.363281 84.488281 184.339844 85.925781 184.246094 C 87.363281 184.152344 88.792969 183.988281 90.214844 183.753906 C 91.636719 183.519531 93.042969 183.214844 94.433594 182.84375 C 95.828125 182.46875 97.195312 182.03125 98.542969 181.523438 C 99.894531 181.015625 101.214844 180.445312 102.503906 179.808594 C 103.796875 179.171875 105.054688 178.476562 106.277344 177.714844 C 107.503906 176.957031 108.6875 176.136719 109.828125 175.261719 C 110.972656 174.386719 112.070312 173.457031 113.121094 172.472656 C 114.171875 171.488281 115.171875 170.457031 116.125 169.375 C 117.074219 168.292969 117.96875 167.167969 118.808594 165.996094 C 119.648438 164.828125 120.425781 163.621094 121.148438 162.375 L 176.476562 66.589844 C 177.195312 65.34375 177.855469 64.0625 178.449219 62.753906 C 179.046875 61.441406 179.578125 60.105469 180.039062 58.742188 C 180.503906 57.378906 180.902344 56 181.230469 54.597656 C 181.558594 53.195312 181.816406 51.78125 182.003906 50.351562 C 182.195312 48.925781 182.3125 47.492188 182.359375 46.054688 C 182.40625 44.617188 182.382812 43.179688 182.289062 41.742188 C 182.195312 40.304688 182.03125 38.878906 181.796875 37.457031 C 181.5625 36.035156 181.257812 34.632812 180.886719 33.242188 C 180.515625 31.851562 180.074219 30.480469 179.566406 29.132812 C 179.058594 27.789062 178.484375 26.46875 177.847656 25.175781 C 177.210938 23.886719 176.511719 22.628906 175.75 21.40625 C 174.988281 20.183594 174.167969 19.003906 173.292969 17.863281 C 172.414062 16.71875 171.484375 15.625 170.496094 14.574219 C 169.511719 13.523438 168.476562 12.523438 167.394531 11.574219 C 166.308594 10.628906 165.179688 9.734375 164.007812 8.894531 C 162.835938 8.058594 161.628906 7.28125 160.378906 6.5625 Z M 160.378906 6.582031 " fill-opacity="1" fill-rule="evenodd"/></g><g clip-path="url(#id5)"><path fill="#de5d1d" d="M 275.175781 6.582031 C 273.929688 5.863281 272.648438 5.207031 271.335938 4.609375 C 270.023438 4.015625 268.683594 3.488281 267.320312 3.023438 C 265.957031 2.5625 264.574219 2.167969 263.171875 1.839844 C 261.765625 1.511719 260.351562 1.253906 258.921875 1.066406 C 257.496094 0.878906 256.058594 0.761719 254.621094 0.710938 C 253.179688 0.664062 251.742188 0.6875 250.304688 0.78125 C 248.867188 0.875 247.4375 1.039062 246.015625 1.273438 C 244.59375 1.507812 243.1875 1.8125 241.792969 2.183594 C 240.402344 2.558594 239.03125 2.996094 237.683594 3.503906 C 236.335938 4.011719 235.015625 4.582031 233.722656 5.21875 C 232.429688 5.855469 231.171875 6.554688 229.949219 7.3125 C 228.726562 8.074219 227.542969 8.890625 226.398438 9.769531 C 225.257812 10.644531 224.160156 11.574219 223.109375 12.558594 C 222.054688 13.542969 221.054688 14.574219 220.105469 15.65625 C 219.15625 16.738281 218.261719 17.867188 217.421875 19.035156 C 216.582031 20.207031 215.804688 21.414062 215.082031 22.660156 L 159.757812 118.425781 C 159.035156 119.671875 158.378906 120.949219 157.78125 122.261719 C 157.1875 123.570312 156.65625 124.910156 156.195312 126.269531 C 155.730469 127.632812 155.335938 129.015625 155.007812 130.417969 C 154.679688 131.820312 154.421875 133.234375 154.234375 134.660156 C 154.046875 136.085938 153.925781 137.519531 153.878906 138.957031 C 153.832031 140.398438 153.855469 141.835938 153.949219 143.269531 C 154.042969 144.707031 154.207031 146.136719 154.441406 147.554688 C 154.675781 148.976562 154.980469 150.378906 155.351562 151.769531 C 155.726562 153.160156 156.167969 154.53125 156.671875 155.875 C 157.179688 157.222656 157.753906 158.542969 158.390625 159.832031 C 159.027344 161.125 159.726562 162.378906 160.488281 163.601562 C 161.25 164.824219 162.066406 166.007812 162.945312 167.148438 C 163.824219 168.289062 164.753906 169.386719 165.738281 170.4375 C 166.722656 171.488281 167.757812 172.488281 168.839844 173.4375 C 169.925781 174.382812 171.050781 175.277344 172.222656 176.117188 C 173.394531 176.953125 174.605469 177.734375 175.851562 178.453125 C 177.101562 179.171875 178.378906 179.828125 179.691406 180.425781 C 181.003906 181.019531 182.34375 181.546875 183.707031 182.011719 C 185.070312 182.472656 186.453125 182.867188 187.859375 183.195312 C 189.261719 183.523438 190.675781 183.78125 192.105469 183.96875 C 193.535156 184.15625 194.96875 184.277344 196.40625 184.324219 C 197.847656 184.371094 199.285156 184.347656 200.722656 184.253906 C 202.164062 184.160156 203.59375 183.996094 205.011719 183.761719 C 206.433594 183.527344 207.839844 183.222656 209.234375 182.851562 C 210.625 182.480469 211.996094 182.039062 213.34375 181.53125 C 214.691406 181.023438 216.011719 180.453125 217.304688 179.816406 C 218.597656 179.179688 219.855469 178.480469 221.078125 177.722656 C 222.300781 176.960938 223.484375 176.144531 224.628906 175.265625 C 225.773438 174.390625 226.867188 173.460938 227.921875 172.476562 C 228.972656 171.492188 229.972656 170.460938 230.921875 169.378906 C 231.871094 168.296875 232.765625 167.167969 233.605469 166 C 234.445312 164.828125 235.222656 163.621094 235.945312 162.375 L 291.292969 66.609375 C 292.011719 65.363281 292.671875 64.085938 293.265625 62.773438 C 293.863281 61.464844 294.390625 60.125 294.855469 58.765625 C 295.320312 57.402344 295.714844 56.019531 296.042969 54.617188 C 296.371094 53.214844 296.628906 51.800781 296.816406 50.375 C 297.003906 48.949219 297.121094 47.515625 297.167969 46.078125 C 297.21875 44.636719 297.195312 43.199219 297.101562 41.765625 C 297.007812 40.328125 296.839844 38.898438 296.605469 37.480469 C 296.371094 36.058594 296.070312 34.65625 295.695312 33.265625 C 295.324219 31.875 294.882812 30.503906 294.375 29.160156 C 293.867188 27.8125 293.296875 26.492188 292.660156 25.203125 C 292.019531 23.910156 291.324219 22.65625 290.5625 21.433594 C 289.800781 20.210938 288.980469 19.027344 288.105469 17.886719 C 287.226562 16.746094 286.296875 15.648438 285.3125 14.597656 C 284.324219 13.546875 283.292969 12.546875 282.207031 11.597656 C 281.125 10.652344 279.996094 9.757812 278.824219 8.917969 C 277.65625 8.082031 276.445312 7.300781 275.195312 6.582031 Z M 275.175781 6.582031 " fill-opacity="1" fill-rule="evenodd"/></g><g clip-path="url(#id6)"><path fill="#de5d1d" d="M 262.234375 145.417969 C 262.234375 144.171875 262.296875 142.933594 262.417969 141.695312 C 262.539062 140.457031 262.722656 139.230469 262.964844 138.007812 C 263.207031 136.789062 263.507812 135.585938 263.871094 134.394531 C 264.230469 133.207031 264.652344 132.035156 265.128906 130.886719 C 265.605469 129.738281 266.136719 128.617188 266.722656 127.519531 C 267.308594 126.421875 267.949219 125.355469 268.640625 124.324219 C 269.332031 123.289062 270.070312 122.292969 270.863281 121.332031 C 271.652344 120.367188 272.484375 119.449219 273.367188 118.570312 C 274.246094 117.691406 275.167969 116.855469 276.128906 116.066406 C 277.09375 115.277344 278.089844 114.539062 279.125 113.847656 C 280.160156 113.15625 281.226562 112.519531 282.324219 111.933594 C 283.421875 111.347656 284.546875 110.816406 285.695312 110.339844 C 286.847656 109.863281 288.019531 109.445312 289.210938 109.085938 C 290.398438 108.722656 291.605469 108.421875 292.828125 108.179688 C 294.046875 107.9375 295.277344 107.753906 296.515625 107.632812 C 297.753906 107.511719 298.996094 107.449219 300.242188 107.449219 C 301.488281 107.449219 302.730469 107.511719 303.96875 107.632812 C 305.207031 107.753906 306.4375 107.9375 307.65625 108.179688 C 308.878906 108.421875 310.085938 108.722656 311.273438 109.085938 C 312.464844 109.445312 313.636719 109.863281 314.785156 110.339844 C 315.9375 110.816406 317.0625 111.347656 318.160156 111.933594 C 319.257812 112.519531 320.324219 113.15625 321.359375 113.847656 C 322.394531 114.539062 323.390625 115.277344 324.355469 116.066406 C 325.316406 116.855469 326.238281 117.691406 327.117188 118.570312 C 327.996094 119.449219 328.832031 120.367188 329.621094 121.332031 C 330.414062 122.292969 331.152344 123.289062 331.84375 124.324219 C 332.535156 125.355469 333.175781 126.421875 333.761719 127.519531 C 334.347656 128.617188 334.878906 129.738281 335.355469 130.886719 C 335.832031 132.035156 336.253906 133.207031 336.613281 134.394531 C 336.976562 135.585938 337.277344 136.789062 337.519531 138.007812 C 337.761719 139.230469 337.945312 140.457031 338.066406 141.695312 C 338.1875 142.933594 338.25 144.171875 338.25 145.417969 C 338.25 146.660156 338.1875 147.898438 338.066406 149.136719 C 337.945312 150.375 337.761719 151.605469 337.519531 152.824219 C 337.277344 154.042969 336.976562 155.246094 336.613281 156.4375 C 336.253906 157.628906 335.832031 158.796875 335.355469 159.945312 C 334.878906 161.09375 334.347656 162.21875 333.761719 163.3125 C 333.175781 164.410156 332.535156 165.476562 331.84375 166.507812 C 331.152344 167.542969 330.414062 168.542969 329.621094 169.503906 C 328.832031 170.464844 327.996094 171.382812 327.117188 172.261719 C 326.238281 173.140625 325.316406 173.976562 324.355469 174.765625 C 323.390625 175.554688 322.394531 176.292969 321.359375 176.984375 C 320.324219 177.675781 319.257812 178.3125 318.160156 178.898438 C 317.0625 179.484375 315.9375 180.015625 314.785156 180.492188 C 313.636719 180.96875 312.464844 181.386719 311.273438 181.75 C 310.085938 182.109375 308.878906 182.410156 307.65625 182.652344 C 306.4375 182.894531 305.207031 183.078125 303.96875 183.199219 C 302.730469 183.320312 301.488281 183.382812 300.242188 183.382812 C 298.996094 183.382812 297.753906 183.320312 296.515625 183.199219 C 295.277344 183.078125 294.046875 182.894531 292.828125 182.652344 C 291.605469 182.410156 290.398438 182.109375 289.207031 181.75 C 288.019531 181.386719 286.847656 180.96875 285.695312 180.492188 C 284.546875 180.015625 283.421875 179.484375 282.324219 178.898438 C 281.226562 178.3125 280.160156 177.675781 279.125 176.984375 C 278.089844 176.292969 277.09375 175.554688 276.128906 174.765625 C 275.167969 173.976562 274.246094 173.140625 273.367188 172.261719 C 272.484375 171.382812 271.652344 170.464844 270.863281 169.503906 C 270.070312 168.542969 269.332031 167.542969 268.640625 166.507812 C 267.949219 165.476562 267.308594 164.410156 266.722656 163.3125 C 266.136719 162.21875 265.605469 161.09375 265.128906 159.945312 C 264.652344 158.796875 264.230469 157.628906 263.871094 156.4375 C 263.507812 155.246094 263.207031 154.042969 262.964844 152.824219 C 262.722656 151.605469 262.539062 150.375 262.417969 149.136719 C 262.296875 147.898438 262.234375 146.660156 262.234375 145.417969 Z M 262.234375 145.417969 " fill-opacity="1" fill-rule="evenodd"/></g></g></g></g></svg>